<svg xmlns="http://www.w3.org/2000/svg" width="65.67" height="73.816" viewBox="0 0 65.67 73.816"><defs><style>.a{fill:#f0faff;}.b{fill:#16476a;}.c{fill:#091d2c;}.d{fill:#ff8f2b;}.e{fill:#fff;}</style></defs><g transform="translate(-18.016 -6.494)"><path class="a" d="M76,68.833a4.448,4.448,0,0,0,.3-.338c.031-.038.056-.078.086-.117.061-.08.123-.161.178-.244.032-.049.058-.1.088-.149.046-.077.093-.152.134-.231.029-.055.052-.111.078-.167.035-.076.072-.151.1-.228.023-.059.042-.12.063-.18.027-.076.055-.152.077-.229.018-.062.031-.125.046-.188s.038-.153.052-.23.019-.129.028-.193.022-.153.029-.23.007-.131.009-.2.007-.153.006-.23-.006-.132-.009-.2-.008-.152-.016-.228-.018-.132-.029-.2-.023-.15-.039-.225-.031-.131-.048-.2-.038-.147-.061-.219-.044-.128-.067-.192-.052-.143-.082-.213-.057-.125-.087-.187-.067-.138-.1-.205-.07-.12-.106-.18-.082-.131-.126-.2-.083-.114-.126-.171-.1-.124-.148-.184-.1-.108-.146-.161c-.03-.032-.057-.067-.089-.1s-.055-.048-.081-.073-.047-.05-.072-.073-.062-.049-.092-.075c-.057-.049-.115-.1-.174-.142s-.1-.079-.158-.116q-.111-.079-.226-.149l-.1-.058a4.381,4.381,0,0,0-5.3.688l5.263-5.263a4.384,4.384,0,1,0-6.2-6.2l2.36-2.36a4.384,4.384,0,0,0-6.2-6.2l-4.5,4.5a4.382,4.382,0,0,0,.688-5.3c-.019-.033-.038-.066-.058-.1q-.071-.115-.149-.225-.056-.08-.117-.158c-.045-.059-.093-.116-.142-.173-.026-.03-.049-.062-.076-.092s-.049-.047-.073-.072-.047-.055-.073-.081-.066-.058-.1-.089c-.053-.05-.106-.1-.161-.146s-.122-.1-.184-.148-.113-.086-.171-.126-.129-.086-.2-.126-.119-.073-.18-.106-.136-.071-.2-.1-.124-.06-.187-.087-.141-.056-.212-.082-.128-.047-.193-.067-.146-.042-.219-.06-.13-.034-.2-.048-.149-.027-.224-.038-.132-.021-.2-.029-.151-.012-.227-.016-.132-.009-.2-.01-.152,0-.229.006-.132,0-.2.009-.152.018-.229.029-.13.016-.195.028-.152.034-.228.052-.127.028-.19.046-.151.05-.226.076-.122.04-.182.064c-.076.03-.15.067-.225.1-.057.027-.115.05-.171.079-.077.04-.152.087-.228.132-.051.03-.1.057-.152.09-.083.054-.161.115-.241.175-.04.03-.081.057-.12.088a4.378,4.378,0,0,0-.338.3h0l-7.457,7.458-7,7,.246-3.8A7,7,0,0,0,33.6,44.134a2.738,2.738,0,0,0-2.908,2.547l-.566,8.743A108.015,108.015,0,0,1,28.026,70a11.9,11.9,0,0,0,3.249,10.817l7.947,7.947a11.916,11.916,0,0,0,16.852,0l2.671-2.671Z" transform="translate(-6.826 -23.15)"/><g transform="translate(20.355 15.873)"><path class="b" d="M97.778,69.57a.6.6,0,0,1-.426-1.029l17.6-17.6a3.781,3.781,0,1,0-5.348-5.348L92,63.193a.6.6,0,0,1-.852-.852l17.6-17.6a4.986,4.986,0,1,1,7.052,7.052l-17.6,17.6A.6.6,0,0,1,97.778,69.57Z" transform="translate(-71.333 -41.575)"/><path class="b" d="M118.355,95.621a.6.6,0,0,1-.426-1.029l15.243-15.243A3.781,3.781,0,0,0,127.825,74L112.582,89.244a.6.6,0,1,1-.852-.852l15.243-15.243a4.986,4.986,0,1,1,7.052,7.052L118.782,95.444A.6.6,0,0,1,118.355,95.621Z" transform="translate(-85.711 -61.427)"/><path class="b" d="M46.246,91.453a12.48,12.48,0,0,1-8.852-3.661l-7.947-7.947a12.5,12.5,0,0,1-3.413-11.363,106.612,106.612,0,0,0,2.088-14.5l.566-8.743a3.34,3.34,0,0,1,3.549-3.109,7.609,7.609,0,0,1,7.083,8.073l-.143,2.2L52.506,39.083a5.058,5.058,0,0,1,.384-.346c.034-.028.068-.052.1-.076l.063-.047c.08-.061.161-.122.245-.177.042-.027.083-.052.126-.075l.094-.056c.07-.042.14-.084.212-.122.048-.025.1-.047.144-.068l.1-.044c.07-.033.139-.065.211-.094.052-.02.1-.038.157-.056l.094-.033c.071-.025.142-.05.214-.07.055-.016.11-.029.166-.042l.093-.022c.072-.017.144-.035.216-.048.057-.011.115-.018.173-.026l.087-.012c.074-.011.147-.02.221-.027.059-.005.119-.008.178-.009l.046,0c.106,0,.183-.008.26-.007.061,0,.122,0,.183.008l.043,0c.1.006.181.01.258.019.061.007.122.016.183.026l.042.007c.1.015.177.028.256.044s.132.031.2.048c.111.029.193.05.274.075s.136.046.2.071c.1.035.177.065.256.1s.141.064.21.1.159.078.235.12.138.08.206.121.149.093.222.144.131.094.195.143.14.109.208.168.123.109.183.166l.024.021c.029.025.058.051.086.079s.049.052.071.078l.024.026c.024.022.047.045.069.07s.05.058.073.088c.07.083.124.148.176.215s.091.121.133.181c.059.084.116.169.17.256.024.04.047.078.069.117A4.966,4.966,0,0,1,61,42.986l2.2-2.2a4.986,4.986,0,1,1,7.052,7.052l-.064.064a4.984,4.984,0,0,1,3.9,8.5l-2.968,2.968a4.979,4.979,0,0,1,2.881.66l.109.065c.09.055.176.112.26.172.058.041.119.086.179.131s.133.106.2.162c.049.039.077.061.1.086s.049.047.071.07l.028.027c.026.023.052.046.077.071s.052.055.078.084l.021.024c.057.061.113.121.166.183s.114.138.168.209.1.129.143.195.1.147.144.222.083.136.121.2.082.156.119.234.067.139.1.211.065.163.094.244.055.151.076.219.043.149.063.224l.014.053c.017.066.034.131.047.2.017.083.031.169.044.255l.005.031c.01.064.02.128.027.193.009.081.014.163.018.246l0,.053c0,.061.007.122.008.183,0,.077,0,.153-.006.23l0,.081c0,.058,0,.115-.009.173-.007.077-.017.149-.027.222l-.012.086c-.008.059-.016.117-.027.176-.014.075-.031.149-.05.224l-.021.089c-.012.054-.025.108-.04.161-.022.077-.048.15-.074.224l-.029.083c-.018.053-.036.107-.057.16-.029.073-.062.144-.1.216l-.044.1c-.02.047-.042.093-.066.139-.039.076-.083.15-.128.223l-.049.084c-.024.042-.049.084-.075.125-.059.089-.123.174-.188.26l-.037.051c-.024.034-.048.067-.074.1a5,5,0,0,1-.347.385L55.1,87.791a12.478,12.478,0,0,1-8.852,3.662ZM32.016,43.332a2.136,2.136,0,0,0-2.125,1.989l-.566,8.743a107.777,107.777,0,0,1-2.11,14.659A11.3,11.3,0,0,0,30.3,78.993l7.947,7.947a11.327,11.327,0,0,0,16,0L74.177,67.009h0a3.7,3.7,0,0,0,.263-.292l.073-.1c.064-.084.112-.146.155-.212.012-.019.024-.04.035-.06l.065-.111c.031-.052.063-.1.09-.156.013-.024.023-.049.034-.073l.055-.118c.023-.049.047-.1.067-.149.012-.03.022-.062.033-.093l.036-.106c.018-.051.036-.1.052-.153.009-.031.016-.064.024-.1l.025-.106c.013-.051.025-.1.035-.154s.012-.077.017-.115l.013-.1c.007-.052.015-.1.019-.155,0-.035,0-.074.005-.113l0-.092c0-.054.005-.108,0-.161s0-.082-.006-.124l0-.047c0-.077-.007-.137-.014-.2,0-.045-.012-.089-.019-.133l-.006-.037c-.01-.067-.02-.131-.033-.194-.01-.049-.022-.094-.034-.14l.57-.2-.584.151c-.014-.055-.028-.11-.045-.165s-.034-.1-.052-.149c-.029-.08-.052-.142-.078-.2s-.048-.105-.074-.159-.058-.119-.09-.177-.06-.1-.092-.155-.07-.112-.108-.168-.071-.1-.108-.148-.083-.107-.128-.159-.083-.094-.126-.14c-.018-.019-.036-.039-.054-.06l-.022-.025-.072-.064c-.018-.017-.035-.035-.053-.054l-.028-.025-.059-.048c-.05-.043-.1-.084-.151-.124s-.088-.067-.134-.1c-.066-.047-.131-.09-.2-.13l-.082-.049a3.782,3.782,0,0,0-4.572.591.6.6,0,1,1-.852-.852l5.263-5.263A3.781,3.781,0,0,0,67.893,50.2a.6.6,0,0,1-.852-.852l2.36-2.36a3.781,3.781,0,1,0-5.348-5.348l-4.5,4.5a.6.6,0,0,1-.852-.852,3.782,3.782,0,0,0,.593-4.57l-.051-.087c-.04-.064-.083-.129-.128-.193-.033-.046-.066-.092-.1-.136s-.079-.1-.121-.148l-.05-.061-.024-.027L58.77,40l-.088-.093c-.02-.018-.041-.036-.061-.055-.046-.044-.092-.086-.139-.126s-.105-.086-.159-.128-.1-.074-.147-.108-.111-.073-.168-.108-.1-.063-.156-.092-.116-.06-.176-.089-.108-.052-.161-.075-.121-.048-.183-.07-.116-.042-.166-.058-.123-.035-.185-.051l-.031-.008c-.047-.012-.094-.025-.142-.035s-.118-.021-.177-.03l-.061-.009c-.042-.007-.083-.013-.126-.018s-.113-.009-.17-.012l-.074,0c-.041,0-.082-.005-.124-.006s-.111,0-.166,0l-.086,0c-.039,0-.078,0-.117.006s-.1.012-.155.019l-.1.014c-.037,0-.073.009-.11.016s-.1.022-.15.034l-.109.026c-.034.008-.068.015-.1.025-.049.014-.1.032-.147.049l-.114.039c-.03.01-.061.02-.091.032-.049.019-.1.042-.143.064l-.119.055c-.027.012-.053.023-.079.037-.049.025-.1.055-.145.084l-.12.071c-.021.012-.042.023-.062.037-.06.039-.118.084-.176.128l-.094.07c-.014.01-.028.019-.042.03a3.845,3.845,0,0,0-.29.262L38.9,54.393a.6.6,0,0,1-1.027-.465l.246-3.8a6.4,6.4,0,0,0-5.96-6.793c-.047,0-.095-.005-.142-.005Z" transform="translate(-25.779 -37.624)"/><path class="c" d="M64.062,95.551a.616.616,0,0,1-.1-.008.6.6,0,0,1-.5-.693l.739-4.477a.6.6,0,1,1,1.189.2l-.739,4.477A.6.6,0,0,1,64.062,95.551Z" transform="translate(-52.107 -74.129)"/><path class="c" d="M64.347,135.407a.6.6,0,0,1-.426-1.029l5.618-5.618a7.674,7.674,0,0,0,0-10.84.6.6,0,0,1,.852-.852,8.881,8.881,0,0,1,0,12.545l-5.618,5.618A.6.6,0,0,1,64.347,135.407Z" transform="translate(-52.306 -93.009)"/></g><path class="d" d="M186.371,37.153a.9.9,0,0,1-.639-1.543l6.754-6.755a.9.9,0,1,1,1.278,1.278l-6.754,6.755A.9.9,0,0,1,186.371,37.153Z" transform="translate(-117.001 -15.439)"/><path class="d" d="M208.734,65.631h-9.552a.9.9,0,1,1,0-1.808h9.552a.9.9,0,1,1,0,1.808Z" transform="translate(-125.953 -40.057)"/><path class="d" d="M173.56,17.854a.9.9,0,0,1-.9-.9V7.4a.9.9,0,1,1,1.808,0V16.95A.9.9,0,0,1,173.56,17.854Z" transform="translate(-108.05)"/><path class="d" d="M136.115,20.5a.9.9,0,0,1-.639-.265l-6.754-6.755A.9.9,0,0,1,130,12.2l6.754,6.755a.9.9,0,0,1-.639,1.543Z" transform="translate(-77.167 -3.803)"/><path class="e" d="M68.4,81.228a4.448,4.448,0,0,0-.024-.455c0-.049-.015-.1-.022-.143-.014-.1-.027-.2-.047-.3-.012-.057-.029-.111-.043-.168-.022-.086-.042-.174-.068-.258-.019-.059-.042-.115-.063-.173-.029-.079-.056-.158-.088-.234-.025-.058-.055-.114-.083-.171-.035-.073-.069-.146-.108-.216s-.067-.11-.1-.165-.081-.135-.125-.2-.078-.1-.117-.157-.092-.124-.142-.183-.088-.1-.132-.146-.1-.113-.158-.167-.1-.089-.147-.133-.113-.1-.173-.15-.106-.08-.16-.12-.122-.09-.186-.132-.114-.07-.172-.1-.13-.077-.2-.112-.122-.06-.183-.088-.138-.064-.209-.093-.128-.048-.193-.071-.145-.05-.219-.071-.134-.036-.2-.052-.151-.035-.227-.049-.139-.023-.21-.032-.156-.019-.235-.026-.144-.009-.217-.011c-.044,0-.088-.007-.133-.007s-.073,0-.109.005-.068,0-.1,0-.078.009-.118.012c-.075.006-.149.013-.223.022s-.13.018-.194.03c-.089.015-.178.033-.265.054l-.111.028a4.382,4.382,0,0,0-3.261,4.233V73.785a4.384,4.384,0,1,0-8.768,0V70.447a4.384,4.384,0,1,0-8.768,0V76.8a4.382,4.382,0,0,0-3.261-4.233l-.111-.029c-.087-.021-.176-.039-.265-.054-.064-.011-.129-.021-.194-.03s-.148-.016-.223-.022c-.04,0-.078-.01-.118-.012s-.068,0-.1,0-.072-.005-.109-.005-.088.005-.132.007c-.073,0-.145.005-.217.011s-.157.015-.234.026-.141.019-.21.032-.152.031-.227.049-.136.033-.2.052-.146.046-.218.071-.13.045-.194.071-.139.06-.208.092-.124.057-.184.089-.132.074-.2.112-.116.068-.173.1-.124.086-.185.131-.108.078-.161.12-.115.1-.172.149-.1.087-.147.134-.105.11-.157.166-.091.1-.133.147-.095.121-.141.182-.081.1-.118.158-.084.131-.124.2-.07.11-.1.167-.071.142-.106.213-.058.114-.084.174c-.032.075-.059.153-.087.231-.021.059-.046.117-.065.177-.026.083-.046.169-.067.255-.014.057-.032.113-.044.171-.02.1-.033.2-.046.294-.007.049-.017.1-.023.147a4.434,4.434,0,0,0-.024.454h0V97.252l-2.512-2.86a7,7,0,0,0-9.867-.645,2.738,2.738,0,0,0-.255,3.857l5.782,6.583A107.984,107.984,0,0,1,35.3,115.98a11.9,11.9,0,0,0,9.946,5.351H56.482A11.916,11.916,0,0,0,68.4,109.415V81.228Z" transform="translate(-1.399 -41.622)"/><path class="b" d="M62.8,173.282a.6.6,0,0,1-.6-.6v-4.492a.6.6,0,0,1,1.205,0v4.492A.6.6,0,0,1,62.8,173.282Z" transform="translate(-30.867 -112.557)"/><path class="b" d="M100.664,94.547a.6.6,0,0,1-.6-.6V69.05a3.781,3.781,0,1,0-7.563,0V93.944a.6.6,0,0,1-1.205,0V69.05a4.987,4.987,0,1,1,9.973,0V93.944A.6.6,0,0,1,100.664,94.547Z" transform="translate(-51.201 -40.225)"/><path class="b" d="M129.767,102.287a.6.6,0,0,1-.6-.6V80.128a3.782,3.782,0,0,0-7.563,0v21.557a.6.6,0,1,1-1.205,0V80.128a4.987,4.987,0,0,1,9.973,0v21.557A.6.6,0,0,1,129.767,102.287Z" transform="translate(-71.535 -47.965)"/><path class="b" d="M55.083,120.536H43.845A12.5,12.5,0,0,1,33.4,114.915a106.679,106.679,0,0,0-8.774-11.727l-5.782-6.583a3.341,3.341,0,0,1,.311-4.708,7.609,7.609,0,0,1,10.717.7l1.456,1.658V75.407a4.971,4.971,0,0,1,.027-.517c0-.041.011-.084.018-.126l.011-.071c.014-.1.028-.2.049-.3.01-.048.022-.095.035-.142l.027-.106c.019-.08.039-.159.064-.237.017-.052.035-.1.054-.15l.038-.1c.026-.071.052-.143.082-.212.021-.05.045-.1.069-.147l.047-.1c.032-.066.064-.132.1-.2.027-.049.056-.1.086-.143l.056-.09c.037-.061.075-.123.116-.182s.069-.1.105-.142l.056-.073c.044-.058.087-.115.134-.171s.077-.088.117-.13L32.673,72c.051-.055.1-.11.156-.163s.087-.082.133-.122l.033-.029c.077-.069.135-.121.2-.169s.1-.078.153-.116l.03-.022c.081-.059.145-.105.211-.149s.111-.069.168-.1l.028-.016c.082-.049.153-.09.226-.128s.126-.063.19-.093c.1-.045.175-.081.256-.113s.139-.053.211-.077c.092-.032.174-.06.258-.084s.153-.041.231-.06.171-.04.258-.056.159-.026.239-.037.177-.022.268-.029.163-.01.246-.013l.033,0a1.58,1.58,0,0,1,.22,0h.037c.033,0,.066,0,.1,0s.074.006.11.01c.111.009.195.017.279.028s.15.021.224.034c.1.017.2.038.3.061l.131.033a4.973,4.973,0,0,1,2.5,1.568V69.05a4.987,4.987,0,1,1,9.973,0v.09a4.985,4.985,0,0,1,8.768,3.247v4.2a4.977,4.977,0,0,1,2.5-1.57l.123-.032c.1-.024.2-.045.305-.062.07-.012.144-.024.219-.033s.17-.019.255-.025c.062-.007.1-.011.134-.013s.068,0,.1,0h.036a1.587,1.587,0,0,1,.221,0l.033,0c.083,0,.165.006.246.013s.177.017.266.029.161.022.24.037.173.035.259.056.154.037.23.059.167.052.249.081.152.053.22.081.16.069.238.105.144.067.208.1.146.081.218.123l.034.02c.057.034.114.067.17.1s.13.089.194.136l.052.038c.049.036.1.072.146.111.064.052.125.105.185.16l.042.037c.046.041.092.082.136.125s.106.108.157.164l.057.062c.039.042.079.085.116.129.051.06.1.122.144.184l.047.062c.035.046.071.092.1.14s.082.125.12.189l.052.084c.03.047.058.094.085.143.037.067.071.136.1.206l.044.09c.024.048.047.1.069.145.029.068.055.139.081.211l.039.107c.019.048.037.1.052.146.025.081.046.165.067.249l.023.092c.013.047.026.095.036.144.022.1.036.211.051.317l.009.062c.007.041.014.081.018.123a4.962,4.962,0,0,1,.027.517v28.187A12.534,12.534,0,0,1,55.083,120.536ZM24.156,91.222a6.365,6.365,0,0,0-4.21,1.582,2.135,2.135,0,0,0-.2,3.006l5.782,6.583A107.758,107.758,0,0,1,34.4,114.25a11.3,11.3,0,0,0,9.443,5.081H55.083A11.327,11.327,0,0,0,66.4,108.018V79.831a3.819,3.819,0,0,0-.02-.392l-.02-.125c-.014-.1-.023-.18-.039-.257-.005-.023-.011-.045-.018-.068l-.033-.126c-.014-.058-.028-.116-.045-.172-.009-.027-.019-.053-.029-.079l-.048-.13c-.017-.048-.034-.1-.055-.143-.012-.029-.026-.055-.039-.082L66,78.149c-.023-.049-.046-.1-.072-.144-.017-.03-.035-.058-.052-.087l-.059-.1c-.027-.045-.054-.089-.083-.132s-.044-.059-.066-.089l-.056-.074c-.033-.044-.066-.089-.1-.131s-.049-.055-.075-.083l-.064-.069c-.036-.04-.073-.08-.111-.118s-.061-.056-.093-.084l-.033-.03c-.058-.052-.1-.092-.149-.13s-.067-.051-.1-.077l-.037-.027c-.063-.046-.11-.081-.159-.113s-.081-.05-.121-.074l-.028-.017c-.061-.036-.114-.068-.17-.1s-.1-.047-.144-.069c-.074-.035-.133-.062-.194-.086s-.1-.038-.154-.056c-.074-.026-.136-.047-.2-.066s-.117-.031-.175-.045-.129-.03-.195-.042-.121-.02-.182-.028-.133-.017-.2-.022-.125-.008-.187-.009l-.081,0-.034,0-.094.005h-.077l-.036,0-.078.008c-.064,0-.129.011-.193.019s-.109.015-.164.025c-.08.014-.156.029-.232.047l-.092.024a3.782,3.782,0,0,0-2.815,3.651.6.6,0,0,1-1.205,0V72.387a3.782,3.782,0,0,0-7.563,0,.6.6,0,1,1-1.205,0V69.05a3.781,3.781,0,1,0-7.563,0v6.357a.6.6,0,1,1-1.205,0,3.781,3.781,0,0,0-2.812-3.651l-.1-.025c-.072-.017-.149-.033-.226-.046-.057-.01-.112-.019-.168-.026s-.126-.014-.191-.019l-.078-.008-.037,0h-.076l-.077,0h-.052l-.081,0c-.063,0-.125,0-.186.009s-.136.013-.2.022-.121.017-.181.027-.13.027-.2.042-.117.028-.174.045-.125.04-.188.061-.115.04-.167.061-.121.052-.18.08-.112.052-.158.076-.107.06-.16.091l-.039.023c-.041.024-.081.048-.121.074s-.095.066-.142.1l-.05.036c-.036.026-.072.052-.106.08s-.086.074-.129.112l-.057.05c-.03.027-.061.053-.09.082s-.073.077-.109.117l-.064.07c-.026.028-.052.055-.077.084s-.062.079-.093.119l-.063.083c-.023.03-.046.06-.068.091s-.054.083-.079.125l-.063.1c-.018.028-.036.056-.052.086-.024.044-.046.09-.068.136l-.056.114c-.014.028-.029.056-.041.085-.02.046-.037.094-.054.143l-.047.126c-.01.027-.021.055-.03.083-.017.052-.03.107-.043.162l-.035.135c-.006.023-.013.045-.018.068-.015.072-.025.147-.035.221l-.017.111a.47.47,0,0,0-.007.047,3.809,3.809,0,0,0-.021.394V95.855a.6.6,0,0,1-1.055.4l-2.512-2.86a6.378,6.378,0,0,0-4.807-2.171Z" transform="translate(0 -40.225)"/></g></svg>