<svg xmlns="http://www.w3.org/2000/svg" width="28.162" height="30.609" viewBox="0 0 28.162 30.609"><defs><style>.a{fill:#ffe280;}.b{fill:#ff8f2b;}.c{fill:#e58e13;}.d{fill:#16476a;}</style></defs><g transform="translate(-0.001 0)"><path class="a" d="M67.414,63.9H44.582a1.955,1.955,0,0,0,1.974-1.455C48.18,58.069,43.853,45.3,56,45.3S63.816,58.069,65.44,62.45A1.956,1.956,0,0,0,67.414,63.9Zm0,0" transform="translate(-41.917 -42.593)"/><path class="b" d="M34.859,358.695a2.211,2.211,0,0,1-2.211,2.211H9.816a2.21,2.21,0,1,1,0-4.421H32.648a2.21,2.21,0,0,1,2.211,2.21Zm0,0" transform="translate(-7.151 -335.172)"/><path class="b" d="M65.444,62.457H53.577a2.265,2.265,0,0,1-2.263-2.338c.167-5.41-.7-14.708,4.6-14.811-14.533.075-5.243,18.6-11.327,18.6H67.418A1.956,1.956,0,0,1,65.444,62.457Zm0,0" transform="translate(-41.92 -42.6)"/><path class="a" d="M135.322,358.695a2.211,2.211,0,0,1-2.211,2.211H116.667a2.21,2.21,0,0,1,0-4.421h16.444a2.21,2.21,0,0,1,2.211,2.21Zm0,0" transform="translate(-107.614 -335.172)"/><path class="b" d="M170.425,430.434a4.421,4.421,0,1,1-8.843,0Zm0,0" transform="translate(-151.922 -404.701)"/><path class="a" d="M219.829,453.246a4.432,4.432,0,0,1-3.025,2.9,4.426,4.426,0,0,1-2.255-1.479.874.874,0,0,1,.687-1.418Zm0,0" transform="translate(-201.54 -426.149)"/><path class="c" d="M202.348,10.028c0-.056.007-.112.007-.169a2.254,2.254,0,0,0-4.507,0c0,.057,0,.113.007.169" transform="translate(-186.02 -7.151)"/><path class="d" d="M25.5,20.857h0c-.88,0-1.377-.457-1.662-1.526a19.672,19.672,0,0,1-.311-4.358,28.2,28.2,0,0,0-.532-6.4.455.455,0,0,0-.883.216,27.519,27.519,0,0,1,.506,6.19,20.149,20.149,0,0,0,.341,4.586,3.652,3.652,0,0,0,.6,1.293H4.61a3.652,3.652,0,0,0,.6-1.293,20.135,20.135,0,0,0,.341-4.586c.016-2.654.035-5.662,1.12-7.964,1.222-2.591,3.647-3.851,7.412-3.851a9.687,9.687,0,0,1,5.029,1.155,6.1,6.1,0,0,1,2.47,2.888.455.455,0,0,0,.833-.366,7.076,7.076,0,0,0-2.833-3.3,8.627,8.627,0,0,0-2.8-1.04,2.707,2.707,0,0,0-5.4,0,8.709,8.709,0,0,0-2.688.974A7.01,7.01,0,0,0,5.847,6.626c-1.171,2.484-1.191,5.6-1.207,8.347a19.658,19.658,0,0,1-.311,4.358c-.284,1.069-.781,1.526-1.662,1.526h0a2.665,2.665,0,0,0,0,5.331H5.543a.455.455,0,1,0,0-.909H2.665a1.756,1.756,0,0,1,0-3.512H25.5a1.756,1.756,0,0,1,0,3.512H7.361a.455.455,0,0,0,0,.909H9.227a4.875,4.875,0,0,0,9.708,0H25.5a2.665,2.665,0,0,0,0-5.331ZM14.081.909a1.8,1.8,0,0,1,1.764,1.445,15.593,15.593,0,0,0-3.527,0A1.8,1.8,0,0,1,14.081.909Zm0,28.791a3.972,3.972,0,0,1-3.94-3.512h7.88A3.972,3.972,0,0,1,14.081,29.7Zm0,0"/><path class="d" d="M353.976,34.327a5.9,5.9,0,0,1,1.614,1.539A8.742,8.742,0,0,1,357.2,41.2a.455.455,0,0,0,.909,0,9.646,9.646,0,0,0-1.819-5.921,6.644,6.644,0,0,0-1.871-1.75.455.455,0,0,0-.441.8Zm0,0" transform="translate(-332.595 -31.474)"/><path class="d" d="M411.746,37.354a4.815,4.815,0,0,1,1.792,4.1.455.455,0,0,0,.909,0,5.693,5.693,0,0,0-2.211-4.869.455.455,0,0,0-.49.766Zm0,0" transform="translate(-386.936 -34.334)"/><path class="d" d="M44.8,41.657a.455.455,0,0,0,.455-.455,8.744,8.744,0,0,1,1.607-5.336,5.916,5.916,0,0,1,1.614-1.539.455.455,0,0,0-.441-.8,6.645,6.645,0,0,0-1.871,1.75A9.648,9.648,0,0,0,44.348,41.2.455.455,0,0,0,44.8,41.657Zm0,0" transform="translate(-41.696 -31.473)"/><path class="d" d="M11.345,41.912a.454.454,0,0,0,.454-.454,4.814,4.814,0,0,1,1.792-4.1.455.455,0,0,0-.49-.766,5.693,5.693,0,0,0-2.211,4.869A.455.455,0,0,0,11.345,41.912Zm0,0" transform="translate(-10.24 -34.334)"/></g></svg>