<svg xmlns="http://www.w3.org/2000/svg" width="94.069" height="124" viewBox="0 0 94.069 124"><defs><style>.a{fill:#fedac6;}.b{fill:#f5c4b0;}.c{fill:#ff8f2b;}.d{fill:#feec66;}.e{fill:#f5ad76;}.f{fill:#16476a;}.g{fill:#fff;stroke:#16476a;stroke-width:3px;}</style></defs><g transform="translate(-61.793)"><path class="a" d="M196.863,327.931a19.435,19.435,0,0,0,17.873-11.78l1.026-2.373-2.352-.321a4.274,4.274,0,0,1-3.72-4.276v-9.044H184.036v9.172a4.274,4.274,0,0,1-3.72,4.276l-2.352.321,1.026,2.373A19.433,19.433,0,0,0,196.863,327.931Z" transform="translate(-88.036 -227.448)"/><path class="b" d="M228.143,310.828a3.935,3.935,0,0,1-.256-1.411v-9.279H202.231v9.172a3.934,3.934,0,0,1-.256,1.411A28.946,28.946,0,0,0,228.143,310.828Z" transform="translate(-106.232 -227.448)"/><path class="c" d="M149.276,358.8l-14.859-1.988-1.026,2.373a19.455,19.455,0,0,1-35.746,0l-1.026-2.373L81.76,358.8a12.83,12.83,0,0,0-11.139,12.7v22.9h89.793V371.5A12.83,12.83,0,0,0,149.276,358.8Z" transform="translate(-6.69 -270.396)"/><path class="c" d="M79.173,367.669a12.826,12.826,0,0,0-8.552,12.058v22.9h8.552Z" transform="translate(-6.69 -278.624)"/><path class="a" d="M346.413,150.069h-2.138V162.9h2.138a6.414,6.414,0,0,0,0-12.828Z" transform="translate(-214.068 -113.724)"/><path class="b" d="M132.414,156.483a6.413,6.413,0,0,0,6.414,6.414h2.138V150.069h-2.138A6.413,6.413,0,0,0,132.414,156.483Z" transform="translate(-53.517 -113.724)"/><path class="a" d="M195.24,78.779H171.851a19.547,19.547,0,0,1-2.736-.214c-2.352,7.44-10.219,10.9-10.219,10.9v27.344a12.823,12.823,0,0,0,3.164,8.552l9.236,10.561a8.548,8.548,0,0,0,6.414,2.908h9.321a8.548,8.548,0,0,0,6.414-2.908l9.236-10.561a12.823,12.823,0,0,0,3.164-8.552V89.469C197.913,87.331,195.24,78.779,195.24,78.779Z" transform="translate(-73.585 -59.538)"/><path class="b" d="M167.447,93.131a21.557,21.557,0,0,1-8.552,7.376v27.344a12.823,12.823,0,0,0,3.164,8.552l5.388,6.029v-49.3Z" transform="translate(-73.585 -70.576)"/><path class="d" d="M185.862,25.931h0a17.1,17.1,0,0,0-17.1-17.1H132.414a19.521,19.521,0,0,0,19.37,17.1Z" transform="translate(-53.517 -6.689)"/><g transform="translate(78.897 2.138)"><path class="e" d="M169.115,65.856a19.415,19.415,0,0,1-9.45-4.062h-.235a17.587,17.587,0,0,0-.535,4.276V76.76S166.764,73.3,169.115,65.856Z" transform="translate(-152.482 -48.966)"/><path class="e" d="M308.966,79.448s2.672,8.552,10.69,10.69V79.448Z" transform="translate(-266.207 -62.345)"/><path class="e" d="M132.414,8.828a19.521,19.521,0,0,0,19.37,17.1H177.31c-26.19-3.271-38.483-12.828-42.972-17.1Z" transform="translate(-132.414 -8.828)"/></g><path class="f" d="M66.069,358.138H61.793v-22.9a14.985,14.985,0,0,1,13.118-14.863l17.082-2.307a2.14,2.14,0,0,0,1.868-2.138v-6.968h4.276v6.948a6.41,6.41,0,0,1-5.582,6.395l-17.095,2.309a10.712,10.712,0,0,0-9.392,10.621v22.9Z" transform="translate(0 -234.138)"/><path class="f" d="M336.482,358.138h-4.276v-22.9a10.708,10.708,0,0,0-9.37-10.621l-17.127-2.311a6.415,6.415,0,0,1-5.572-6.414v-6.929h4.276v6.948a2.143,2.143,0,0,0,1.86,2.157l17.112,2.309a14.983,14.983,0,0,1,13.1,14.863Z" transform="translate(-180.62 -234.138)"/><path class="f" d="M346.413,158.345h-2.138v-4.276h2.138a4.276,4.276,0,0,0,0-8.552h-2.138v-4.276h2.138a8.552,8.552,0,0,1,0,17.1Z" transform="translate(-214.068 -107.035)"/><path class="f" d="M134.276,158.345h-2.138a8.552,8.552,0,0,1,0-17.1h2.138v4.276h-2.138a4.276,4.276,0,0,0,0,8.552h2.138Z" transform="translate(-46.828 -107.035)"/><path class="f" d="M189.656,367.571h-.024A21.541,21.541,0,0,1,169.807,354.5l-1.368-3.183,3.929-1.687,1.368,3.185a17.277,17.277,0,0,0,15.9,10.484h.019a17.285,17.285,0,0,0,15.9-10.484l1.368-3.185,3.93,1.687-1.368,3.185A21.553,21.553,0,0,1,189.656,367.571Z" transform="translate(-80.818 -264.95)"/><path class="f" d="M238.065,160.007h-6.414a2.139,2.139,0,0,1-2.123-2.4l2.138-17.1,4.242.53-1.837,14.7h3.994v4.276Z" transform="translate(-127.1 -106.473)"/><path class="g" d="M229.557,231.168c-1.128-1.877,0-4.276,0-4.276h6.585a12.679,12.679,0,0,0,9.018-3.66l3,3.044C247.708,233.625,236.022,240.25,229.557,231.168Z" transform="translate(-127.144 -169.168)"/><path class="f" d="M180.342,126.622h-9.323A10.686,10.686,0,0,1,163,122.99l-9.24-10.566a14.965,14.965,0,0,1-3.692-9.978V64.43a19.737,19.737,0,0,1,.6-4.8l4.146,1.046a15.576,15.576,0,0,0-.468,3.756v38.032a10.709,10.709,0,0,0,2.636,7.147l9.234,10.559a6.405,6.405,0,0,0,4.806,2.176h9.319a6.414,6.414,0,0,0,4.808-2.181l9.232-10.557a10.674,10.674,0,0,0,2.634-7.126V64.43h4.276v38.034a14.935,14.935,0,0,1-3.69,9.956l-9.238,10.563A10.676,10.676,0,0,1,180.342,126.622Z" transform="translate(-66.895 -45.188)"/><circle class="f" cx="4.276" cy="4.276" r="4.276" transform="translate(91.724 34.293)"/><circle class="f" cx="4.276" cy="4.276" r="4.276" transform="translate(115.241 34.293)"/><path class="f" d="M179.173,21.379H145.095A21.689,21.689,0,0,1,123.6,2.4,2.139,2.139,0,0,1,125.725,0H162.07a19.264,19.264,0,0,1,19.241,19.241A2.137,2.137,0,0,1,179.173,21.379Zm-50.855-17.1A17.418,17.418,0,0,0,145.095,17.1h31.789A14.988,14.988,0,0,0,162.07,4.276H128.319Z" transform="translate(-46.829 0)"/><path class="f" d="M157.063,84.331l-1.71-3.919.855,1.958-.86-1.958c.083-.036,8.218-3.718,9.441-11.214l4.22.686C167.406,79.709,157.484,84.148,157.063,84.331Z" transform="translate(-70.897 -52.44)"/><path class="f" d="M312.722,90.183c-9.05-2.414-12.056-11.722-12.178-12.118l4.077-1.283c.026.075,2.459,7.47,9.2,9.268Z" transform="translate(-180.928 -58.186)"/></g></svg>