<svg xmlns="http://www.w3.org/2000/svg" width="17" height="17" viewBox="0 0 17 17"><defs><style>.a{fill:#68879d;}</style></defs><path class="a" d="M15.008,1.328h-.8V0H12.883V1.328H4.117V0H2.789V1.328h-.8A1.994,1.994,0,0,0,0,3.32V15.008A1.994,1.994,0,0,0,1.992,17H15.008A1.994,1.994,0,0,0,17,15.008V3.32A1.994,1.994,0,0,0,15.008,1.328Zm.664,13.68a.665.665,0,0,1-.664.664H1.992a.665.665,0,0,1-.664-.664V6.242H15.672Zm0-10.094H1.328V3.32a.665.665,0,0,1,.664-.664h.8V3.984H4.117V2.656h8.766V3.984h1.328V2.656h.8a.665.665,0,0,1,.664.664Z"/><g transform="translate(8.435 7.23)"><g transform="translate(0 0)"><rect class="a" height="1" transform="translate(-0.435 -0.23)"/></g></g><g transform="translate(5.41 7.64)"><g transform="translate(0 0)"><rect class="a" width="2" height="2" transform="translate(-0.41 0.36)"/></g></g><g transform="translate(8.435 9.64)"><g transform="translate(0 0)"><rect class="a" height="2" transform="translate(-0.435 0.36)"/></g></g><g transform="translate(9.64 7.64)"><g transform="translate(0 0)"><rect class="a" width="2" height="2" transform="translate(0.36 0.36)"/></g></g><g transform="translate(8.435 13.255)"><g transform="translate(0 0)"><rect class="a" height="1" transform="translate(-0.435 -0.255)"/></g></g><g transform="translate(5.41 11.641)"><g transform="translate(0 0)"><rect class="a" width="2" height="2" transform="translate(-0.41 0.36)"/></g></g><g transform="translate(9.64 11.641)"><g transform="translate(0 0)"><rect class="a" width="2" height="2" transform="translate(0.36 0.36)"/></g></g></svg>