<svg xmlns="http://www.w3.org/2000/svg" width="27.623" height="19.422" viewBox="0 0 27.623 19.422"><defs><style>.a{fill:#fff;}</style></defs><g transform="translate(0 0)"><path class="a" d="M27.244,80.035a1.079,1.079,0,0,0-1.173-.149l-5.9,2.875-5.54-6.388a1.079,1.079,0,0,0-1.63,0L7.456,82.76l-5.9-2.875a1.079,1.079,0,0,0-1.5,1.284l4.1,13.488a1.079,1.079,0,0,0,1.032.765H22.443a1.079,1.079,0,0,0,1.032-.765l4.1-13.488A1.079,1.079,0,0,0,27.244,80.035Zm-5.6,13.23H5.979L2.831,82.909l4.425,2.154A1.079,1.079,0,0,0,8.543,84.8l5.268-6.074L19.079,84.8a1.079,1.079,0,0,0,1.287.263l4.425-2.154Z" transform="translate(0 -76)"/></g></svg>