<svg xmlns="http://www.w3.org/2000/svg" width="15.838" height="15.542" viewBox="0 0 15.838 15.542"><defs><style>.a{fill:#32aceb;}</style></defs><g transform="translate(-5.6 -6.9)"><g transform="translate(5.6 6.9)"><path class="a" d="M20.96,114.3H6.251a.554.554,0,0,0-.551.551.563.563,0,0,0,.551.551H20.973a.554.554,0,0,0,.551-.551A.565.565,0,0,0,20.96,114.3Z" transform="translate(-5.687 -99.86)"/><path class="a" d="M5.613,16.459,5.6,19.081a.569.569,0,0,0,.161.4.538.538,0,0,0,.39.161l2.608-.013a.538.538,0,0,0,.39-.161l9.008-9.008a.568.568,0,0,0,0-.793L15.576,7.061a.568.568,0,0,0-.793,0l-1.8,1.815L5.775,16.069a.6.6,0,0,0-.161.39Zm9.573-8.215L17,10.06l-1.022,1.022L14.164,9.266ZM6.729,16.7l6.642-6.642,1.815,1.815L8.544,18.5l-1.828.013L6.729,16.7Z" transform="translate(-5.6 -6.9)"/></g></g></svg>