<svg xmlns="http://www.w3.org/2000/svg" width="33" height="33" viewBox="0 0 33 33"><defs><style>.a,.b{fill:#16476a;}.a{opacity:0.098;}</style></defs><g transform="translate(-30 -115)"><circle class="a" cx="16.5" cy="16.5" r="16.5" transform="translate(30 115)"/><g transform="translate(37.124 124.803)"><g transform="translate(0 0)"><path class="b" d="M17.751,78.629a.7.7,0,0,0-.764-.1L13.14,80.4,9.53,76.242a.7.7,0,0,0-1.062,0L4.858,80.4,1.011,78.532a.7.7,0,0,0-.98.837L2.7,88.156a.7.7,0,0,0,.673.5H14.623a.7.7,0,0,0,.673-.5l2.672-8.788A.7.7,0,0,0,17.751,78.629ZM14.1,87.249H3.9L1.844,80.5l2.883,1.4a.7.7,0,0,0,.839-.171L9,77.776l3.432,3.957a.7.7,0,0,0,.839.171l2.883-1.4Z" transform="translate(0 -76)"/></g></g></g></svg>