<svg xmlns="http://www.w3.org/2000/svg" width="19.417" height="19.417" viewBox="0 0 19.417 19.417"><defs><style>.a{fill:#ff8f2b;}</style></defs><path class="a" d="M9.708,0a9.708,9.708,0,1,0,9.709,9.708A9.709,9.709,0,0,0,9.708,0Zm2.021,15.046q-.75.3-1.2.45a3.155,3.155,0,0,1-1.037.155,2.067,2.067,0,0,1-1.411-.443,1.43,1.43,0,0,1-.5-1.124,4.081,4.081,0,0,1,.037-.542c.025-.184.066-.391.121-.624l.625-2.209c.055-.212.1-.413.141-.6a2.664,2.664,0,0,0,.056-.52A.8.8,0,0,0,8.388,9a.99.99,0,0,0-.668-.165,1.754,1.754,0,0,0-.5.074c-.168.052-.315.1-.435.145l.165-.681q.614-.25,1.175-.428a3.472,3.472,0,0,1,1.06-.179,2.029,2.029,0,0,1,1.391.436,1.447,1.447,0,0,1,.488,1.131q0,.144-.034.507a3.393,3.393,0,0,1-.125.667l-.622,2.2c-.051.177-.1.379-.137.6a3.2,3.2,0,0,0-.06.514.739.739,0,0,0,.2.6,1.1,1.1,0,0,0,.68.159,1.972,1.972,0,0,0,.514-.08,2.925,2.925,0,0,0,.416-.14Zm-.11-8.94a1.485,1.485,0,0,1-1.048.4,1.5,1.5,0,0,1-1.052-.4,1.291,1.291,0,0,1-.438-.981,1.3,1.3,0,0,1,.438-.983,1.49,1.49,0,0,1,1.052-.408,1.473,1.473,0,0,1,1.048.408,1.324,1.324,0,0,1,0,1.963Z"/></svg>