<svg xmlns="http://www.w3.org/2000/svg" width="28.5" height="28.5" viewBox="0 0 28.5 28.5"><defs><style>.a{fill:#ff8f2b;}</style></defs><g transform="translate(0 -0.002)"><g transform="translate(9.161 17.305)"><path class="a" d="M162.76,290.132a1.018,1.018,0,0,0-1.018,1.018,3.054,3.054,0,0,1-6.107,0,1.018,1.018,0,0,0-2.036,0,5.089,5.089,0,1,0,10.179,0A1.018,1.018,0,0,0,162.76,290.132Z" transform="translate(-153.599 -290.132)"/></g><g transform="translate(9.173 0.002)"><g transform="translate(0 0)"><path class="a" d="M163.677,4.371,159.606.3a1.018,1.018,0,0,0-1.439,0L154.1,4.371a1.018,1.018,0,0,0,1.439,1.439l2.334-2.334V17.305a1.018,1.018,0,1,0,2.036,0V3.477l2.334,2.334a1.018,1.018,0,0,0,1.439-1.439Z" transform="translate(-153.809 -0.002)"/></g></g><g transform="translate(0 8.144)"><path class="a" d="M27.482,136.531H18.322a1.018,1.018,0,0,0,0,2.036h3.145a6.115,6.115,0,0,0,5,5v6.29a6.115,6.115,0,0,0-5,5H7.033a6.115,6.115,0,0,0-5-5v-6.29a6.115,6.115,0,0,0,5-5h3.145a1.018,1.018,0,0,0,0-2.036H1.018A1.018,1.018,0,0,0,0,137.549V155.87a1.018,1.018,0,0,0,1.018,1.018H27.482A1.018,1.018,0,0,0,28.5,155.87V137.549A1.018,1.018,0,0,0,27.482,136.531ZM2.036,138.567H4.945a4.072,4.072,0,0,1-2.909,2.909v-2.909Zm0,16.286v-2.909a4.072,4.072,0,0,1,2.909,2.909Zm24.429,0H23.555a4.072,4.072,0,0,1,2.909-2.909Zm0-13.377a4.072,4.072,0,0,1-2.909-2.909h2.909Z" transform="translate(0 -136.531)"/></g></g></svg>