<svg xmlns="http://www.w3.org/2000/svg" width="14.088" height="12.209" viewBox="0 0 14.088 12.209"><defs><style>.a{fill:#fff;}</style></defs><g transform="translate(0 -36.54)"><g transform="translate(0 36.54)"><path class="a" d="M13.537,38.969a1.81,1.81,0,0,0-1.328-.55H10.566l-.374-1a1.363,1.363,0,0,0-.51-.62,1.307,1.307,0,0,0-.759-.261H5.165a1.307,1.307,0,0,0-.759.261,1.363,1.363,0,0,0-.51.62l-.374,1H1.878a1.81,1.81,0,0,0-1.328.55A1.81,1.81,0,0,0,0,40.3v6.574A1.809,1.809,0,0,0,.55,48.2a1.81,1.81,0,0,0,1.328.55H12.209a1.879,1.879,0,0,0,1.878-1.878V40.3A1.81,1.81,0,0,0,13.537,38.969ZM9.366,45.906a3.166,3.166,0,0,1-2.322.965,3.166,3.166,0,0,1-2.322-.965,3.277,3.277,0,0,1,0-4.644A3.165,3.165,0,0,1,7.044,40.3a3.166,3.166,0,0,1,2.322.965,3.277,3.277,0,0,1,0,4.644Z" transform="translate(0 -36.54)"/><path class="a" d="M193.969,228.4a2.117,2.117,0,1,0,1.493.62A2.035,2.035,0,0,0,193.969,228.4Z" transform="translate(-186.925 -223.472)"/></g></g></svg>