<svg xmlns="http://www.w3.org/2000/svg" width="33" height="33" viewBox="0 0 33 33"><defs><style>.a,.b{fill:#32aceb;}.a{opacity:0.098;}</style></defs><g transform="translate(-30 -361)"><circle class="a" cx="16.5" cy="16.5" r="16.5" transform="translate(30 361)"/><g transform="translate(4.645 367.63)"><path class="b" d="M45.586,18.835A7.551,7.551,0,0,0,49.7,13.708h.742a2.04,2.04,0,0,0,2.038-2.038V10.633a2.032,2.032,0,0,0-.667-1.506V6.706a2.04,2.04,0,0,0-2.038-2.038h-.451A7.524,7.524,0,0,0,38.791.9a.556.556,0,0,0,.529.978,6.412,6.412,0,0,1,9.452,5.643v4.52a6.409,6.409,0,1,1-12.819,0V7.521a6.412,6.412,0,0,1,1.51-4.132.556.556,0,0,0-.849-.717,7.507,7.507,0,0,0-1.209,2h-.452a2.04,2.04,0,0,0-2.038,2.038V9.126a2.033,2.033,0,0,0-.667,1.506V11.67a2.04,2.04,0,0,0,2.038,2.038h.742a7.55,7.55,0,0,0,4.111,5.127A8.278,8.278,0,0,0,45.586,18.835Zm5.78-7.165a.927.927,0,0,1-.926.926h-.555V9.707h.555a.927.927,0,0,1,.926.926ZM49.772,5.78a.927.927,0,0,1,.926.926V8.612a2.039,2.039,0,0,0-.259-.017h-.555V7.521a7.514,7.514,0,0,0-.2-1.741Zm-15.746.926a.927.927,0,0,1,.926-.926h.1a7.5,7.5,0,0,0-.206,1.741V8.6h-.556a2.039,2.039,0,0,0-.259.017Zm.815,5.891h-.556a.927.927,0,0,1-.926-.926V10.633a.927.927,0,0,1,.926-.926h.556Z"/><path class="b" d="M143.209,101.11a2.338,2.338,0,0,0,2.322-2.1,1.083,1.083,0,0,1,.679-.311,1.1,1.1,0,0,1,.679.31,2.336,2.336,0,1,0,.2-1.2,1.878,1.878,0,0,0-1.756,0,2.334,2.334,0,1,0-2.123,3.3Zm6-3.557a1.223,1.223,0,1,1-1.222,1.223A1.224,1.224,0,0,1,149.211,97.553Zm-6,0a1.223,1.223,0,1,1-1.223,1.223A1.224,1.224,0,0,1,143.209,97.553Zm0,0" transform="translate(-103.848 -89.365)"/></g></g></svg>