<svg xmlns="http://www.w3.org/2000/svg" width="37.282" height="30" viewBox="0 0 37.282 30"><defs><style>.a{fill:#2184d8;}</style></defs><g transform="translate(-3 -18)"><path class="a" d="M36.2,38.265l-7.96,4.593a2.709,2.709,0,0,0-1.593-1.184l-9.065-2.429a6.1,6.1,0,0,0-4.568.563L9.818,41.583V40.015a.682.682,0,0,0-.682-.682H3.682A.682.682,0,0,0,3,40.015V53.651a.682.682,0,0,0,.682.682H9.136a.682.682,0,0,0,.682-.682V51.778a6.084,6.084,0,0,0,3.623,1.191h6.52a6.147,6.147,0,0,0,3.047-.81l15.92-9.169a2.729,2.729,0,0,0-2.73-4.725ZM8.455,52.969H4.364V40.7H8.455ZM38.244,41.81,22.329,50.977a4.784,4.784,0,0,1-2.369.629h-6.52a4.739,4.739,0,0,1-3.374-1.4l-.248-.248V43.141L13.675,41a4.743,4.743,0,0,1,3.553-.438l9.065,2.429a1.364,1.364,0,1,1-.706,2.634l-5.988-1.6a.682.682,0,0,0-.353,1.317s6.46,1.7,6.7,1.7A2.682,2.682,0,0,0,28.651,44.2l8.226-4.749a1.364,1.364,0,0,1,1.855.493,1.385,1.385,0,0,1,.185.689A1.353,1.353,0,0,1,38.244,41.81Z" transform="translate(0 -6.333)"/><path class="a" d="M35.182,34.364A8.182,8.182,0,1,0,27,26.182,8.182,8.182,0,0,0,35.182,34.364Zm0-15a6.818,6.818,0,1,1-6.818,6.818,6.818,6.818,0,0,1,6.818-6.818Z" transform="translate(-7.636)"/><path class="a" d="M37.727,30.545a1.364,1.364,0,0,1-1.364-1.364.682.682,0,1,0-1.364,0,2.727,2.727,0,0,0,2.045,2.63v.779a.682.682,0,0,0,1.364,0v-.779a2.722,2.722,0,0,0-.682-5.358,1.364,1.364,0,1,1,1.364-1.364.682.682,0,1,0,1.364,0,2.727,2.727,0,0,0-2.045-2.63v-.779a.682.682,0,1,0-1.364,0v.779a2.722,2.722,0,0,0,.682,5.358,1.364,1.364,0,1,1,0,2.727Z" transform="translate(-10.182 -0.955)"/></g></svg>