<svg xmlns="http://www.w3.org/2000/svg" width="32" height="32" viewBox="0 0 32 32"><defs><style>.a{fill:#16476a;}</style></defs><path class="a" d="M16,0A16,16,0,1,0,32,16,16.018,16.018,0,0,0,16,0Zm0,30.169A14.169,14.169,0,1,1,30.169,16,14.185,14.185,0,0,1,16,30.169Z"/><path class="a" d="M120.215,71.952h-2.17a3.224,3.224,0,0,0-3.221,3.221v2.441H112.8a.915.915,0,1,0,0,1.831h2.021v8.475a.915.915,0,0,0,1.831,0V79.444h3.127a.915.915,0,1,0,0-1.831h-3.127V75.173a1.392,1.392,0,0,1,1.39-1.39h2.17a.915.915,0,0,0,0-1.831Z" transform="translate(-100.509 -64.635)"/></svg>