<svg xmlns="http://www.w3.org/2000/svg" xmlns:xlink="http://www.w3.org/1999/xlink" width="1280" height="917" viewBox="0 0 1280 917"><defs><style>.a{fill:url(#a);}.b{fill:url(#b);}.c{clip-path:url(#c);}.d{opacity:0.192;}.e{fill:url(#d);}.f{fill:url(#e);}.g{fill:url(#h);}.h{opacity:0.138;}.i{opacity:0.164;}</style><linearGradient id="a" x1="0.5" x2="0.5" y2="1" gradientUnits="objectBoundingBox"><stop offset="0" stop-color="#4ba3fc"/><stop offset="1" stop-color="#036ce6"/></linearGradient><linearGradient id="b" x1="0.029" y1="0.987" x2="0.814" y2="0.186" xlink:href="#a"/><clipPath id="c"><rect class="a" width="1280" height="917" transform="translate(0.5 100.094)"/></clipPath><linearGradient id="d" x1="0.804" y1="0.552" x2="0.027" y2="0.547" gradientUnits="objectBoundingBox"><stop offset="0" stop-color="#4ba3fc" stop-opacity="0.525"/><stop offset="1" stop-color="#38d9ff"/></linearGradient><linearGradient id="e" x1="0.5" y1="0" x2="0.5" y2="1" xlink:href="#d"/><linearGradient id="h" x1="0.95" y1="0.352" x2="-0.024" y2="0.361" xlink:href="#d"/></defs><g transform="translate(0 -3722)"><rect class="b" width="1280" height="917" transform="translate(0 3722)"/><g class="c" transform="translate(-0.5 3621.906)"><g transform="translate(-64.45 24.424)"><g class="d" transform="translate(0 0)"><path class="e" d="M62.014,0a63.614,63.614,0,0,1,62.953,62.92l2.443,324.367A61.343,61.343,0,0,1,65.4,449.268a63.614,63.614,0,0,1-62.953-62.92L0,61.981A61.343,61.343,0,0,1,62.014,0Z" transform="matrix(0.695, 0.719, -0.719, 0.695, 323.178, 0)"/><path class="f" d="M62.014,0a63.614,63.614,0,0,1,62.953,62.92l2.443,324.367A61.343,61.343,0,0,1,65.4,449.268a63.614,63.614,0,0,1-62.953-62.92L0,61.981A61.343,61.343,0,0,1,62.014,0Z" transform="matrix(0.695, 0.719, -0.719, 0.695, 632.231, 304.351)"/><path class="f" d="M62.014,0a63.614,63.614,0,0,1,62.953,62.92l1.6,212.516a61.343,61.343,0,0,1-62.012,61.98A63.614,63.614,0,0,1,1.6,274.5L0,61.981A61.343,61.343,0,0,1,62.014,0Z" transform="matrix(0.695, 0.719, -0.719, 0.695, 593.071, 140.301)"/><path class="f" d="M62.014,0a63.614,63.614,0,0,1,62.953,62.92l.814,108.122a61.343,61.343,0,0,1-62.012,61.98A63.614,63.614,0,0,1,.816,170.1L0,61.981A61.343,61.343,0,0,1,62.014,0Z" transform="matrix(0.695, 0.719, -0.719, 0.695, 331.61, 388.105)"/><path class="g" d="M62.014,0a63.614,63.614,0,0,1,62.953,62.92l3.818,507.056a61.343,61.343,0,0,1-62.012,61.98A63.614,63.614,0,0,1,3.82,569.037L0,61.981A61.343,61.343,0,0,1,62.014,0Z" transform="matrix(0.695, 0.719, -0.719, 0.695, 479.546, 48.703)"/></g><g class="h" transform="translate(209.882 690.021)"><path class="e" d="M62.014,0a63.614,63.614,0,0,1,62.953,62.92l2.443,324.367A61.343,61.343,0,0,1,65.4,449.268a63.614,63.614,0,0,1-62.953-62.92L0,61.981A61.343,61.343,0,0,1,62.014,0Z" transform="matrix(0.695, 0.719, -0.719, 0.695, 323.178, 0)"/><path class="f" d="M62.014,0a63.614,63.614,0,0,1,62.953,62.92l2.443,324.367A61.343,61.343,0,0,1,65.4,449.268a63.614,63.614,0,0,1-62.953-62.92L0,61.981A61.343,61.343,0,0,1,62.014,0Z" transform="matrix(0.695, 0.719, -0.719, 0.695, 632.231, 304.351)"/><path class="f" d="M62.014,0a63.614,63.614,0,0,1,62.953,62.92l1.6,212.516a61.343,61.343,0,0,1-62.012,61.98A63.614,63.614,0,0,1,1.6,274.5L0,61.981A61.343,61.343,0,0,1,62.014,0Z" transform="matrix(0.695, 0.719, -0.719, 0.695, 593.071, 140.301)"/><path class="f" d="M62.014,0a63.614,63.614,0,0,1,62.953,62.92l.814,108.122a61.343,61.343,0,0,1-62.012,61.98A63.614,63.614,0,0,1,.816,170.1L0,61.981A61.343,61.343,0,0,1,62.014,0Z" transform="matrix(0.695, 0.719, -0.719, 0.695, 331.61, 388.105)"/><path class="g" d="M62.014,0a63.614,63.614,0,0,1,62.953,62.92l3.818,507.056a61.343,61.343,0,0,1-62.012,61.98A63.614,63.614,0,0,1,3.82,569.037L0,61.981A61.343,61.343,0,0,1,62.014,0Z" transform="matrix(0.695, 0.719, -0.719, 0.695, 479.546, 48.703)"/></g><g class="i" transform="translate(755.882 24.021)"><path class="e" d="M62.014,0a63.614,63.614,0,0,1,62.953,62.92l2.443,324.367A61.343,61.343,0,0,1,65.4,449.268a63.614,63.614,0,0,1-62.953-62.92L0,61.981A61.343,61.343,0,0,1,62.014,0Z" transform="matrix(0.695, 0.719, -0.719, 0.695, 323.178, 0)"/><path class="f" d="M62.014,0a63.614,63.614,0,0,1,62.953,62.92l2.443,324.367A61.343,61.343,0,0,1,65.4,449.268a63.614,63.614,0,0,1-62.953-62.92L0,61.981A61.343,61.343,0,0,1,62.014,0Z" transform="matrix(0.695, 0.719, -0.719, 0.695, 632.231, 304.351)"/><path class="f" d="M62.014,0a63.614,63.614,0,0,1,62.953,62.92l1.6,212.516a61.343,61.343,0,0,1-62.012,61.98A63.614,63.614,0,0,1,1.6,274.5L0,61.981A61.343,61.343,0,0,1,62.014,0Z" transform="matrix(0.695, 0.719, -0.719, 0.695, 593.071, 140.301)"/><path class="f" d="M62.014,0a63.614,63.614,0,0,1,62.953,62.92l.814,108.122a61.343,61.343,0,0,1-62.012,61.98A63.614,63.614,0,0,1,.816,170.1L0,61.981A61.343,61.343,0,0,1,62.014,0Z" transform="matrix(0.695, 0.719, -0.719, 0.695, 331.61, 388.105)"/><path class="g" d="M62.014,0a63.614,63.614,0,0,1,62.953,62.92l3.818,507.056a61.343,61.343,0,0,1-62.012,61.98A63.614,63.614,0,0,1,3.82,569.037L0,61.981A61.343,61.343,0,0,1,62.014,0Z" transform="matrix(0.695, 0.719, -0.719, 0.695, 479.546, 48.703)"/></g></g></g></g></svg>