<svg xmlns="http://www.w3.org/2000/svg" width="199" height="337.301" viewBox="0 0 199 337.301">
  <g id="Group_448" data-name="Group 448" transform="translate(-229 -403.654)">
    <g id="Group_439" data-name="Group 439" transform="translate(55.51 278.125)">
      <g id="Group_409" data-name="Group 409" transform="translate(173.49 259.313)">
        <g id="Group_401" data-name="Group 401" transform="translate(90.541 1.48)">
          <g id="Group_397" data-name="Group 397">
            <path id="Path_330" data-name="Path 330" d="M345.968,288.266c-14.4-13.281-47.268-41.4-82.888-56.886,0,0-13.266,11.092-17.791,26.615a23.754,23.754,0,0,0,12.987,28.229,259.941,259.941,0,0,0,40.454,14.647q2.912.769,5.878,1.456a62.272,62.272,0,0,1,10.7,3.763c.5.239,2.434.934,2.064,1.818-3.841,9.1-30.67,59.9-33.168,64.63l-.069-.045a23,23,0,0,0-7.225,6.517,2.829,2.829,0,0,0,.4,3.682l27.44,25.551a1.417,1.417,0,0,0,1.169.381,2.031,2.031,0,0,0,1.951-1.815,1.458,1.458,0,0,0-.642-1.338c-7.294-5.22-11.356-16.578-10.775-19.348,5.564-7.676,37.177-51.662,52.459-80.864A14.173,14.173,0,0,0,345.968,288.266Z" transform="translate(-244.343 -231.38)" fill="#ff7145"/>
            <g id="Group_395" data-name="Group 395" transform="translate(29.856 138.273)">
              <path id="Path_331" data-name="Path 331" d="M301.8,379.406a1.288,1.288,0,0,1-1.812.124l-31.037-26.323a3.5,3.5,0,0,1-1.135-3.542,3.61,3.61,0,0,1,.469-1.087,3.755,3.755,0,0,1,.887-.909l10.065-8.083,13.282,14.834-1.638,2.253s-2.5,4.885,6.149,11.756c5.192,4.142,5.671,7.7,5.221,9.877a4.624,4.624,0,0,1-.151.59A1.194,1.194,0,0,1,301.8,379.406Z" transform="translate(-267.707 -339.586)" fill="#ffe6de"/>
              <g id="Group_394" data-name="Group 394" transform="translate(0.108 8.991)">
                <path id="Path_332" data-name="Path 332" d="M301.775,377.451l-33.984-29.741a3.61,3.61,0,0,1,.469-1.087l33.966,29.728a4.624,4.624,0,0,1-.151.59A1.194,1.194,0,0,1,301.775,377.451Z" transform="translate(-267.791 -346.622)" fill="#450d20"/>
              </g>
            </g>
          </g>
          <g id="Group_400" data-name="Group 400" transform="translate(6.53 8.756)">
            <path id="Path_334" data-name="Path 334" d="M249.453,281.191l57.007,28.362-17.973,45.494,20.22,15.725,39.844-67.152a20.209,20.209,0,0,0-6.782-27.519l-61.478-37.87Z" transform="translate(-249.453 -238.232)" fill="#582e2e"/>
            <g id="Group_398" data-name="Group 398" transform="translate(9.862 31.142)">
              <path id="Path_335" data-name="Path 335" d="M257.171,278.653,263.21,262.6l10.074,24.741Z" transform="translate(-257.171 -262.602)" fill="#450d20"/>
            </g>
          </g>
        </g>
        <g id="Group_408" data-name="Group 408">
          <g id="Group_405" data-name="Group 405">
            <path id="Path_337" data-name="Path 337" d="M266.784,230.222l-15.577,4.728L198.255,422.236c-2.193,1.349-13.033,6.8-21.717,5.437a1.506,1.506,0,0,0-1.444.523,2.1,2.1,0,0,0,.124,2.751,1.47,1.47,0,0,0,1.137.567l38.757,1.052a2.923,2.923,0,0,0,2.965-2.423c.291-1.68-1.843-6.384-2.737-9.966,1.77-4.622,49.266-121.477,60.847-146.732C287.724,248.287,266.784,230.222,266.784,230.222Z" transform="translate(-173.17 -230.222)" fill="#ff7145"/>
            <g id="Group_403" data-name="Group 403" transform="translate(0 186.116)">
              <path id="Path_338" data-name="Path 338" d="M173.491,389.695a1.289,1.289,0,0,0,1.232,1.337l40.634,2.232a3.5,3.5,0,0,0,3.259-1.792,3.578,3.578,0,0,0,.408-1.112,3.762,3.762,0,0,0-.018-1.27L217.2,375.867l-19.784,2.07-.359,2.763s-1.541,5.269-12.549,4.306c-6.618-.564-9.412,1.688-10.582,3.581a4.405,4.405,0,0,0-.3.532A1.174,1.174,0,0,0,173.491,389.695Z" transform="translate(-173.49 -375.867)" fill="#ffe6de"/>
              <g id="Group_402" data-name="Group 402" transform="translate(0 12.72)">
                <path id="Path_339" data-name="Path 339" d="M173.491,386.929l45.124,1.778a3.578,3.578,0,0,0,.408-1.112l-45.1-1.774a4.405,4.405,0,0,0-.3.532A1.174,1.174,0,0,0,173.491,386.929Z" transform="translate(-173.49 -385.821)" fill="#450d20"/>
              </g>
            </g>
          </g>
          <g id="Group_407" data-name="Group 407" transform="translate(26.771 10.235)">
            <path id="Path_341" data-name="Path 341" d="M242.165,238.865l53.413-.633L221.648,404.566l-27.208-5.991Z" transform="translate(-194.44 -238.232)" fill="#5d2d2d"/>
          </g>
        </g>
      </g>
      <g id="Group_416" data-name="Group 416" transform="translate(268.537 139.641)">
        <path id="Path_342" data-name="Path 342" d="M286.9,150.528c-1.89-7.551-14.731-12.015-24.938-5.178-4.742,3.177-6.49,9.8-7.012,15.98a3.281,3.281,0,0,0-.525-.3,3.858,3.858,0,0,0-4.654,2.16,5.113,5.113,0,0,0,.123,4.3,6.431,6.431,0,0,0,2.6,2.788,8.257,8.257,0,0,0,2.464.562,18.722,18.722,0,0,0,4.811,11.2,16.935,16.935,0,0,0,13.829,5.418c4.085-.323,10.3-2.131,12.285-6.08a10.527,10.527,0,0,0,.855-3.325C287.936,169.365,289.058,159.16,286.9,150.528Z" transform="translate(-247.458 -135.072)" fill="#ff7145"/>
        <path id="Path_351" data-name="Path 351" d="M266.49,151.72A3.677,3.677,0,0,0,264,154.87c-.335,3.547-1.352,11.3-3.931,12.965-3.37,2.176-3.358-6.885-8.173-4.988a7.35,7.35,0,0,0-1.854,2.18s-4.7-10.6-.285-15.938,7.925-2.177,7.925-2.177,11.676-13.409,27.532-9.688c0,0,4.549,1.447.9,5.532,0,0,8.146,1.035,4.214,9.616,0,0,.666,3.881-1.983,6.2,0,0-.1-3.068-1.325-4C285.827,153.66,272.925,149.574,266.49,151.72Z" transform="translate(-247.869 -136.572)" fill="#450d20"/>
      </g>
      <g id="Group_438" data-name="Group 438" transform="translate(196.614 125.529)">
        <g id="Group_422" data-name="Group 422" transform="translate(90.559)">
          <g id="Group_418" data-name="Group 418" transform="translate(2.108)">
            <path id="Path_352" data-name="Path 352" d="M327.7,189.361c-1.217-3.633-2.583-7.348-4.121-11.091C318.4,165.677,311.285,152.8,301.421,141.7a20.46,20.46,0,0,0,5.45-14.526,1.677,1.677,0,0,0-2.891-1.127,26.624,26.624,0,0,0-6.308,10.56s.8-6.683-.442-8.213-7.763,11.438-2.553,18.141c0,0,.074-.028.2-.082,1.6,5.582,6.543,22.9,11.488,40.967-12.93,6.8-25.117,13.034-31.7,15.943a33.412,33.412,0,0,0-7.192,4.159,8.7,8.7,0,0,0,3.542,15.4c2.86.571,6.576.332,11.341-1.6a262.267,262.267,0,0,0,29.427-13.718c3.965-2.193,8.063-4.63,12.187-7.327A9.447,9.447,0,0,0,327.7,189.361Z" transform="translate(-264.102 -125.529)" fill="#d85025"/>
            <g id="Group_417" data-name="Group 417" transform="translate(37.076 33.959)">
              <path id="Path_353" data-name="Path 353" d="M293.116,161.333l13.115-9.229,1.937,3.39Z" transform="translate(-293.116 -152.104)" fill="#450d20"/>
            </g>
          </g>
          <g id="Group_421" data-name="Group 421" transform="translate(0 36.694)">
            <path id="Path_354" data-name="Path 354" d="M327.582,194.289l-50.447,22.87A10.391,10.391,0,0,1,262.476,207l.1-1.517a10.418,10.418,0,0,1,5.55-8.5l35.282-18.513.394-.2.572-.3-.124-.472.461.089-.809-1.337-4.055-14.816,18.534-7.189,13.457,28.442A8.663,8.663,0,0,1,327.582,194.289Z" transform="translate(-262.453 -154.244)" fill="#0f76ea"/>
            <g id="Group_419" data-name="Group 419" transform="translate(40.956 23.252)">
              <path id="Path_355" data-name="Path 355" d="M299.109,173.2l-.225,1.1-2.3-.472-1.494-.292-.584-.124.393-.2.573-.3-.124-.472.461.09Z" transform="translate(-294.503 -172.44)" fill="#0f76ea"/>
            </g>
            <g id="Group_420" data-name="Group 420" transform="translate(41.35 23.252)">
              <path id="Path_356" data-name="Path 356" d="M297.338,175.248l-.966.573-1.37-2.28-.191-.326.573-.3-.124-.472.461.09.775,1.3Z" transform="translate(-294.811 -172.44)" fill="#0f76ea"/>
            </g>
          </g>
        </g>
        <path id="Path_357" data-name="Path 357" d="M269.125,181.456l7.035,1.628-.622,4.743,9.845,8.311a5.649,5.649,0,0,1,1.96,5.022l-6.731,53.48L260.953,251.1Z" transform="translate(-172.311 -109.989)" fill="#0f76ea"/>
        <g id="Group_427" data-name="Group 427" transform="translate(53.259 49.439)">
          <path id="Path_358" data-name="Path 358" d="M287.415,201.359c-4.243-3.339-7.274-4.75-9.174-7.752-.135-.928-.436-3.2-.558-5.734a26.353,26.353,0,0,1,.364-6.616v-.008a5.738,5.738,0,0,1,.944-2.277l-19.911-14.756c.006.073.006.138.014.212.088,2.033.7,17.972-2.993,25.92a15.746,15.746,0,0,1-6.225.589,11.092,11.092,0,0,0-7.532,1.946c-3.016,2.194-5.933,6.655-5.533,15.727.8,18.142.006,39.511-2.525,50.186l48.78-.259s-.677-16.56,2.294-29.34C288.073,217.545,293.879,206.444,287.415,201.359Z" transform="translate(-232.979 -164.218)" fill="#ff7145"/>
          <path id="Path_359" data-name="Path 359" d="M271.755,186.036c-11.837,0-15.982-14.657-16.133-15.2a13.849,13.849,0,0,0,7.564,7.014,23.012,23.012,0,0,0,8.86,1.582c.024-.005.049,0,.074-.008A26.355,26.355,0,0,0,271.755,186.036Z" transform="translate(-227.051 -162.38)" fill="#450d20" opacity="0.17"/>
          <g id="Group_426" data-name="Group 426" transform="translate(0 26.132)">
            <path id="Path_360" data-name="Path 360" d="M256.388,184.668l8.514,12.978,13.623-9.721s1.121,1.1,3.788,3.232,11.975,5.09,8.329,16.178-7.1,41.562-7.1,41.562H233.264l3.806-47.127S235.516,185.027,256.388,184.668Z" transform="translate(-233.264 -184.668)" fill="#ffb446"/>
          </g>
        </g>
        <g id="Group_437" data-name="Group 437" transform="translate(0 16.036)">
          <g id="Group_429" data-name="Group 429">
            <path id="Path_362" data-name="Path 362" d="M262.291,198.662a33.363,33.363,0,0,0-8.256-.939c-7.2-.035-20.859-.878-35.429-1.945-3.265-22.53-6.1-44.076-6.1-44.076l-.142-.005c.089-8.093-11.423-15.2-11.676-13.312-.261,1.953,3.9,7.243,3.9,7.243a26.658,26.658,0,0,0-10.882-5.734,1.678,1.678,0,0,0-1.881,2.469,20.412,20.412,0,0,0,12.964,9.758c-4.547,14.046-5.911,28.606-5.624,42.146.086,4.046.318,8,.656,11.814a9.446,9.446,0,0,0,7.783,8.518c4.857.824,9.588,1.42,14.1,1.845a262.419,262.419,0,0,0,32.458.815c5.141-.13,8.644-1.4,11.036-3.063A8.7,8.7,0,0,0,262.291,198.662Z" transform="translate(-191.586 -138.078)" fill="#d85025"/>
            <g id="Group_428" data-name="Group 428" transform="translate(8.033 33.403)" opacity="0.145">
              <path id="Path_363" data-name="Path 363" d="M214.014,168.424l-16.142,2.886.8-7.093Z" transform="translate(-197.872 -164.218)" fill="#450d20"/>
            </g>
          </g>
          <g id="Group_436" data-name="Group 436" transform="translate(4.864 37.293)">
            <path id="Path_364" data-name="Path 364" d="M274,186.235l-.2,1.259-.2,1.246L262.621,255.8l-.179,1.112-.8,4.875-21.882-4.4.337-2.471.157-1.112,5.83-42.82s-27.869-1.729-41.472-3.055a7.818,7.818,0,0,1-7.032-7.2l-2.19-29.689,21.062-3.775,2.1,17.434.2,1.707.079.629.7.012h.326l44.481.7.551-5.471.134-1.292.158-1.55Z" transform="translate(-195.392 -167.262)" fill="#0f76ea"/>
            <g id="Group_430" data-name="Group 430" transform="translate(48.866 42.053)" opacity="0.196">
              <path id="Path_365" data-name="Path 365" d="M235.455,201.834l7.863-1.664-9.686,15.054Z" transform="translate(-233.632 -200.17)" fill="#450d20"/>
            </g>
            <g id="Group_434" data-name="Group 434" transform="translate(69.498 13.716)">
              <path id="Path_368" data-name="Path 368" d="M258.686,184.51l-.2,1.247-8.706-6.47.135-1.292Z" transform="translate(-249.778 -177.995)" fill="#450d20"/>
            </g>
            <g id="Group_435" data-name="Group 435" transform="translate(44.707 86.539)">
              <path id="Path_369" data-name="Path 369" d="M252.9,236.982l-.18,1.112-22.342-2,.157-1.112Z" transform="translate(-230.378 -234.983)" fill="#450d20"/>
            </g>
          </g>
        </g>
      </g>
    </g>
    <path id="Path_370" data-name="Path 370" d="M93.654,184.947a1.326,1.326,0,0,0-1.289,1.362l.022.828a1.327,1.327,0,0,0,1.325,1.29h.037a1.326,1.326,0,0,0,1.29-1.362l-.023-.828A1.325,1.325,0,0,0,93.654,184.947Zm0,0" transform="matrix(0.998, 0.07, -0.07, 0.998, 267.794, 253.5)" fill="#091d2c"/>
    <path id="Path_371" data-name="Path 371" d="M180.252,184.947a1.327,1.327,0,0,0-1.29,1.362l.023.828a1.326,1.326,0,0,0,1.325,1.29h.037a1.326,1.326,0,0,0,1.29-1.362l-.023-.828A1.325,1.325,0,0,0,180.252,184.947Zm0,0" transform="matrix(0.998, 0.07, -0.07, 0.998, 193.952, 248.336)" fill="#091d2c"/>
    <path id="Path_372" data-name="Path 372" d="M109.825,217.916a1.6,1.6,0,0,0-.229,1.852,4.8,4.8,0,0,0,8.835,0,1.6,1.6,0,0,0-.229-1.852C117.745,217.486,110.282,217.486,109.825,217.916Z" transform="matrix(0.998, 0.07, -0.07, 0.998, 255.682, 225.656)" fill="#fff"/>
  </g>
</svg>
