<svg xmlns="http://www.w3.org/2000/svg" width="72.145" height="127.577" viewBox="0 0 72.145 127.577"><defs><style>.a{fill:#ff8f2b;}.b{fill:#fff;}.c{fill:#5bacff;}.d{fill:#091d2c;}</style></defs><g transform="translate(-436 -5463.424)"><g transform="translate(436 5463.424)"><path class="a" d="M75.139,366.113H7.5V336.224a16.037,16.037,0,0,1,16.037-16.037H59.1a16.037,16.037,0,0,1,16.037,16.037Zm0,0" transform="translate(-5.631 -240.405)"/><path class="b" d="M59.926,443.82h41.513v16.988H59.926Zm0,0" transform="translate(-44.994 -333.232)"/><path class="b" d="M128.3,293.749a5.467,5.467,0,0,1-5.467-5.466V272.949h10.932v15.334A5.465,5.465,0,0,1,128.3,293.749Zm0,0" transform="translate(-92.223 -204.937)"/><path class="c" d="M22.17,52.26H80.009l1.525-7.441a31.078,31.078,0,1,0-60.889,0Zm0,0" transform="translate(-15.017 -5.631)"/><path class="b" d="M229.419,176.642a7.36,7.36,0,1,1-7.359-7.36A7.359,7.359,0,0,1,229.419,176.642Zm0,0" transform="translate(-161.202 -127.101)"/><path class="b" d="M30.481,176.642a7.36,7.36,0,1,1-7.36-7.36A7.36,7.36,0,0,1,30.481,176.642Zm0,0" transform="translate(-11.834 -127.101)"/><path class="b" d="M74.426,157.063a19.835,19.835,0,0,1-19.683-17.377l-3.662-29.311H97.77l-3.661,29.311A19.836,19.836,0,0,1,74.426,157.063Zm0,0" transform="translate(-38.354 -82.872)"/><path class="c" d="M37.758,98.584a24.062,24.062,0,0,0,19.335-3.91s20.671,14.656,40.784.459a1.753,1.753,0,0,0-.058-2.913L85.324,84.258H37.758Zm0,0" transform="translate(-28.35 -63.263)"/><g transform="translate(0)"><path class="d" d="M59.671,77.913H49.608V74.779A21.682,21.682,0,0,0,54,72.613a1.869,1.869,0,1,0-2.023-3.143A17.961,17.961,0,0,1,24.444,56.582L22.092,37.754A25.451,25.451,0,0,0,34.978,33.66a44.746,44.746,0,0,0,12.369,5.12,38.458,38.458,0,0,0,9.2,1.145,34.815,34.815,0,0,0,5.7-.47L60.1,56.582A17.788,17.788,0,0,1,57.237,64.3a1.868,1.868,0,1,0,3.111,2.07,21.443,21.443,0,0,0,3.3-8.256A9.223,9.223,0,0,0,73.793,43.241l.754-3.678a33.586,33.586,0,0,0,.642-5.093c.543-.343,1.082-.7,1.615-1.073a3.621,3.621,0,0,0-.132-6.015l-2.181-1.391A32.963,32.963,0,0,0,42.273,0,32.771,32.771,0,0,0,24.1,5.452a1.869,1.869,0,0,0,2.066,3.116A29.246,29.246,0,0,1,60.983,10.51a29.5,29.5,0,0,1,8.74,12.441l-5.544-3.533A1.869,1.869,0,1,0,62.17,22.57l12.345,7.868A31.073,31.073,0,0,1,48.366,35.18a40.01,40.01,0,0,1-12.341-5.294,1.869,1.869,0,0,0-2.183.016A22.256,22.256,0,0,1,17.271,33.76a1.869,1.869,0,0,0-.612,3.687c.456.075,1.013.152,1.655.213l.341,2.727a9.289,9.289,0,0,0-1.167-.076,9.181,9.181,0,0,0-3.388.647l-.44-2.147a28.979,28.979,0,0,1,6.728-25.206,1.868,1.868,0,1,0-2.8-2.473A32.686,32.686,0,0,0,10,39.562l.754,3.678A9.227,9.227,0,0,0,20.9,58.118,21.753,21.753,0,0,0,34.937,74.773v3.139H24.106a17.813,17.813,0,0,0-10.1,3.119,1.869,1.869,0,1,0,2.111,3.084,14.088,14.088,0,0,1,7.989-2.465H34.937v1.695a7.335,7.335,0,1,0,14.67,0V81.65H59.67A14.184,14.184,0,0,1,73.838,95.819v29.889a1.869,1.869,0,1,0,3.738,0V95.819A17.925,17.925,0,0,0,59.671,77.913Zm7.387-22.882a5.418,5.418,0,0,1-2.893-.827l1.236-9.9a5.491,5.491,0,1,1,1.657,10.726Zm3.828-16.22-.44,2.148a9.169,9.169,0,0,0-3.388-.647,9.315,9.315,0,0,0-1.168.076l.227-1.812a34.532,34.532,0,0,0,5.127-1.936C71.149,37.367,71.034,38.092,70.886,38.812ZM12,49.541a5.49,5.49,0,0,1,7.147-5.236l1.237,9.9a5.434,5.434,0,0,1-2.894.825A5.5,5.5,0,0,1,12,49.541Zm30.277,37.4a3.6,3.6,0,0,1-3.6-3.6V75.755a21.46,21.46,0,0,0,7.195,0v7.589A3.6,3.6,0,0,1,42.273,86.943Zm0,0" transform="translate(-6.2)"/><path class="d" d="M4.03,350.908a1.869,1.869,0,0,0-2.47.94A17.773,17.773,0,0,0,0,359.167v29.889a1.869,1.869,0,1,0,3.738,0V359.167a14.06,14.06,0,0,1,1.232-5.789A1.869,1.869,0,0,0,4.03,350.908Zm0,0" transform="translate(0 -263.348)"/><path class="d" d="M94.181,184.947a1.869,1.869,0,0,0-1.816,1.919l.031,1.167a1.869,1.869,0,0,0,1.868,1.817h.052a1.869,1.869,0,0,0,1.817-1.918l-.032-1.167A1.867,1.867,0,0,0,94.181,184.947Zm0,0" transform="translate(-69.35 -138.862)"/><path class="d" d="M180.78,184.947a1.869,1.869,0,0,0-1.817,1.919l.032,1.167a1.868,1.868,0,0,0,1.867,1.817h.052a1.869,1.869,0,0,0,1.817-1.918l-.032-1.167A1.866,1.866,0,0,0,180.78,184.947Zm0,0" transform="translate(-134.369 -138.862)"/><path class="d" d="M122.875,218.437a6.222,6.222,0,0,1-10.09,0,1.869,1.869,0,0,0-3.028,2.192,9.96,9.96,0,0,0,16.145,0,1.869,1.869,0,1,0-3.027-2.192Zm0,0" transform="translate(-82.142 -163.428)"/><path class="d" d="M54.295,396.531a1.869,1.869,0,0,0-1.869,1.869v25.034a1.869,1.869,0,1,0,3.738,0V398.4A1.869,1.869,0,0,0,54.295,396.531Zm0,0" transform="translate(-39.363 -297.726)"/><path class="d" d="M220.9,396.531a1.869,1.869,0,0,0-1.869,1.869v25.034a1.869,1.869,0,1,0,3.738,0V398.4A1.869,1.869,0,0,0,220.9,396.531Zm0,0" transform="translate(-164.452 -297.726)"/></g></g></g></svg>