<svg xmlns="http://www.w3.org/2000/svg" xmlns:xlink="http://www.w3.org/1999/xlink" width="99.641" height="129.337" viewBox="0 0 99.641 129.337"><defs><style>.a{fill:#5bacff;}.b{fill:#4698ed;}.c{fill:#e4eaf8;}.d{fill:#fff;}.e{fill:#ff8f2b;}.f{fill:url(#a);}.g{fill:#091d2c;}</style><linearGradient id="a" x1="0.5" x2="0.5" y2="1" gradientUnits="objectBoundingBox"><stop offset="0" stop-color="#ff8539"/><stop offset="1" stop-color="#ff794e"/></linearGradient></defs><g transform="translate(-58.781)"><path class="a" d="M185.9,5.857a23.4,23.4,0,0,0-23.4,23.4v9.258a7.457,7.457,0,0,1,5.96-1.947V35.4a1.594,1.594,0,0,1,1.709-1.589,41.884,41.884,0,0,0,25.212-6.772,1.593,1.593,0,0,1,2.038.248c5.951,6.4,5.915,6.149,5.915,6.984v2.289a7.078,7.078,0,0,1,5.959,1.743V29.253A23.4,23.4,0,0,0,185.9,5.857Z" transform="translate(-77.52 -4.377)"/><path class="b" d="M168.783,29.254A23.4,23.4,0,0,1,189.04,6.074,23.368,23.368,0,0,0,162.5,29.254v9.258a7.456,7.456,0,0,1,5.96-1.947V35.4a1.583,1.583,0,0,1,.32-.955V29.254Z" transform="translate(-77.521 -4.378)"/><g transform="translate(83.175 31.163)"><path class="c" d="M322.892,123.453v12.816c0,.139-.007.276-.011.415a6.749,6.749,0,1,0,.011-13.231Z" transform="translate(-280.56 -123.363)"/><path class="c" d="M163.424,136.372V123.561c-3.949-.527-8.077,2.5-8.077,6.611a6.8,6.8,0,0,0,8.087,6.615C163.431,136.648,163.424,136.51,163.424,136.372Z" transform="translate(-155.347 -123.466)"/></g><path class="d" d="M157.915,274.2l-25.862-10.016-9.776,12.067L112.5,264.183,86.665,274.2S77.1,278.131,77.1,289.036v22.68a2.225,2.225,0,0,0,2.225,2.225h85.95a2.206,2.206,0,0,0,2.206-2.206v-22.7C167.48,278.132,157.915,274.2,157.915,274.2Z" transform="translate(-13.69 -197.448)"/><path class="d" d="M215.054,86.732a1.593,1.593,0,0,0-2.038-.248A41.887,41.887,0,0,1,187.8,93.255a1.594,1.594,0,0,0-1.709,1.589v13.977a17.439,17.439,0,0,0,34.874,0V93.716C220.969,92.881,221,93.128,215.054,86.732Z" transform="translate(-95.153 -64.443)"/><g transform="translate(89.485 66.735)"><path class="e" d="M267.745,282.451l7.311-14.651-9.338-3.617-9.776,12.067,9.531,6.769A1.542,1.542,0,0,0,267.745,282.451Z" transform="translate(-236.84 -264.183)"/><path class="e" d="M187.637,282.451,180.326,267.8l9.338-3.617,9.776,12.067-9.531,6.769A1.542,1.542,0,0,1,187.637,282.451Z" transform="translate(-180.326 -264.183)"/></g><path class="e" d="M235.445,311.962v-.008l-.006,0-.006,0v.008l-6.933,4.923,3.277,4.932H239.1l3.277-4.932Z" transform="translate(-126.847 -233.151)"/><path class="e" d="M221.809,378.828h17.258L234.1,351h-7.323Z" transform="translate(-121.845 -262.335)"/><path class="e" d="M238.907,314.421l-3.463-2.46v-.008l-.006,0-.006,0v.008l-6.933,4.923,3.277,4.932h6.938l-2.691-4.05a1.093,1.093,0,0,1,.278-1.5Z" transform="translate(-126.845 -233.15)"/><path class="e" d="M226.776,351l-4.967,27.827h6.938L233.715,351Z" transform="translate(-121.845 -262.335)"/><g transform="translate(60.682 101.088)"><path class="f" d="M228.615,411.425a1.246,1.246,0,0,0-.691-2.126l-7.368-1.071a1.246,1.246,0,0,1-.938-.682l-3.295-6.676a1.246,1.246,0,0,0-2.235,0l-3.295,6.676a1.246,1.246,0,0,1-.938.682l-7.368,1.071a1.246,1.246,0,0,0-.691,2.126l5.331,5.2a1.246,1.246,0,0,1,.358,1.1l-1.258,7.338a1.246,1.246,0,0,0,1.808,1.314l6.59-3.465a1.247,1.247,0,0,1,1.16,0l6.59,3.465a1.246,1.246,0,0,0,1.808-1.314l-1.258-7.338a1.246,1.246,0,0,1,.358-1.1Z" transform="translate(-167.288 -400.176)"/></g><path class="g" d="M158.265,110.472a3.128,3.128,0,0,0-2.54-2.141l-.032,0v-6.978a1.9,1.9,0,1,0-3.8,0v6.426l-3.193-.464-3.143-6.368a3.172,3.172,0,0,0-.5-.731l-.075-.079-.038-.039c-.026-.026-.052-.051-.078-.075l-.04-.037a3.129,3.129,0,0,0-2.094-.794h0a3.128,3.128,0,0,0-2.8,1.7l-.025.051-.5,1.008V95.337a1.9,1.9,0,1,0-3.8,0v12.141l-5.87.853A3.147,3.147,0,0,0,128,113.7l2.477,2.415h-9.614l1.949-1.9.528-.515h0a3.128,3.128,0,0,0,.8-3.226,3.174,3.174,0,0,0-.417-.839c-.042-.059-.085-.117-.131-.173l-.034-.042a3.17,3.17,0,0,0-.259-.274l-.04-.036a3.14,3.14,0,0,0-1.659-.776l-4.184-.608-3.154-18.631,1.775-2.671.988.7a3.443,3.443,0,0,0,5.074-1.27l6.538-13.1,14.885,5.765c.359.154,8.376,3.72,8.376,13.074v.889a1.9,1.9,0,0,0,3.8,0v-.889c0-12.04-10.3-16.415-10.744-16.6l-.037-.015-24.648-9.546V59.5a19.1,19.1,0,0,0,7.3-12.731,8.747,8.747,0,0,0,5.252-2.1,8.57,8.57,0,0,0,.856-12.132V24.876A25.315,25.315,0,0,0,113.174.035a1.9,1.9,0,1,0-.716,3.733,21.509,21.509,0,0,1,17.418,21.108v5.146a8.991,8.991,0,0,0-2.157-.425v-.337a2.99,2.99,0,0,0-.982-2.382l-.1-.121h0c-.524-.616-1.3-1.442-2.444-2.663-.493-.526-1.068-1.138-1.736-1.854l-.058-.062-.068-.073-1.034-1.109-.055-.058a3.486,3.486,0,0,0-4.284-.568c-.044.026-.088.053-.131.081q-1.174.767-2.4,1.45l-.05.028-.2.111A39.46,39.46,0,0,1,92.8,26.916a3.493,3.493,0,0,0-2.633.922l-.006.006-.035.033-.016.015-.033.032-.008.008-.04.041-.012.013-.033.035-.008.009-.038.042-.011.013-.033.038-.006.007-.039.046-.007.008-.036.044,0,0-.039.05,0,0-.036.049,0,0-.037.052,0,0-.035.052,0,0a3.516,3.516,0,0,0-.518,1.209,9.345,9.345,0,0,0-2.239.518v-5.3A21.509,21.509,0,0,1,104.3,3.768a1.9,1.9,0,1,0-.716-3.733,25.315,25.315,0,0,0-20.5,24.841v7.86a8.1,8.1,0,0,0-2.117,5.442,8.55,8.55,0,0,0,2.975,6.491,8.742,8.742,0,0,0,5.25,2.1A18.953,18.953,0,0,0,96.911,59.8v5.63L72.29,74.979l-.036.014c-.439.18-10.744,4.556-10.744,16.6v16.738l-.032,0a3.147,3.147,0,0,0-1.744,5.368l5.085,4.956-1.2,7a3.147,3.147,0,0,0,4.566,3.318l6.285-3.3,6.285,3.3a3.147,3.147,0,0,0,4.566-3.318l-.984-5.739h14.4l-.984,5.739a3.147,3.147,0,0,0,4.566,3.318l6.285-3.3,6.285,3.3a3.147,3.147,0,0,0,4.566-3.318l-.984-5.739h14.4l-.984,5.739a3.147,3.147,0,0,0,4.566,3.318l6.285-3.3,6.285,3.3a3.147,3.147,0,0,0,4.566-3.318l-1.2-7,5.085-4.956h0A3.126,3.126,0,0,0,158.265,110.472Zm-46.842-9.53a3.127,3.127,0,0,0-2.822-1.755h0a3.128,3.128,0,0,0-2.822,1.754l-1.515,3.071,2.276-13.445h4.111l2.269,13.4ZM98.311,83.779,92.119,71.371l6.09-2.358,7.631,9.419-7.53,5.348,0,0Zm12.926,2.986h-5.285l-1.693-2.548,4.335-3.079,4.335,3.079Zm7.641-2.986h0l-7.538-5.354,7.629-9.417,6.1,2.362Zm11.464-41.994a4.956,4.956,0,0,1-2.624,1.153V33.419a5.026,5.026,0,0,1,2.036.719l.026.016.032.021a4.882,4.882,0,0,1,.669.522l.039.035a4.766,4.766,0,0,1-.179,7.054ZM84.768,38.178a4.435,4.435,0,0,1,1.452-3.22l.057-.05a5.722,5.722,0,0,1,2.767-1.4v9.428a4.949,4.949,0,0,1-2.623-1.151A4.752,4.752,0,0,1,84.768,38.178Zm8.086,6.7c0-.042,0-.084,0-.127l0-.156c0-.071-.005-.142-.005-.213V30.73a43.617,43.617,0,0,0,25.026-6.444q.412-.252.817-.513c.826.887,1.533,1.642,2.139,2.289l.6.635c1.27,1.354,2.167,2.31,2.5,2.723V44.4c0,.061,0,.122,0,.183l-.005.165c0,.046,0,.092,0,.137a15.284,15.284,0,0,1-6.531,12.025c-.031.019-.062.039-.092.06a15.171,15.171,0,0,1-7.637,2.663h-.006l-.278.016h-.015l-.138.006h0l-.129,0h-.026l-.131,0h-.011l-.119,0h-.554A15.367,15.367,0,0,1,92.853,44.874Zm15.776,18.593h.292l.086,0h.048l.075,0,.053,0,.075,0,.047,0,.078,0,.047,0,.079,0,.045,0,.081,0,.043,0,.083,0,.042,0,.084-.005.038,0,.091-.006.032,0,.091-.007.037,0,.091-.008.03,0,.1-.009.025,0,.1-.01.017,0,.114-.012h.008l.117-.013h.008a18.935,18.935,0,0,0,5.675-1.561v4.276l-7.869,9.713-7.882-9.729V61.923A20.581,20.581,0,0,0,108.629,63.468Zm-32.7,58.674a3.15,3.15,0,0,0-2.929,0l-5.416,2.847,1.034-6.031a3.147,3.147,0,0,0-.905-2.786L63.337,111.9l6.056-.88q.112-.016.221-.04l.028-.006.082-.02h0a3.147,3.147,0,0,0,1.544-.93l.019-.021.039-.044a3.143,3.143,0,0,0,.436-.659l2.708-5.487,2.708,5.486h0v0a3.149,3.149,0,0,0,2.368,1.719l6.055.88-4.381,4.271-.033.033-.023.023-.009.009a3.147,3.147,0,0,0-.841,2.722l1.034,6.031Zm10.795-6.028,1.949-1.9.528-.515h0a3.147,3.147,0,0,0-1.745-5.368l-5.87-.853V95.336a1.9,1.9,0,0,0-3.8,0v6.615l-.5-1.009a3.128,3.128,0,0,0-2.815-1.754h-.008a3.13,3.13,0,0,0-2.094.794l-.04.037c-.026.024-.053.05-.078.075l-.038.038c-.025.026-.05.053-.075.079a3.163,3.163,0,0,0-.5.731L68.5,107.31l-.411.06-2.781.4V91.588a14.377,14.377,0,0,1,8.376-13.074l14.872-5.765,6.538,13.1a3.442,3.442,0,0,0,5.074,1.27l.988-.7,1.775,2.671-3.154,18.633-4.17.606a3.147,3.147,0,0,0-1.744,5.368l2.477,2.415Zm23.337,6.028a3.15,3.15,0,0,0-2.929,0l-5.416,2.847,1.034-6.031a3.147,3.147,0,0,0-.841-2.722l-.005-.005-.026-.026-.033-.033L97.468,111.9l6.056-.88a3.147,3.147,0,0,0,2.369-1.722l2.708-5.487,2.708,5.486c.027.055.056.109.086.163l.018.031c.018.031.037.062.057.093l.013.02a3.147,3.147,0,0,0,2.2,1.416l6.055.88-4.381,4.271-.032.032-.03.03,0,0a3.147,3.147,0,0,0-.842,2.722l1.034,6.031Zm39.419-5.969a3.147,3.147,0,0,0-.905,2.786l1.034,6.031-5.416-2.847a3.148,3.148,0,0,0-2.928,0l-5.416,2.847,1.034-6.031a3.148,3.148,0,0,0-.779-2.655l-.005-.006-.024-.026-.017-.018-.013-.013-.028-.029,0,0-.034-.034L131.6,111.9l6.056-.88a3.148,3.148,0,0,0,2.369-1.722l2.708-5.487,2.708,5.486h0v0a3.146,3.146,0,0,0,2.368,1.719l6.055.88Z" transform="translate(0 0)"/><path class="g" d="M93.949,184.947a1.63,1.63,0,0,0-1.584,1.674l.027,1.018a1.63,1.63,0,0,0,1.629,1.585h.045a1.63,1.63,0,0,0,1.585-1.673l-.028-1.018A1.628,1.628,0,0,0,93.949,184.947Zm0,0" transform="translate(5.201 -147.465)"/><path class="g" d="M180.547,184.947a1.63,1.63,0,0,0-1.585,1.674l.028,1.018a1.629,1.629,0,0,0,1.628,1.585h.045a1.63,1.63,0,0,0,1.585-1.673l-.028-1.018A1.628,1.628,0,0,0,180.547,184.947Zm0,0" transform="translate(-62.58 -147.465)"/><path class="g" d="M121.151,218.338a5.426,5.426,0,0,1-8.8,0,1.63,1.63,0,0,0-2.641,1.912,8.685,8.685,0,0,0,14.079,0,1.63,1.63,0,1,0-2.64-1.912Zm0,0" transform="translate(-8.135 -173.072)"/></g></svg>