<svg xmlns="http://www.w3.org/2000/svg" width="21.161" height="23" viewBox="0 0 21.161 23"><defs><style>.a{fill:#ffe280;}.b{fill:#ff8f2b;}.c{fill:#e58e13;}.d{fill:#16476a;}</style></defs><path class="a" d="M61.738,59.28H44.582a1.469,1.469,0,0,0,1.483-1.093c1.22-3.292-2.03-12.886,7.1-12.886s5.874,9.594,7.095,12.886A1.47,1.47,0,0,0,61.738,59.28Zm0,0" transform="translate(-42.579 -43.266)"/><path class="b" d="M28.084,358.145a1.661,1.661,0,0,1-1.661,1.661H9.267a1.661,1.661,0,1,1,0-3.322H26.423a1.661,1.661,0,0,1,1.661,1.661Zm0,0" transform="translate(-7.264 -340.47)"/><path class="b" d="M60.259,58.194H51.342a1.7,1.7,0,0,1-1.7-1.757c.126-4.065-.523-11.052,3.455-11.129-10.92.057-3.94,13.979-8.511,13.979H61.742A1.47,1.47,0,0,1,60.259,58.194Zm0,0" transform="translate(-42.583 -43.273)"/><path class="a" d="M130.135,358.145a1.661,1.661,0,0,1-1.661,1.661H116.118a1.661,1.661,0,0,1,0-3.322h12.356a1.661,1.661,0,0,1,1.661,1.661Zm0,0" transform="translate(-109.315 -340.47)"/><path class="b" d="M168.226,430.434a3.322,3.322,0,1,1-6.644,0Zm0,0" transform="translate(-154.323 -411.098)"/><path class="a" d="M218.468,453.246a2.108,2.108,0,0,1-3.968,1.066.657.657,0,0,1,.516-1.066Zm0,0" transform="translate(-204.726 -432.885)"/><path class="c" d="M201.229,9.426c0-.042.005-.084.005-.127a1.693,1.693,0,1,0-3.387,0c0,.043,0,.085,0,.127" transform="translate(-188.96 -7.264)"/><path class="d" d="M19.159,15.672h0c-.661,0-1.035-.344-1.249-1.147a14.782,14.782,0,0,1-.234-3.275,21.192,21.192,0,0,0-.4-4.81.342.342,0,0,0-.664.163,20.678,20.678,0,0,1,.38,4.652,15.14,15.14,0,0,0,.256,3.446,2.745,2.745,0,0,0,.449.971H3.464a2.745,2.745,0,0,0,.449-.971,15.13,15.13,0,0,0,.256-3.446C4.181,9.261,4.2,7,5.011,5.27c.918-1.947,2.74-2.894,5.57-2.894a7.279,7.279,0,0,1,3.779.868,4.585,4.585,0,0,1,1.856,2.17.342.342,0,0,0,.626-.275,5.317,5.317,0,0,0-2.129-2.48,6.483,6.483,0,0,0-2.1-.782,2.034,2.034,0,0,0-4.057,0,6.544,6.544,0,0,0-2.02.732A5.268,5.268,0,0,0,4.393,4.979c-.88,1.866-.895,4.207-.907,6.272a14.771,14.771,0,0,1-.234,3.275c-.214.8-.587,1.147-1.249,1.147H2a2,2,0,0,0,0,4.006H4.165a.342.342,0,1,0,0-.683H2a1.32,1.32,0,0,1,0-2.639H19.159a1.32,1.32,0,0,1,0,2.639H5.531a.342.342,0,0,0,0,.683h1.4a3.663,3.663,0,0,0,7.295,0h4.931a2,2,0,0,0,0-4.006ZM10.581.683a1.354,1.354,0,0,1,1.325,1.085,11.717,11.717,0,0,0-2.651,0A1.354,1.354,0,0,1,10.581.683Zm0,21.634A2.985,2.985,0,0,1,7.62,19.678h5.921A2.985,2.985,0,0,1,10.581,22.317Zm0,0"/><path class="d" d="M353.918,34.115a4.431,4.431,0,0,1,1.213,1.157,6.569,6.569,0,0,1,1.208,4.01.342.342,0,1,0,.683,0,7.248,7.248,0,0,0-1.367-4.449,4.992,4.992,0,0,0-1.406-1.315.342.342,0,0,0-.331.6Zm0,0" transform="translate(-337.852 -31.972)"/><path class="d" d="M411.695,37.146a3.618,3.618,0,0,1,1.346,3.083.342.342,0,0,0,.683,0,4.278,4.278,0,0,0-1.661-3.659.342.342,0,0,0-.368.575Zm0,0" transform="translate(-393.052 -34.877)"/><path class="d" d="M44.689,39.623a.342.342,0,0,0,.342-.342,6.57,6.57,0,0,1,1.208-4.01,4.445,4.445,0,0,1,1.213-1.157.342.342,0,0,0-.331-.6,4.993,4.993,0,0,0-1.406,1.315,7.249,7.249,0,0,0-1.366,4.449A.342.342,0,0,0,44.689,39.623Zm0,0" transform="translate(-42.355 -31.971)"/><path class="d" d="M11.232,40.571a.341.341,0,0,0,.341-.341,3.617,3.617,0,0,1,1.346-3.083.342.342,0,0,0-.368-.575,4.278,4.278,0,0,0-1.661,3.658A.342.342,0,0,0,11.232,40.571Zm0,0" transform="translate(-10.401 -34.877)"/></svg>