<svg xmlns="http://www.w3.org/2000/svg" width="95.605" height="132.843" viewBox="0 0 95.605 132.843"><defs><style>.a{fill:#fdcc9b;}.b{fill:#fcbc85;}.c{fill:#3b2519;}.d{fill:#fff;}.e{fill:#51362a;}.f{fill:#f7945e;}.g{fill:#f7941e;}.h{fill:#f36c21;}</style></defs><g transform="translate(-27.821 -0.001)"><g transform="translate(27.821 16.185)"><rect class="a" width="19.673" height="22.033" transform="translate(37.966 83.018)"/><path class="b" d="M84.551,150.825a33.006,33.006,0,0,0,19.673,4.049V148.23H84.551Z" transform="translate(-46.585 -65.212)"/><ellipse class="b" cx="9.599" cy="10.952" rx="9.599" ry="10.952" transform="translate(0 37.902)"/><ellipse class="b" cx="9.599" cy="10.952" rx="9.599" ry="10.952" transform="translate(76.407 37.902)"/><path class="a" d="M118.532,52.119c0-16.131-11.8-27.935-38.165-27.935S42.2,35.988,42.2,52.119s-2.754,58.624,38.165,58.624S118.532,68.251,118.532,52.119Z" transform="translate(-32.565 -24.184)"/><g transform="translate(22.201 29.608)"><g transform="translate(2.881 12.098)"><ellipse class="c" cx="4.131" cy="4.525" rx="4.131" ry="4.525"/><circle class="d" cx="1.235" cy="1.235" r="1.235" transform="translate(1.095 1.292)"/></g><path class="e" d="M61.4,73.834c1.954.977,5.09-3.319,12.271.418,1.309.681,2.09-5.828-5.606-5.828C61.4,68.424,60.217,73.244,61.4,73.834Z" transform="translate(-60.995 -68.424)"/><g transform="translate(40.569 12.098)"><ellipse class="c" cx="4.131" cy="4.525" rx="4.131" ry="4.525"/><circle class="d" cx="1.235" cy="1.235" r="1.235" transform="translate(1.095 1.292)"/></g><path class="e" d="M130.42,73.834c-1.954.977-5.09-3.319-12.271.418-1.309.681-2.09-5.828,5.607-5.828C130.42,68.424,131.6,73.244,130.42,73.834Z" transform="translate(-79.621 -68.424)"/></g><path class="b" d="M96.015,116.066c-4.082,0-6.541-3.049-6.541-1.574s1.181,4.279,6.541,4.279,6.541-2.8,6.541-4.279S100.1,116.066,96.015,116.066Z" transform="translate(-48.213 -53.92)"/><path class="b" d="M98.13,136.975c-1.412,0-2.263-1.055-2.263-.544s.408,1.48,2.263,1.48,2.262-.969,2.262-1.48S99.541,136.975,98.13,136.975Z" transform="translate(-50.327 -61.264)"/><path class="f" d="M94.124,130.67c-6.47,0-10.369-2.635-10.369-1.967s1.871,3.3,10.369,3.3,10.369-2.627,10.369-3.3S100.594,130.67,94.124,130.67Z" transform="translate(-46.321 -58.718)"/></g><path class="g" d="M75.623,161.458v24.788h-47.8C27.821,176.212,53,161.458,75.623,161.458Z" transform="translate(0 -53.402)"/><path class="g" d="M99.248,161.458v24.788h47.8C147.05,176.212,121.871,161.458,99.248,161.458Z" transform="translate(-23.625 -53.402)"/><path class="h" d="M92.074,161.458a62.609,62.609,0,0,0-14.515,1.82,19.443,19.443,0,0,0,14.515,6.836c8.536,0,14.21-5.818,15.033-6.713A62.928,62.928,0,0,0,92.074,161.458Z" transform="translate(-16.451 -53.402)"/><path class="a" d="M84.55,161.924s2.877,3.568,9.836,3.568,9.837-3.568,9.837-3.568S94.018,158.209,84.55,161.924Z" transform="translate(-18.763 -53.01)"/><path class="e" d="M109.308,12.743s-14.164-18-43.6-11.213S34.061,26.022,34.946,43.248s3.246,27.332,6.038,26.083,1.339-12.62,1.634-15.244S45.569,39.6,63.474,41.366a74.065,74.065,0,0,0,32.991-4.722s6.073,7.677,10.07,9.148c7.987,2.939,5.367,22.534,8.5,22.534S133.505,23.071,109.308,12.743Z" transform="translate(-2.308 0)"/></g></svg>