<svg xmlns="http://www.w3.org/2000/svg" xmlns:xlink="http://www.w3.org/1999/xlink" width="18.893" height="21.555" viewBox="0 0 18.893 21.555"><defs><style>.a{fill:url(#a);}</style><linearGradient id="a" x1="0.5" x2="0.5" y2="1" gradientUnits="objectBoundingBox"><stop offset="0" stop-color="#4ba3fc"/><stop offset="1" stop-color="#036ce6"/></linearGradient></defs><g transform="translate(-1.701)"><path class="a" d="M11.147,0a9.437,9.437,0,0,0-6.5,16.293l-.316,5.262,4.487-2.962A9.442,9.442,0,1,0,11.147,0Zm0,13.007H6.424a.63.63,0,0,1,0-1.26h4.723a.63.63,0,0,1,0,1.26Zm4.723-2.93H6.424a.63.63,0,0,1,0-1.259h9.446a.63.63,0,1,1,0,1.259Zm0-2.931H6.424a.63.63,0,0,1,0-1.259h9.446a.63.63,0,1,1,0,1.259Z"/></g></svg>