<svg xmlns="http://www.w3.org/2000/svg" width="35.463" height="34.041" viewBox="0 0 35.463 34.041"><defs><style>.a{fill:#ff8f2b;}</style></defs><g transform="translate(0 -10.262)"><g transform="translate(0 10.262)"><path class="a" d="M35.394,28.921A13.98,13.98,0,0,0,24.523,16.662V14.9a2.355,2.355,0,0,0-.568-4.64H18.968A2.355,2.355,0,0,0,18.4,14.9v1.765a13.908,13.908,0,0,0-6.821,3.752A14.058,14.058,0,0,0,10.4,21.754l-.053,0H5.414a.693.693,0,1,0,0,1.385H9.46A13.885,13.885,0,0,0,8.231,25.8H.693a.693.693,0,1,0,0,1.385H7.84A14.083,14.083,0,0,0,7.5,29.846H4.433a.693.693,0,0,0,0,1.385H7.518a14.062,14.062,0,0,0,.432,2.662H3.463a.693.693,0,0,0,0,1.385H8.392a13.989,13.989,0,0,0,11.7,8.957q.686.068,1.373.068A14.025,14.025,0,0,0,29.1,42.046a.693.693,0,0,0-.756-1.161,12.606,12.606,0,1,1,3.713-3.718.693.693,0,1,0,1.162.754A14.036,14.036,0,0,0,35.394,28.921ZM18,12.617a.971.971,0,0,1,.97-.97h4.987a.97.97,0,0,1,0,1.939H18.968A.971.971,0,0,1,18,12.617Zm1.787,3.812V14.972h3.353v1.454A14.113,14.113,0,0,0,19.785,16.429Z" transform="translate(0 -10.262)"/><path class="a" d="M436.463,425.5a.693.693,0,1,0,.49.2A.7.7,0,0,0,436.463,425.5Z" transform="translate(-405.587 -396.739)"/><path class="a" d="M265.086,219.614l-3.431,3.431a2.147,2.147,0,0,0-1.9,0l-1.535-1.535a.693.693,0,1,0-.98.98l1.535,1.535a2.152,2.152,0,1,0,3.861,0l3.33-3.33h0l.1-.1a.693.693,0,0,0-.98-.98Zm-4.381,6.128a.767.767,0,1,1,.767-.767A.768.768,0,0,1,260.7,225.742Z" transform="translate(-239.233 -204.925)"/><path class="a" d="M.693,351.44a.693.693,0,1,0,.49,1.182.693.693,0,0,0-.49-1.182Z" transform="translate(0 -327.809)"/></g></g></svg>