<svg xmlns="http://www.w3.org/2000/svg" width="40" height="40" viewBox="0 0 40 40"><defs><style>.a{fill:#ff8f2b;}</style></defs><path class="a" d="M20,0A20,20,0,1,0,40,20,20.023,20.023,0,0,0,20,0Zm0,38.667A18.667,18.667,0,1,1,38.667,20,18.688,18.688,0,0,1,20,38.667Z"/><path class="a" d="M26.667,22.307V15.546a.667.667,0,1,0-1.333,0v6.761a2.663,2.663,0,0,0-1.905,1.905H18.667a.667.667,0,1,0,0,1.333h4.761a2.661,2.661,0,1,0,3.239-3.239ZM26,26.212a1.333,1.333,0,1,1,1.333-1.333A1.335,1.335,0,0,1,26,26.212Z" transform="translate(-6 -4.96)"/><path class="a" d="M29.667,8.879a.666.666,0,0,0,.667-.667V7.546a.667.667,0,0,0-1.333,0v.667A.666.666,0,0,0,29.667,8.879Z" transform="translate(-9.667 -2.293)"/><path class="a" d="M29.667,49.879a.666.666,0,0,0-.667.667v.667a.667.667,0,1,0,1.333,0v-.667A.666.666,0,0,0,29.667,49.879Z" transform="translate(-9.667 -16.626)"/><path class="a" d="M51.333,28.879h-.667a.667.667,0,0,0,0,1.333h.667a.667.667,0,0,0,0-1.333Z" transform="translate(-16.667 -9.626)"/><path class="a" d="M8.333,28.879H7.667a.667.667,0,1,0,0,1.333h.667a.667.667,0,1,0,0-1.333Z" transform="translate(-2.333 -9.626)"/><path class="a" d="M44.516,13.517l-.471.471a.667.667,0,1,0,.943.943l.471-.471a.667.667,0,0,0-.943-.943Z" transform="translate(-14.616 -4.441)"/><path class="a" d="M14.111,43.923l-.471.471a.667.667,0,1,0,.943.943l.471-.471a.667.667,0,0,0-.943-.943Z" transform="translate(-4.481 -14.576)"/><path class="a" d="M44.987,43.923a.667.667,0,1,0-.943.943l.471.471a.667.667,0,0,0,.943-.943Z" transform="translate(-14.616 -14.576)"/><path class="a" d="M14.582,13.517a.667.667,0,0,0-.943.943l.471.471a.667.667,0,0,0,.943-.943Z" transform="translate(-4.481 -4.441)"/></svg>