<svg xmlns="http://www.w3.org/2000/svg" width="82.683" height="83.602" viewBox="0 0 82.683 83.602"><defs><style>.a{fill:#16476a;}</style></defs><g transform="translate(-0.324 0)"><path class="a" d="M33.682,36.921a9.919,9.919,0,1,0-9.919,9.919A9.931,9.931,0,0,0,33.682,36.921Zm-9.919,7.085a7.085,7.085,0,1,1,7.085-7.085A7.093,7.093,0,0,1,23.764,44.005Z" transform="translate(5.638 11.259)"/><circle class="a" cx="2.834" cy="2.834" r="2.834" transform="translate(23.734 42.511)"/><path class="a" d="M41.764,27a9.919,9.919,0,1,0,9.919,9.919A9.931,9.931,0,0,0,41.764,27Zm0,17a7.085,7.085,0,1,1,7.085-7.085A7.093,7.093,0,0,1,41.764,44.005Z" transform="translate(13.143 11.259)"/><circle class="a" cx="2.834" cy="2.834" r="2.834" transform="translate(49.239 42.511)"/><path class="a" d="M33.876,44.136c-6.464.975-10.607,6.895-10.78,7.147a1.417,1.417,0,1,0,2.332,1.608c.035-.051,3.609-5.159,8.87-5.953,2.8-.428,5.627.478,8.407,2.672a1.417,1.417,0,1,0,1.757-2.225C41.041,44.686,37.479,43.593,33.876,44.136Z" transform="translate(9.391 18.346)"/><path class="a" d="M82.614,61.86c-2.974-6.667-3.909-19.286-4.2-26.217a34.42,34.42,0,0,0-5.644-17.788,38.982,38.982,0,0,0-17.446-14.8,36.591,36.591,0,0,0-29.253,0C20.7,5.4,14.555,8.823,9.71,16.4A33.987,33.987,0,0,0,4.549,34.086C4.4,41.554,3.706,55.122.687,62.109a4.435,4.435,0,0,0,2.257,5.8,29.776,29.776,0,0,0,6.733,1.274l.561.071v1.593a7.282,7.282,0,0,0,7.106,7.085H20.9v2.4A3.271,3.271,0,0,0,24.167,83.6H57.308a3.271,3.271,0,0,0,3.268-3.268v-2.4h4.666a7.5,7.5,0,0,0,7.346-7.085V69.207c.767-.126,1.557-.245,2.348-.354a26.984,26.984,0,0,0,5.25-1.049,4.422,4.422,0,0,0,2.429-5.944ZM57.741,80.336a.434.434,0,0,1-.434.434H24.167a.434.434,0,0,1-.434-.434v-2.4H57.741Zm12.012-9.485A4.685,4.685,0,0,1,65.241,75.1h-47.9a4.489,4.489,0,0,1-4.272-4.251V39.6c5.722-.394,27.471-2.553,36.584-12.869,2.059,3.819,7.02,11.776,13.553,13.837a10.129,10.129,0,0,0,6.539-.081V70.851Zm10.3-6.558a1.561,1.561,0,0,1-.891.87,26.533,26.533,0,0,1-4.619.883c-.649.091-1.306.186-1.954.286V38.261a1.418,1.418,0,0,0-2.138-1.22,7.514,7.514,0,0,1-6.381.822c-7.3-2.3-12.808-14.238-12.863-14.358a1.418,1.418,0,0,0-2.466-.2C40.533,35.5,11.885,36.834,11.6,36.847a1.417,1.417,0,0,0-1.357,1.416V66.4l-.21-.027a33.341,33.341,0,0,1-5.936-1.054,1.574,1.574,0,0,1-.8-2.087C6.5,55.8,7.233,41.816,7.385,34.142A31.14,31.14,0,0,1,12.1,17.923c4.435-6.935,10.126-10.1,15.108-12.277a33.75,33.75,0,0,1,26.979,0,36.272,36.272,0,0,1,16.23,13.788,31.606,31.606,0,0,1,5.166,16.326c.368,8.71,1.437,20.51,4.445,27.251A1.623,1.623,0,0,1,80.049,64.293Z" transform="translate(0 0)"/></g></svg>