<svg xmlns="http://www.w3.org/2000/svg" width="14.951" height="11.389" viewBox="0 0 14.951 11.389"><defs><style>.a{fill:#16476a;}</style></defs><g transform="translate(0 -61)"><g transform="translate(0 61)"><path class="a" d="M13.637,61H1.314A1.316,1.316,0,0,0,0,62.314v8.761a1.316,1.316,0,0,0,1.314,1.314H13.637a1.316,1.316,0,0,0,1.314-1.314V62.314A1.316,1.316,0,0,0,13.637,61Zm-.181.876L7.5,67.828l-6-5.952ZM.876,70.893v-8.4L5.1,66.674Zm.619.619,4.222-4.222L7.2,68.757a.438.438,0,0,0,.618,0l1.442-1.442,4.2,4.2Zm12.58-.619-4.2-4.2,4.2-4.2Z" transform="translate(0 -61)"/></g></g></svg>