<svg xmlns="http://www.w3.org/2000/svg" xmlns:xlink="http://www.w3.org/1999/xlink" width="1280" height="457" viewBox="0 0 1280 457"><defs><style>.a{fill:url(#a);}.b{fill:#ff8f2b;}.c{opacity:0.383;clip-path:url(#d);}.d,.e{opacity:0.621;}.d{fill:url(#e);}.e,.g{fill:url(#f);}.f{opacity:0.906;fill:url(#h);}.g{opacity:0.446;}.h{filter:url(#b);}</style><linearGradient id="a" x1="0.5" x2="0.5" y2="1" gradientUnits="objectBoundingBox"><stop offset="0" stop-color="#ff8539"/><stop offset="1" stop-color="#ff794e"/></linearGradient><filter id="b" x="-9" y="-6" width="1298" height="475" filterUnits="userSpaceOnUse"><feOffset dy="3" input="SourceAlpha"/><feGaussianBlur stdDeviation="3" result="c"/><feFlood flood-color="#4eaeff" flood-opacity="0.161"/><feComposite operator="in" in2="c"/><feComposite in="SourceGraphic"/></filter><clipPath id="d"><g class="h" transform="matrix(1, 0, 0, 1, 0, 0)"><rect class="a" width="1280" height="457" rx="5" transform="translate(-135 6)"/></g></clipPath><linearGradient id="e" x1="0.5" x2="0.5" y2="1" gradientUnits="objectBoundingBox"><stop offset="0" stop-color="#ff6af9"/><stop offset="1" stop-color="#ffe139"/></linearGradient><linearGradient id="f" x1="0.5" x2="0.5" y2="1" gradientUnits="objectBoundingBox"><stop offset="0" stop-color="#ff6af9"/><stop offset="1" stop-color="#ff3967"/></linearGradient><linearGradient id="h" x1="0.5" x2="0.5" y2="1" gradientUnits="objectBoundingBox"><stop offset="0" stop-color="#ff6a6a"/><stop offset="1" stop-color="#ffba39"/></linearGradient></defs><g transform="translate(0 -5284)"><rect class="b" width="1280" height="457" transform="translate(0 5284)"/><g class="c" transform="translate(135 5278)"><g transform="matrix(0.259, -0.966, 0.966, 0.259, -232.221, 558.803)"><ellipse class="d" cx="158.884" cy="158.197" rx="158.884" ry="158.197" transform="matrix(0.485, 0.875, -0.875, 0.485, 281.664, 82.296)"/><ellipse class="e" cx="211.857" cy="211.17" rx="211.857" ry="211.17" transform="matrix(0.485, 0.875, -0.875, 0.485, 618.832, 184.581)"/><ellipse class="e" cx="211.857" cy="211.17" rx="211.857" ry="211.17" transform="matrix(0.485, 0.875, -0.875, 0.485, 828.976, 578.618)"/><ellipse class="f" cx="242.246" cy="242.246" rx="242.246" ry="242.246" transform="matrix(0.485, 0.875, -0.875, 0.485, 589.306, -144.449)"/><ellipse class="f" cx="112.636" cy="112.636" rx="112.636" ry="112.636" transform="matrix(0.485, 0.875, -0.875, 0.485, 326.328, 352.345)"/><ellipse class="f" cx="112.636" cy="112.636" rx="112.636" ry="112.636" transform="matrix(0.485, 0.875, -0.875, 0.485, 536.473, 746.383)"/><ellipse class="f" cx="112.636" cy="112.636" rx="112.636" ry="112.636" transform="matrix(0.485, 0.875, -0.875, 0.485, 600.238, 593.955)"/><ellipse class="f" cx="112.636" cy="112.636" rx="112.636" ry="112.636" transform="matrix(0.485, 0.875, -0.875, 0.485, 810.383, 987.992)"/><ellipse class="g" cx="211.857" cy="211.17" rx="211.857" ry="211.17" transform="matrix(0.485, 0.875, -0.875, 0.485, 396.602, 387.429)"/><ellipse class="g" cx="211.857" cy="211.17" rx="211.857" ry="211.17" transform="matrix(0.485, 0.875, -0.875, 0.485, 606.747, 781.467)"/></g></g></g></svg>