<svg xmlns="http://www.w3.org/2000/svg" width="22.401" height="21.677" viewBox="0 0 22.401 21.677"><defs><style>.a{fill:#091d2c;}</style></defs><g transform="translate(-2 -45.81)"><g transform="translate(0 45.81)"><path class="a" d="M22.759,45.81H3.642A1.644,1.644,0,0,0,2,47.452v1.932a1.644,1.644,0,0,0,1.642,1.642h.769L10.9,59.511v7.428a.547.547,0,0,0,.934.387l3.535-3.535a.547.547,0,0,0,.16-.387V59.511l6.485-8.485h.748A1.644,1.644,0,0,0,24.4,49.384V47.452A1.644,1.644,0,0,0,22.759,45.81ZM14.591,58.9a.545.545,0,0,0-.16.392v3.888L11.99,65.618V59.286a.546.546,0,0,0-.16-.389L5.958,51.026h14.5Zm8.715-9.514a.548.548,0,0,1-.547.547H3.642a.548.548,0,0,1-.547-.547V47.452a.548.548,0,0,1,.547-.547H22.759a.548.548,0,0,1,.547.547v1.932Z" transform="translate(0 -45.81)"/></g></g></svg>