<svg xmlns="http://www.w3.org/2000/svg" width="41.986" height="56" viewBox="0 0 41.986 56"><defs><style>.a{fill:#ff8f2b;}</style></defs><g transform="translate(-64.108)"><g transform="translate(64.108 0.001)"><path class="a" d="M204.115,219.923a5.829,5.829,0,0,0-11.193,3.223c2.1,7.3,9.775,13.844,16.805,19.407a1.166,1.166,0,1,0,1.448-1.828c-6.748-5.34-14.1-11.591-16.012-18.223a3.5,3.5,0,0,1,6.727-1.933c1.273,4.43,7.6,9.905,13.627,14.672a1.166,1.166,0,1,0,1.448-1.828C213.785,230.9,205.362,224.237,204.115,219.923Z" transform="translate(-178.698 -192.351)"/><path class="a" d="M106.019,139.018a15.157,15.157,0,0,0-29.005,8.8l0,.017c1.914,6.65-2.19,8.495-3.5,8.9a1.166,1.166,0,0,0,.7,2.225c3.565-1.115,7.028-4.864,5.039-11.771a12.825,12.825,0,0,1,8.773-15.874l.011,0a12.9,12.9,0,0,1,15.81,8.6,1.1,1.1,0,0,0,.117.259c.121.2.371.623,7.865,6.7a1.166,1.166,0,0,0,1.471-1.81C110.582,142.851,106.6,139.566,106.019,139.018Z" transform="translate(-71.764 -114.451)"/><path class="a" d="M132.03,178.616a10.512,10.512,0,0,0-12.981-7.184,10.7,10.7,0,0,0-7.2,12.913c2.355,10.726.595,13.2-4.237,14.714a1.166,1.166,0,0,0,.7,2.225c6.751-2.1,8.217-6.51,5.829-17.439a8.394,8.394,0,0,1,5.568-10.171,8.187,8.187,0,0,1,10.1,5.6c.466,1.59,1.7,3.773,11.253,11.33a1.166,1.166,0,1,0,1.448-1.828C133.84,181.915,132.357,179.745,132.03,178.616Z" transform="translate(-102.127 -152.333)"/><path class="a" d="M249.247,270.992c-3.945-2.994-10.549-8-12.174-13.65a1.166,1.166,0,0,0-2.241.644c1.837,6.394,8.828,11.7,13,14.865a30.933,30.933,0,0,1,2.448,1.959,1.166,1.166,0,0,0,1.649-1.648A30.6,30.6,0,0,0,249.247,270.992Z" transform="translate(-216.136 -228.48)"/><path class="a" d="M223.9,430.958a7.616,7.616,0,0,0-5.815-3.95c-3.964,0-4.577,6.739-4.664,8.089a1.166,1.166,0,0,0,1.091,1.236h.075a1.166,1.166,0,0,0,1.166-1.094c.147-2.4,1.066-5.9,2.332-5.9,1.728,0,2.954,1.665,3.938,3a12.568,12.568,0,0,0,1.066,1.32,1.166,1.166,0,0,0,1.649-1.649A10.366,10.366,0,0,1,223.9,430.958Z" transform="translate(-197.101 -380.336)"/><path class="a" d="M156.294,364.163a1.166,1.166,0,0,0-2.222.7c1,3.118-.963,9.236-3.913,10.195a1.166,1.166,0,1,0,.7,2.225l.024-.008C155.366,375.829,157.53,368.036,156.294,364.163Z" transform="translate(-140.025 -323.674)"/><path class="a" d="M105.274,100.887c-1.457-.466-2.6-2.332-3.929-4.461-2.807-4.538-6.657-10.752-17.416-10.752a19.844,19.844,0,0,0-19.82,19.82,1.166,1.166,0,0,0,2.332,0A17.507,17.507,0,0,1,83.929,88.006c9.46,0,12.774,5.349,15.436,9.649,1.567,2.53,2.919,4.715,5.191,5.452a1.166,1.166,0,0,0,.745-2.21l-.024-.008Z" transform="translate(-64.109 -76.31)"/><path class="a" d="M66.44,304.837a1.166,1.166,0,0,0,1.042-1.688,10.333,10.333,0,0,1-1.042-2.975,1.166,1.166,0,0,0-2.332,0,11.919,11.919,0,0,0,1.289,4.02A1.166,1.166,0,0,0,66.44,304.837Z" transform="translate(-64.108 -266.326)"/><path class="a" d="M75.33,52.165a1.166,1.166,0,0,0,1.6-.389l0,0c1.012-1.67,6-6.433,15.325-6.433,8.963,0,15.341,4.54,16.49,6.433a1.166,1.166,0,0,0,1.994-1.21h0c-1.6-2.635-8.663-7.555-18.484-7.555-10.444,0-16.043,5.454-17.321,7.557A1.166,1.166,0,0,0,75.33,52.165Z" transform="translate(-73.605 -38.308)"/><path class="a" d="M129.353,4.6c.534-.233.986-.466,1.415-.7,1.754-.884,3.015-1.53,8.611-1.53A26.448,26.448,0,0,1,150.463,4.15c.445.166.893.331,1.362.492a1.181,1.181,0,0,0,.38.065,1.166,1.166,0,0,0,.38-2.269c-.452-.156-.881-.315-1.31-.466A28.751,28.751,0,0,0,139.38.044c-6.165,0-7.709.793-9.668,1.8-.394.2-.814.417-1.3.637a1.166,1.166,0,0,0,.861,2.167q.046-.018.09-.04Z" transform="translate(-120.726 -0.007)"/><path class="a" d="M407.8,134.6a1.166,1.166,0,0,0,2.222-.7,29.412,29.412,0,0,0-2.451-4.92,1.166,1.166,0,1,0-1.987,1.222A27.606,27.606,0,0,1,407.8,134.6Z" transform="translate(-368.11 -114.386)"/></g><path class="a" d="M210.441,242.81a1.166,1.166,0,0,1-.723-.252c-7.03-5.566-14.7-12.111-16.8-19.407a5.829,5.829,0,0,1,11.193-3.223c1.24,4.311,9.663,10.978,12.825,13.487a1.166,1.166,0,0,1-1.39,1.872l-.056-.044c-6.023-4.766-12.359-10.239-13.629-14.672a3.5,3.5,0,0,0-6.725,1.933c1.907,6.632,9.264,12.883,16.01,18.223a1.166,1.166,0,0,1-.725,2.08Z" transform="translate(-114.588 -192.355)"/><path class="a" d="M73.826,159a1.166,1.166,0,0,1-.347-2.278c1.3-.408,5.407-2.253,3.5-8.9a15.157,15.157,0,0,1,10.376-18.756l.012,0a15.248,15.248,0,0,1,18.619,9.952c.581.546,4.561,3.833,7.284,6.044a1.166,1.166,0,0,1-1.469,1.81c-7.5-6.084-7.746-6.506-7.867-6.706a1.175,1.175,0,0,1-.114-.257,12.824,12.824,0,0,0-24.6,7.268v0c1.987,6.9-1.474,10.656-5.041,11.771A1.153,1.153,0,0,1,73.826,159Z" transform="translate(-7.619 -114.446)"/><path class="a" d="M107.959,201.35a1.166,1.166,0,0,1-.347-2.278c4.832-1.511,6.59-3.992,4.234-14.714a10.705,10.705,0,0,1,7.2-12.913,10.521,10.521,0,0,1,12.983,7.184c.324,1.126,1.8,3.3,10.458,10.148a1.166,1.166,0,1,1-1.39,1.872l-.056-.044c-9.56-7.56-10.8-9.745-11.253-11.33a8.178,8.178,0,0,0-10.1-5.6,8.394,8.394,0,0,0-5.566,10.183c2.4,10.931.933,15.332-5.829,17.439A1.146,1.146,0,0,1,107.959,201.35Z" transform="translate(-38.021 -152.345)"/><path class="a" d="M251.041,274.834a1.166,1.166,0,0,1-.825-.34,31.145,31.145,0,0,0-2.448-1.961c-4.176-3.169-11.167-8.471-13-14.865a1.166,1.166,0,1,1,2.23-.683l.011.039c1.632,5.648,8.227,10.656,12.172,13.65a30.842,30.842,0,0,1,2.689,2.171,1.166,1.166,0,0,1-.823,1.989Z" transform="translate(-151.956 -228.161)"/><path class="a" d="M214.589,436.354h-.075a1.166,1.166,0,0,1-1.091-1.236c.084-1.35.7-8.089,4.664-8.089a7.625,7.625,0,0,1,5.829,3.952,10.016,10.016,0,0,0,.835,1.054,1.166,1.166,0,0,1-1.649,1.649,12.22,12.22,0,0,1-1.066-1.317c-.993-1.343-2.22-3.008-3.95-3.008-1.264,0-2.185,3.5-2.332,5.9A1.166,1.166,0,0,1,214.589,436.354Z" transform="translate(-132.993 -380.354)"/><path class="a" d="M150.59,376.484a1.166,1.166,0,0,1-.359-2.276c2.947-.958,4.9-7.077,3.913-10.195a1.166,1.166,0,1,1,2.22-.7c1.238,3.873-.933,11.659-5.414,13.123A1.167,1.167,0,0,1,150.59,376.484Z" transform="translate(-75.989 -322.816)"/><path class="a" d="M65.275,106.661a1.166,1.166,0,0,1-1.166-1.166,19.843,19.843,0,0,1,19.82-19.82c10.759,0,14.609,6.214,17.418,10.752,1.327,2.138,2.472,3.987,3.929,4.461a1.166,1.166,0,0,1-.7,2.225l-.024-.008c-2.271-.737-3.624-2.922-5.191-5.452-2.663-4.3-5.976-9.647-15.436-9.647A17.507,17.507,0,0,0,66.441,105.5,1.166,1.166,0,0,1,65.275,106.661Z" transform="translate(-0.001 -76.311)"/><path class="a" d="M66.441,304.837a1.166,1.166,0,0,1-1.045-.644,11.893,11.893,0,0,1-1.287-4.02,1.166,1.166,0,1,1,2.332,0,10.364,10.364,0,0,0,1.042,2.975,1.166,1.166,0,0,1-1.042,1.688Z" transform="translate(-0.001 -266.325)"/><path class="a" d="M109.572,52.335a1.166,1.166,0,0,1-1-.562c-1.147-1.893-7.527-6.433-16.49-6.433-9.327,0-14.313,4.764-15.327,6.433a1.166,1.166,0,1,1-2.035-1.138c.014-.025.029-.049.044-.072,1.275-2.1,6.874-7.555,17.318-7.555,9.822,0,16.885,4.92,18.484,7.557a1.166,1.166,0,0,1-1,1.77Z" transform="translate(-9.321 -38.307)"/><path class="a" d="M152.624,4.7a1.165,1.165,0,0,1-.38-.063c-.466-.161-.919-.329-1.364-.492A26.454,26.454,0,0,0,139.8,2.369c-5.6,0-6.858.646-8.6,1.539-.429.222-.884.452-1.415.7a1.168,1.168,0,0,1-.944-2.136c.492-.222.909-.436,1.306-.639,1.945-1,3.491-1.8,9.654-1.8a28.74,28.74,0,0,1,11.892,1.921c.429.159.858.319,1.31.466a1.166,1.166,0,0,1-.378,2.276Z" transform="translate(-57.036 0)"/><path class="a" d="M408.935,135.333a1.166,1.166,0,0,1-1.11-.811,27.671,27.671,0,0,0-2.215-4.407,1.166,1.166,0,1,1,1.987-1.222h0a29.438,29.438,0,0,1,2.448,4.92,1.166,1.166,0,0,1-1.11,1.52Z" transform="translate(-304.021 -114.31)"/></g></svg>