<svg xmlns="http://www.w3.org/2000/svg" width="32" height="32" viewBox="0 0 32 32"><defs><style>.a{fill:#16476a;}</style></defs><path class="a" d="M16,0A16,16,0,1,0,32,16,16.018,16.018,0,0,0,16,0Zm0,30.169A14.169,14.169,0,1,1,30.169,16,14.185,14.185,0,0,1,16,30.169Z"/><path class="a" d="M94.808,86.942H88.545a.915.915,0,1,0,0,1.831h5.279a6.035,6.035,0,1,1-1.872-5.349.915.915,0,1,0,1.242-1.345,7.865,7.865,0,1,0,2.529,5.778A.915.915,0,0,0,94.808,86.942Z" transform="translate(-71.859 -71.857)"/></svg>