<svg xmlns="http://www.w3.org/2000/svg" width="82.478" height="63.234" viewBox="0 0 82.478 63.234"><defs><style>.a{fill:#78b9eb;}.b{fill:#006df0;}</style></defs><g transform="translate(0 -0.016)"><path class="a" d="M132.618,296.016h-8.247v5.5H112v5.5h32.989v-5.5H132.618Zm0,0" transform="translate(-92.756 -245.142)"/><path class="a" d="M75.353,8.016H9.375A1.375,1.375,0,0,0,8,9.39V50.626H68.15A10.936,10.936,0,0,1,76.727,46.5V9.39A1.375,1.375,0,0,0,75.353,8.016ZM56.109,27.259a2.75,2.75,0,0,1-2.46-1.526,2.632,2.632,0,0,1-.289-1.223,2.749,2.749,0,1,1,2.749,2.749Zm0,0" transform="translate(-6.625 -6.625)"/><g transform="translate(0 0.016)"><path class="b" d="M71.476,38.584V2.765A2.749,2.749,0,0,0,68.727.016H2.749A2.749,2.749,0,0,0,0,2.765V49.5a2.749,2.749,0,0,0,2.749,2.749H30.24V55h-11a1.375,1.375,0,0,0-1.375,1.375v5.5a1.375,1.375,0,0,0,1.375,1.375H52.233a1.375,1.375,0,0,0,1.375-1.375v-5.5A1.375,1.375,0,0,0,52.233,55h-11V52.248H57.812A12.371,12.371,0,1,0,71.476,38.584ZM68.727,2.765V38.584a12.339,12.339,0,0,0-7.82,4.042H2.749V2.765ZM2.749,45.375H59.037A12.244,12.244,0,0,0,57.812,49.5H2.749ZM50.858,60.5H20.618V57.746h30.24ZM38.487,55h-5.5V52.248h5.5ZM70.1,60.5a9.622,9.622,0,1,1,9.622-9.622A9.622,9.622,0,0,1,70.1,60.5Zm0,0" transform="translate(0 -0.016)"/><path class="b" d="M383.071,262.153l-3.512,2.337,1.526,2.287,4.124-2.749a1.376,1.376,0,0,0,.611-1.14v-6.873h-2.749Zm0,0" transform="translate(-314.344 -212.03)"/><path class="b" d="M26.749,26.765H29.5V24.016H25.375A1.375,1.375,0,0,0,24,25.39v5.5h2.749Zm0,0" transform="translate(-19.876 -19.892)"/><path class="b" d="M362.749,30.888H365.5v-5.5a1.375,1.375,0,0,0-1.375-1.375H360v2.749h2.749Zm0,0" transform="translate(-298.146 -19.892)"/><path class="b" d="M65.375,98.132H109.36V95.383H66.749V72.016H64V96.757A1.375,1.375,0,0,0,65.375,98.132Zm0,0" transform="translate(-53.004 -59.645)"/><path class="b" d="M105.027,94.117l5.952,3.574a1.376,1.376,0,0,0,1.468-.033L128.19,87.2a4.109,4.109,0,1,0-1.384-3.061,4.031,4.031,0,0,0,.064.635L111.65,94.884l-6.128-3.675a1.374,1.374,0,0,0-1.68.206l-5.5,5.5,1.944,1.944Zm25.9-11.352a1.375,1.375,0,1,1-1.375,1.375A1.375,1.375,0,0,1,130.93,82.765Zm0,0" transform="translate(-81.447 -66.27)"/><path class="b" d="M256,144.016h2.749v2.749H256Zm0,0" transform="translate(-212.015 -119.274)"/><path class="b" d="M136,184.016h2.749v2.749H136Zm0,0" transform="translate(-112.633 -152.401)"/><path class="b" d="M224,168.016h2.749v2.749H224Zm0,0" transform="translate(-185.513 -139.15)"/><path class="b" d="M280,184.016h2.749v2.749H280Zm0,0" transform="translate(-231.891 -152.401)"/></g></g></svg>