<svg xmlns="http://www.w3.org/2000/svg" width="45" height="45" viewBox="0 0 45 45"><defs><style>.a{fill:#ff8f2b;opacity:0.098;}.b,.d{fill:none;}.b{stroke:#ff8f2b;}.c{stroke:none;}</style></defs><g transform="translate(-1055 -786)"><circle class="a" cx="22.5" cy="22.5" r="22.5" transform="translate(1055 786)"/><g transform="translate(1066.632 801)"><g class="b" transform="translate(3.368)"><path class="c" d="M0,0H16a0,0,0,0,1,0,0V12a7,7,0,0,1-7,7H7a7,7,0,0,1-7-7V0A0,0,0,0,1,0,0Z"/><path class="d" d="M1,.5H15a.5.5,0,0,1,.5.5V12A6.5,6.5,0,0,1,9,18.5H7A6.5,6.5,0,0,1,.5,12V1A.5.5,0,0,1,1,.5Z"/></g><path class="b" d="M883.58-218.527H898.9" transform="translate(-879.53 227.547)"/><path class="b" d="M883.58-218.517h24.214" transform="translate(-883.58 219.008)"/><path class="b" d="M0,0H5.009" transform="translate(21.276 1.085) rotate(90)"/></g></g></svg>