<svg xmlns="http://www.w3.org/2000/svg" width="20" height="15" viewBox="0 0 20 15">
  <g id="Group_263" data-name="Group 263" transform="translate(-83.999 -621)">
    <g id="Group_230" data-name="Group 230" transform="translate(-867.058 583.834)">
      <g id="Rectangle_124" data-name="Rectangle 124" transform="translate(951.058 37.166)" fill="none" stroke-width="1.5" stroke="#fff">
        <rect width="20" height="15" rx="3" stroke="none"/>
        <rect x="0.75" y="0.75" width="18.5" height="13.5" rx="2.25" fill="none"/>
      </g>
    </g>
    <g id="Intersection_1" data-name="Intersection 1" transform="translate(4134.072 5058.644)" fill="none">
      <path d="M-4042.359-4428.717l-5.835-5.835a2.993,2.993,0,0,1-.857-2.482,2.985,2.985,0,0,1,1.812-.609h14a2.991,2.991,0,0,1,2.083.841,2.991,2.991,0,0,1-.876,2l-6.084,6.084a2.991,2.991,0,0,1-2.121.878A2.991,2.991,0,0,1-4042.359-4428.717Z" stroke="none"/>
      <path d="M -4040.237548828125 -4429.3388671875 C -4039.8369140625 -4429.3388671875 -4039.460205078125 -4429.4951171875 -4039.177001953125 -4429.77783203125 L -4033.0927734375 -4435.8623046875 C -4033.018310546875 -4435.9365234375 -4032.952392578125 -4436.01806640625 -4032.89599609375 -4436.10498046875 C -4033.0068359375 -4436.130859375 -4033.12158203125 -4436.14404296875 -4033.238037109375 -4436.14404296875 L -4047.23828125 -4436.14404296875 C -4047.316650390625 -4436.14404296875 -4047.393798828125 -4436.13818359375 -4047.4697265625 -4436.12646484375 C -4047.3955078125 -4435.93701171875 -4047.28173828125 -4435.76171875 -4047.132568359375 -4435.61279296875 L -4041.298095703125 -4429.7783203125 C -4041.014892578125 -4429.4951171875 -4040.63818359375 -4429.3388671875 -4040.237548828125 -4429.3388671875 M -4040.237548828125 -4427.8388671875 C -4041.00537109375 -4427.8388671875 -4041.77294921875 -4428.1318359375 -4042.358642578125 -4428.71728515625 L -4048.193359375 -4434.55224609375 C -4048.871337890625 -4435.22998046875 -4049.156982421875 -4436.1513671875 -4049.05029296875 -4437.03466796875 C -4048.546875 -4437.4169921875 -4047.919189453125 -4437.64404296875 -4047.23828125 -4437.64404296875 L -4033.238037109375 -4437.64404296875 C -4032.429443359375 -4437.64404296875 -4031.6953125 -4437.32373046875 -4031.155517578125 -4436.80322265625 C -4031.1845703125 -4436.076171875 -4031.4765625 -4435.357421875 -4032.031982421875 -4434.8017578125 L -4038.116455078125 -4428.71728515625 C -4038.7021484375 -4428.1318359375 -4039.469970703125 -4427.8388671875 -4040.237548828125 -4427.8388671875 Z" stroke="none" fill="#fff"/>
    </g>
  </g>
</svg>