<svg xmlns="http://www.w3.org/2000/svg" width="23.228" height="24.515" viewBox="0 0 23.228 24.515"><defs><style>.a{fill:#ff8f2b;opacity:0.5;}</style></defs><g transform="translate(-941 -154.978)"><rect class="a" width="9" height="13" rx="1" transform="matrix(0.875, 0.485, -0.485, 0.875, 956.356, 155.023)"/><g transform="translate(919.039 154.979)"><g transform="translate(21.961 0)"><g transform="translate(0 0)"><path d="M42.431,4.222,34.947.169a1.578,1.578,0,0,0-2.071.621L28.5,8.925H23.174a1.2,1.2,0,0,0-1.213,1.213V23.3a1.2,1.2,0,0,0,1.213,1.213H40.183A1.2,1.2,0,0,0,41.4,23.3V20.225h.5a.467.467,0,0,0,.473-.473v-3.52a.467.467,0,0,0-.473-.473h-.5V12.3a1.234,1.234,0,0,0-.947-1.183l2.6-4.822A1.551,1.551,0,0,0,42.431,4.222Zm-5.325-1.8-4.674,8.667H31.1l5-9.2ZM33.734,1.234A.582.582,0,0,1,34.5,1l.74.414-5.206,9.673H28.41ZM22.878,10.109a.285.285,0,0,1,.266-.237h4.822l-.651,1.183H23.144a.819.819,0,0,0-.266.03ZM40.42,23.3a.265.265,0,0,1-.266.266H23.144a.265.265,0,0,1-.266-.266v-11a.265.265,0,0,1,.266-.266h16.98a.265.265,0,0,1,.266.266v3.461h-1.8a1.42,1.42,0,0,0-1.42,1.42v1.627a1.42,1.42,0,0,0,1.42,1.42H40.42Zm.947-6.6h.03v2.574h-2.81a.467.467,0,0,1-.473-.473V17.179a.467.467,0,0,1,.473-.473Zm.828-10.886-2.84,5.265H33.5l4.437-8.194L41.958,5.08A.517.517,0,0,1,42.194,5.819Z" transform="translate(-21.961 0)"/></g></g><g transform="translate(37.99 5.111)"><g transform="translate(0)"><path d="M241.11,69.374l-.237-.118a1.3,1.3,0,0,0-1.716.5l-.3.562a1.246,1.246,0,0,0-.089.976,1.191,1.191,0,0,0,.621.74l.237.118a1.347,1.347,0,0,0,.592.148,1.33,1.33,0,0,0,1.124-.651l.3-.562A1.326,1.326,0,0,0,241.11,69.374Zm-.325,1.272-.3.562a.334.334,0,0,1-.444.118l-.237-.148A.435.435,0,0,1,239.66,71a.223.223,0,0,1,.03-.237l.3-.562a.392.392,0,0,1,.3-.177.267.267,0,0,1,.148.03l.237.118A.46.46,0,0,1,240.784,70.646Z" transform="translate(-238.71 -69.108)"/></g></g></g></g></svg>