<svg xmlns="http://www.w3.org/2000/svg" width="28.024" height="21.094" viewBox="0 0 28.024 21.094"><defs><style>.a{fill:#091d2c;}</style></defs><g transform="translate(0 -7.434)"><path class="a" d="M34.058,48.69H15.318a1.4,1.4,0,0,1,0-2.8H34.057a1.4,1.4,0,0,1,0,2.8Z" transform="translate(-7.432 -20.533)"/><path class="a" d="M34.058,29.859H15.318a1.4,1.4,0,0,1,0-2.8H34.057a1.4,1.4,0,0,1,0,2.8Z" transform="translate(-7.432 -10.479)"/><path class="a" d="M34.058,11.028H15.318a1.4,1.4,0,0,1,0-2.8H34.057a1.4,1.4,0,0,1,0,2.8Z" transform="translate(-7.432 -0.426)"/><circle class="a" cx="1.878" cy="1.878" r="1.878" transform="translate(0 7.434)"/><circle class="a" cx="1.878" cy="1.878" r="1.878" transform="translate(0 16.103)"/><circle class="a" cx="1.878" cy="1.878" r="1.878" transform="translate(0 24.772)"/></g></svg>