<svg xmlns="http://www.w3.org/2000/svg" width="161.256" height="312.992" viewBox="0 0 161.256 312.992">
  <g id="Group_440" data-name="Group 440" transform="translate(-919 -401)">
    <g id="Group_385" data-name="Group 385" transform="translate(-19.777 191.978)">
      <g id="Group_369" data-name="Group 369" transform="translate(998.631 209.022)">
        <path id="Path_283" data-name="Path 283" d="M1032.663,231.184a3.706,3.706,0,0,0-4.265-2.47,6.278,6.278,0,0,0-1.915,1.208c-.846-6.042-2.922-12.567-7.809-15.39-10.215-5.905-22.24-.813-23.573,6.544-1.037,5.714-.578,12.029.368,18.083.4,2.581.883,5.121,1.383,7.54.05.258.107.507.155.759a10.082,10.082,0,0,0,1.032,3.128c2.146,3.662,8.218,5,12.156,5.049a16.264,16.264,0,0,0,12.915-6.071,18.064,18.064,0,0,0,3.919-11.469v-.038a7.908,7.908,0,0,0,2.419-.323,6.177,6.177,0,0,0,2.724-2.443A4.907,4.907,0,0,0,1032.663,231.184Z" transform="translate(-985.954 -208.356)" fill="#ff7145"/>
        <path id="Path_284" data-name="Path 284" d="M1015.867,218.9s3.486,14.267,10.182,13.4c0,0,4.464-5.029,7.4-1.754,0,0,4.042,5.807-4.837,8.217,0,0-6.035,5.589-.781,13.2,0,0,1.224,2.3.339,6.474s2.141,5.606,4.068,5.026,9.546-1.66,13.053-.851c0,0,3.091-8.7-3.546-14.193s-1.45-11.649-3.744-16.275-2.743-10.791-12.084-13.246c0,0,.768-10.3-10.9-9.864s-26.033,2.961-22.291,16.1c0,0,.554,9.254-.605,12.671s-6.429,8.851-3.907,12.145,2.792,5.786,1.646,9.158,13.327,9.442,22.612,3.171a53.527,53.527,0,0,0-.956-5.989,23.281,23.281,0,0,1-7.161-1.458,9.318,9.318,0,0,1-5.5-6.206,93.1,93.1,0,0,1-2.224-11.82s-.587-9.329-.432-11.048c0,0,10.05,3.649,19.963-6.855" transform="translate(-987.54 -209.022)" fill="#081c2b"/>
      </g>
      <g id="Group_378" data-name="Group 378" transform="translate(984.914 308.389)">
        <g id="Group_373" data-name="Group 373" transform="translate(33.275)">
          <path id="Path_285" data-name="Path 285" d="M1084.823,474.739c-.578-1.625-5.094-6.031-7.818-8.581h0l-43.226-66.844,2.58-95.077-12.81-11.647c-2.923.081-9.253-2.637-12.135-2.615-3.837,6-6.083,20.925-7.735,41.635a186.912,186.912,0,0,0,.281,21.594c.6,11.342,1.71,25.289,3.027,39.739a54.223,54.223,0,0,0,12.487,29.967c4.653,5.536,9.8,11.638,13.234,15.673,17.1,20.041,31.251,36.181,32.454,37.552l-.184.178s-6.348,12.165-14.906,15.357a1.4,1.4,0,0,0-.93,1.08,1.951,1.951,0,0,0,1.355,2.171,1.362,1.362,0,0,0,1.178-.06l31.851-16.81A2.716,2.716,0,0,0,1084.823,474.739Z" transform="translate(-1003.473 -289.975)" fill="#d85025"/>
          <g id="Group_371" data-name="Group 371" transform="translate(43.019 177.058)">
            <path id="Path_286" data-name="Path 286" d="M1077.3,441.517a4.71,4.71,0,0,1,.042.874,2.022,2.022,0,0,1-.026.361,4.736,4.736,0,0,1-.242,1.058,4.322,4.322,0,0,1-2.029,2.373l-31.5,17.014a3.36,3.36,0,0,1-2.655.238,2.889,2.889,0,0,1-.648-.265,3.04,3.04,0,0,1-.491-.326,3.288,3.288,0,0,1-.438-.43,3.359,3.359,0,0,1-.644-1.123,1.825,1.825,0,0,1-.134-.918c.183-1.095,18.218-9.431,26.2-13.076a9.286,9.286,0,0,0,5-5.729l2.328-7.345c2.057.74,3.735,3.562,4.853,6.033A4.967,4.967,0,0,1,1077.3,441.517Z" transform="translate(-1038.52 -434.222)" fill="#fff"/>
            <g id="Group_370" data-name="Group 370" transform="translate(1.233 7.295)">
              <path id="Path_287" data-name="Path 287" d="M1077.069,440.165a4.71,4.71,0,0,1,.042.874,2.022,2.022,0,0,1-.026.361l-36.421,20.683a2.889,2.889,0,0,1-.648-.265,3.04,3.04,0,0,1-.491-.326Z" transform="translate(-1039.525 -440.165)" fill="#450d20"/>
            </g>
          </g>
          <g id="Group_372" data-name="Group 372" transform="translate(23.596 111.618)" opacity="0.174">
            <path id="Path_288" data-name="Path 288" d="M1022.7,411.244l8.184-30.335L1027.2,416.56Z" transform="translate(-1022.697 -380.909)" fill="#450d20"/>
          </g>
        </g>
        <g id="Group_376" data-name="Group 376" transform="translate(0 12.558)">
          <path id="Path_289" data-name="Path 289" d="M1044.43,300.206l-14.376,6.152L999.061,489.941c-1.952,1.517-11.612,6.976-20.047,6.585a1.447,1.447,0,0,0-1.323.651,2.018,2.018,0,0,0,.408,2.615,1.406,1.406,0,0,0,1.146.421l37.115-1.381a2.808,2.808,0,0,0,2.575-2.624,23.47,23.47,0,0,0-1.29-8.644c1.2-4.6,31.9-121.746,40.3-147.076C1066.322,315.253,1044.43,300.206,1044.43,300.206Z" transform="translate(-976.133 -300.206)" fill="#ff7145"/>
          <g id="Group_375" data-name="Group 375" transform="translate(0 188.728)">
            <path id="Path_290" data-name="Path 290" d="M1020.057,461.561a4.4,4.4,0,0,1-.286,1.322,3.739,3.739,0,0,1-.341.762c-.063.109-.136.218-.21.328a5.393,5.393,0,0,1-.686.8,4.408,4.408,0,0,1-2.9,1.157l-35.8.366a3.435,3.435,0,0,1-2.867-1.5c-.011-.021-.033-.043-.044-.064a3.112,3.112,0,0,1-.441-1.005c-.012-.033-.012-.054-.023-.086a3.316,3.316,0,0,1-.048-1.3,1.765,1.765,0,0,1,.318-.87c.663-.887,20.507.149,29.27.647a9.377,9.377,0,0,0,7.09-2.74l5.484-5.417C1020.048,455.573,1020.209,458.85,1020.057,461.561Z" transform="translate(-976.364 -453.961)" fill="#fff"/>
            <g id="Group_374" data-name="Group 374" transform="translate(0.115 8.922)">
              <path id="Path_291" data-name="Path 291" d="M1019.749,461.23a3.739,3.739,0,0,1-.341.762c-.063.109-.136.218-.21.328l-42.255.827c-.011-.021-.033-.043-.044-.064a3.112,3.112,0,0,1-.441-1.005Z" transform="translate(-976.458 -461.23)" fill="#450d20"/>
            </g>
          </g>
        </g>
        <g id="Group_377" data-name="Group 377" transform="translate(28.224 15.543)">
          <path id="Path_292" data-name="Path 292" d="M1003.113,309.356l43.172-6.718s19.242,13.145,10.275,39.641-14.761,42.874-14.761,42.874L999.358,383.9S1001.359,327.46,1003.113,309.356Z" transform="translate(-999.358 -302.638)" fill="#0f76ea"/>
        </g>
      </g>
      <g id="Group_384" data-name="Group 384" transform="translate(938.777 238.76)">
        <g id="Group_379" data-name="Group 379" transform="translate(68.924)">
          <path id="Path_293" data-name="Path 293" d="M1044.513,261.662a10.653,10.653,0,0,0-7.037-2.514,15.051,15.051,0,0,1-6.1-1.181c-3.977-7.434-4.4-22.572-4.44-24.514,0-.071,0-.134,0-.2l-18.148,15.4a5.519,5.519,0,0,1,1.051,2.124v.007a25.3,25.3,0,0,1,.767,6.318c.01.491.01.968.006,1.431-2.083,3.248-5.238,4.268-9.946,7.328-6.623,4.3-6.912,16-3.892,27.453s9.2,28.662,9.2,28.662l34.845-1.68c-1.5-10.431,5.284-25.823,7.621-43.11C1049.612,268.543,1047.209,264.023,1044.513,261.662Z" transform="translate(-994.929 -233.249)" fill="#ff7145"/>
        </g>
        <path id="Path_294" data-name="Path 294" d="M1009.959,255s6.69,8.131,21.536-1.614c0,0,16.482-.86,17.372,10.163s-8.46,37.818-6.661,52.025c0,0-23.1,6.654-38.612,3.776,0,0-10.512-36.864-9.059-47.654S1003.306,259.37,1009.959,255Z" transform="translate(-926.125 -228.671)" fill="#ffb24a"/>
        <g id="Group_381" data-name="Group 381" transform="translate(0 30.622)">
          <path id="Path_295" data-name="Path 295" d="M1025.392,265.736c-1.447-6.911-8.961-9.839-12.38-4.928a25.812,25.812,0,0,0-3.018,6.206c-2.482,7.033-8.512,21.19-14.545,34.924a401.077,401.077,0,0,1-37.9-17.344,18.771,18.771,0,0,1-2-7.256c.011-4.467-3.333.454-3.7,3.778,0,0-12.171-6.65-13-5.833s6.688,5.891,7.706,6.639c0,0-2.554,2.595-2.435,5.127.1,2,3.172,3.567,6.96,4.015l0,0c11.039,11.512,25.616,20.6,37.453,26.507q1.808.9,3.588,1.732c6.318,2.951,12.839.987,16.211-4.771,1.239-2.115,2.4-4.24,3.491-6.35a203.547,203.547,0,0,0,12.775-32.108A20.141,20.141,0,0,0,1025.392,265.736Z" transform="translate(-938.777 -258.158)" fill="#d85025"/>
          <path id="Path_296" data-name="Path 296" d="M1007.027,261.449c-4.442,5.042-9.762,14.748-14.976,33.189,0,0-13.949-3.026-20.629-8.245,0,0-14.781,22.059-14.661,27.031,0,0,35.2,10.619,42.221,7.991s25.775-48.226,25-51.973c-.217-1.051-.365-2.229-.587-3.465A9.4,9.4,0,0,0,1007.027,261.449Z" transform="translate(-934.686 -258.197)" fill="#ffb24a"/>
          <g id="Group_380" data-name="Group 380" transform="translate(69.363 15.332)">
            <path id="Path_297" data-name="Path 297" d="M995.292,270.687s-.365,27.343,4.381,34.688l.7-1.281S995.7,281.345,995.292,270.687Z" transform="translate(-995.286 -270.687)" fill="#ff744a"/>
          </g>
        </g>
        <g id="Group_383" data-name="Group 383" transform="translate(53.69 25.913)">
          <path id="Path_298" data-name="Path 298" d="M1061.837,306.576c-.232-2.44-.53-4.844-.88-7.193a203.522,203.522,0,0,0-8.409-33.517,20.138,20.138,0,0,0-5.393-8.861c-5.215-4.76-13.022-2.743-12.925,3.24a25.871,25.871,0,0,0,1.18,6.8c2.1,7.156,5.484,22.167,8.62,36.837a400.223,400.223,0,0,1-40.892,8.09,18.746,18.746,0,0,1-5.861-4.718c-2.6-3.63-2.438,2.316-.8,5.23,0,0-13.762,1.722-13.96,2.872s8.871.868,10.134.88c0,0-.556,3.6,1.022,5.583,1.248,1.57,4.658,1.04,7.993-.811v0c15.686,2.886,32.825,1.734,45.884-.394q1.992-.326,3.923-.694C1058.325,318.625,1062.468,313.219,1061.837,306.576Z" transform="translate(-982.517 -254.36)" fill="#ff7145"/>
          <path id="Path_299" data-name="Path 299" d="M1024.608,263.511c-.254,6.714,1.759,17.6,9.379,35.183,0,0-12.72,6.474-21.2,6.654,0,0,2.494,26.435,5.731,30.212,0,0,33.988-14.027,37.764-20.5s-10.517-53.661-13.485-56.077c-.831-.678-1.692-1.5-2.644-2.314A9.4,9.4,0,0,0,1024.608,263.511Z" transform="translate(-975.632 -254.36)" fill="#ffb24a"/>
          <g id="Group_382" data-name="Group 382" transform="translate(36.531 18.451)">
            <path id="Path_300" data-name="Path 300" d="M1013.157,305.779l-.878-4.219,21.055-6.61c-1.526-3.045-8.328-17.1-8.328-25.558h1.079c0,9.062,8.412,25.47,8.5,25.634l.293.57-21.341,6.7.677,3.263Z" transform="translate(-1012.279 -269.392)" fill="#ff744a"/>
          </g>
        </g>
      </g>
    </g>
    <path id="Path_373" data-name="Path 373" d="M1.289,3.48A1.326,1.326,0,0,1,0,2.118L.023,1.29A1.327,1.327,0,0,1,1.348,0h.037a1.326,1.326,0,0,1,1.29,1.362l-.023.828A1.325,1.325,0,0,1,1.289,3.48Zm0,0" transform="matrix(-0.998, 0.07, -0.07, -0.998, 1007.245, 428.911)" fill="#091d2c"/>
    <path id="Path_374" data-name="Path 374" d="M1.29,3.48A1.327,1.327,0,0,1,0,2.118L.023,1.29A1.326,1.326,0,0,1,1.348,0h.037a1.326,1.326,0,0,1,1.29,1.362l-.023.828A1.325,1.325,0,0,1,1.29,3.48Zm0,0" transform="matrix(-0.998, 0.07, -0.07, -0.998, 994.7, 429.788)" fill="#091d2c"/>
    <path id="Path_375" data-name="Path 375" d="M7.373,4.484A3.257,3.257,0,0,0,4.612,2.653,3.256,3.256,0,0,0,1.852,4.484a.883.883,0,0,1-1.429.3A1.6,1.6,0,0,1,.194,2.928,5.209,5.209,0,0,1,4.612,0,5.209,5.209,0,0,1,9.03,2.928,1.6,1.6,0,0,1,8.8,4.78.882.882,0,0,1,7.373,4.484Zm0,0" transform="matrix(-0.998, 0.07, -0.07, -0.998, 1004.751, 436.441)" fill="#091d2c"/>
  </g>
</svg>
