<svg xmlns="http://www.w3.org/2000/svg" width="85.603" height="101.273" viewBox="0 0 85.603 101.273"><defs><style>.a{fill:#e95454;}.b{fill:#ed6362;}.c{fill:#ffcc5b;}.d{fill:#fdbc4b;}.e{fill:#ffdb70;}.f{fill:#fff;opacity:0.2;}.g{fill:#ec9922;}</style></defs><g transform="translate(-39.592)"><path class="a" d="M61.708,221.248,39.592,262.916l20.084-1.855,9.72,17.674,22.116-41.668Z" transform="translate(0 -177.465)"/><g transform="translate(57.863 43.783)"><path class="b" d="M138.3,294.018a2.824,2.824,0,0,0-1.327-3.616l-1.273-.678a2.722,2.722,0,0,1,2.618-4.772l3.6,1.909a2.27,2.27,0,0,0,3.078-.956l.089-.171a2.147,2.147,0,0,0-.826-3.027L133.5,277a2.833,2.833,0,0,1-1.342-3.619,2.729,2.729,0,0,1,3.749-1.254l9.98,5.3a2.3,2.3,0,0,0,3.093-.95l.057-.146.016-.032a2.39,2.39,0,0,0-.985-3.252l-5.6-2.97a2.833,2.833,0,0,1-1.333-3.635,2.74,2.74,0,0,1,3.749-1.254l6.184,3.283a2.309,2.309,0,0,0,3.135-1.064.146.146,0,0,0,.016-.032.148.148,0,0,0,.016-.032,2.305,2.305,0,0,0-.877-3.192l-6.671-3.54a2.826,2.826,0,0,1-1.327-3.61,2.729,2.729,0,0,1,3.749-1.254l16.458,8.736-22.116,41.668-6.1-11.079A2.591,2.591,0,0,0,138.3,294.018Z" transform="translate(-131.92 -248.664)"/><path class="b" d="M239.6,221.248l22.116,41.668-20.084-1.855-9.72,17.674L209.8,237.067Z" transform="translate(-194.388 -221.248)"/></g><path class="a" d="M237.084,294.03a2.824,2.824,0,0,1,1.327-3.616l1.273-.678a2.722,2.722,0,0,0-2.618-4.772l-3.6,1.909a2.27,2.27,0,0,1-3.078-.956l-.089-.171a2.147,2.147,0,0,1,.826-3.027l10.762-5.712a2.833,2.833,0,0,0,1.342-3.619,2.729,2.729,0,0,0-3.749-1.254l-9.98,5.3a2.3,2.3,0,0,1-3.093-.95l-.057-.146-.016-.032a2.39,2.39,0,0,1,.985-3.252l5.6-2.97a2.833,2.833,0,0,0,1.333-3.635A2.74,2.74,0,0,0,230.5,265.2l-6.19,3.29a2.309,2.309,0,0,1-3.135-1.064,91.746,91.746,0,0,0-.032-.063,2.305,2.305,0,0,1,.877-3.192l6.671-3.54a2.826,2.826,0,0,0,1.327-3.61,2.729,2.729,0,0,0-3.749-1.254L209.816,264.5l22.116,41.668,6.1-11.079A2.636,2.636,0,0,1,237.084,294.03Z" transform="translate(-136.538 -204.893)"/><circle class="c" cx="36.954" cy="36.954" r="36.954" transform="translate(45.44 0)"/><path class="d" d="M111.546,43.956H88.128a3.328,3.328,0,0,1-3.315-3.315l.025-.228v-.051a3.461,3.461,0,0,1,3.467-3.492h16.23a4.105,4.105,0,0,0,4.176-3.746,3.968,3.968,0,0,0-3.948-4.151H87.571a3.347,3.347,0,0,1-3.29-3.492v-.1a3.346,3.346,0,0,1,3.29-3.492h17.991a4.1,4.1,0,0,0,4.151-3.72,3.954,3.954,0,0,0-3.948-4.151H92.59a36.949,36.949,0,0,0,0,68.35H109.32a4.1,4.1,0,0,0,4.151-3.72,3.951,3.951,0,0,0-3.948-4.148l-19.029,0a3.937,3.937,0,0,1-3.933-4.151,4.089,4.089,0,0,1,4.154-3.727h7.377a3.943,3.943,0,0,0-.114-7.884H86.8a3.288,3.288,0,0,1-3.29-3.315V55.14a3.114,3.114,0,0,1,3.112-3.315h24.7a4.1,4.1,0,0,0,4.176-3.72A3.955,3.955,0,0,0,111.546,43.956Z" transform="translate(-24.14 -11.242)"/><path class="e" d="M148.962,106.193A26.377,26.377,0,1,1,175.34,79.818,26.409,26.409,0,0,1,148.962,106.193Z" transform="translate(-66.569 -42.865)"/><path class="f" d="M259.325,80.126a26.39,26.39,0,0,0-24.865-26.3H232a3.126,3.126,0,0,0-3.166,2.837,3.017,3.017,0,0,0,3.011,3.166l14.514,0a3,3,0,0,1,3,3.166,3.119,3.119,0,0,1-3.169,2.843h-5.626a3.007,3.007,0,0,0,.085,6.013h8.53a2.507,2.507,0,0,1,2.508,2.527v.209a2.373,2.373,0,0,1-2.375,2.527H230.477a3.131,3.131,0,0,0-3.185,2.837,3.017,3.017,0,0,0,3.011,3.166h17.858a2.536,2.536,0,0,1,2.527,2.527l-.019.174v.038a2.64,2.64,0,0,1-2.644,2.663h-12.38a3.133,3.133,0,0,0-3.185,2.856,3.028,3.028,0,0,0,3.011,3.166h13.112a2.552,2.552,0,0,1,2.508,2.663v.076a2.552,2.552,0,0,1-2.508,2.663H234.862a3.126,3.126,0,0,0-3.166,2.837,3.015,3.015,0,0,0,3.011,3.166h3.619A26.421,26.421,0,0,0,259.325,80.126Z" transform="translate(-150.553 -43.173)"/><path class="g" d="M192.737,102.99h-12.83l-3.967-12.2a1.7,1.7,0,0,0-3.239,0l-3.964,12.2h-12.83a1.7,1.7,0,0,0-1,3.081l10.379,7.542-3.964,12.2a1.7,1.7,0,0,0,2.622,1.9l10.379-7.542,10.379,7.542a1.7,1.7,0,0,0,2.622-1.9l-3.964-12.2,10.379-7.542A1.7,1.7,0,0,0,192.737,102.99Z" transform="translate(-91.928 -71.878)"/></g></svg>