<svg xmlns="http://www.w3.org/2000/svg" width="53.119" height="39.004" viewBox="0 0 53.119 39.004">
  <g id="icon_1_" data-name="icon (1)" transform="translate(0 -77.01)">
    <g id="Group_598" data-name="Group 598" transform="translate(0 77.01)">
      <path id="Path_909" data-name="Path 909" d="M53.119,87.144,26.783,77.01,0,87.144,26.783,95.83Z" transform="translate(0 -77.01)" fill="#ec7338"/>
      <path id="Path_910" data-name="Path 910" d="M150.053,242.436v-7.462l-15.869,5.29-15.7-5.29v7.406c8.352.167,15.785,5.066,15.785,5.066C142.926,241.99,150.053,242.436,150.053,242.436Z" transform="translate(-107.625 -220.497)" fill="#ec7338"/>
      <path id="Path_911" data-name="Path 911" d="M479.059,236.015v10.718h3.062V236.015a1.33,1.33,0,0,0-.653-1.143,1.523,1.523,0,0,0-.214-2.625l0-.018V220.918l-1.336.425v10.831l.038.055a1.526,1.526,0,0,0-.249,2.644A1.333,1.333,0,0,0,479.059,236.015Z" transform="translate(-435.155 -207.73)" fill="#ec7338"/>
    </g>
  </g>
</svg>
