<svg xmlns="http://www.w3.org/2000/svg" width="63.443" height="73.207" viewBox="0 0 63.443 73.207"><defs><style>.a{fill:#78b9eb;}.b{fill:#006df0;}</style></defs><g transform="translate(-0.012 0.002)"><path class="a" d="M147.738,19.07h12.2c0-8.272,3.44-10.822,3.648-10.968l-9.748,3.648L144.09,8.1C144.3,8.248,147.738,10.8,147.738,19.07Zm0,0" transform="translate(-122.105 -6.868)"/><path class="a" d="M47.285,125.777a3.1,3.1,0,0,1-.988-.476,3.551,3.551,0,0,1-1.684.415h-12.2a3.552,3.552,0,0,1-1.684-.415,3.1,3.1,0,0,1-.988.476A30.517,30.517,0,0,0,8.012,155c0,16.849,13.652,23.181,30.5,23.181s30.5-6.332,30.5-23.181A30.518,30.518,0,0,0,47.285,125.777ZM38.513,167.2a14.641,14.641,0,1,1,14.641-14.641A14.641,14.641,0,0,1,38.513,167.2Zm0,0" transform="translate(-6.78 -106.194)"/><g transform="translate(0.012 -0.003)"><path class="b" d="M119.873,231.741a15.861,15.861,0,1,0-15.861-15.861A15.861,15.861,0,0,0,119.873,231.741Zm0-29.281a13.421,13.421,0,1,1-13.421,13.421A13.421,13.421,0,0,1,119.873,202.46Zm0,0" transform="translate(-88.151 -169.515)"/><path class="b" d="M164.892,249.1a2.44,2.44,0,0,1-2.44-2.44h-2.44a4.88,4.88,0,0,0,4.88,4.88h1.22v2.44h2.44v-2.44h1.22a4.88,4.88,0,0,0,0-9.76h-1.22V236.9h1.22a2.44,2.44,0,0,1,2.44,2.44h2.44a4.88,4.88,0,0,0-4.88-4.88h-1.22v-2.44h-2.44v2.44h-1.22a4.88,4.88,0,1,0,0,9.76h1.22v4.88Zm0-7.32a2.44,2.44,0,0,1,0-4.88h1.22v4.88Zm3.66,2.44h1.22a2.44,2.44,0,0,1,0,4.88h-1.22Zm0,0" transform="translate(-135.61 -196.634)"/><path class="b" d="M41.763,18.729a4.839,4.839,0,0,0,.951-2.867h6.71a4.27,4.27,0,1,0,0-8.54h-.61v2.44h.61a1.83,1.83,0,1,1,0,3.66H42.035a4.872,4.872,0,0,0-2.955-2.258c.266-6.813,3.076-8.916,3.09-8.927A1.22,1.22,0,0,0,41.064.078l-9.331,3.5L22.4.078a1.22,1.22,0,0,0-1.121,2.148c.03.02,2.839,2.125,3.106,8.938A4.864,4.864,0,0,0,22.434,12.2H18.028a3.66,3.66,0,0,0,0,7.32v-2.44a1.22,1.22,0,0,1,0-2.44h2.9a4.677,4.677,0,0,0,.776,4.086A31.921,31.921,0,0,0,.012,48.8c0,15.507,11.562,24.4,31.722,24.4S63.455,64.31,63.455,48.8A31.919,31.919,0,0,0,41.763,18.729ZM31.3,6.024a1.237,1.237,0,0,0,.854,0l6.021-2.26a19.314,19.314,0,0,0-1.536,7.217H32.953V8.541h-2.44v2.44h-3.69a19.319,19.319,0,0,0-1.541-7.217Zm-5.671,7.4h12.2a2.44,2.44,0,0,1,0,4.88h-12.2a2.44,2.44,0,0,1,0-4.88Zm6.1,57.343C20.8,70.764,2.452,67.912,2.452,48.8A29.47,29.47,0,0,1,23.307,20.752a4.855,4.855,0,0,0,.716-.3,4.82,4.82,0,0,0,1.61.294h12.2a4.847,4.847,0,0,0,1.609-.294,5.141,5.141,0,0,0,.712.3A29.471,29.471,0,0,1,61.015,48.8C61.015,67.912,42.669,70.764,31.733,70.764Zm0,0" transform="translate(-0.012 0.003)"/><path class="b" d="M83.254,320.02c0,14.118-13.269,17.081-24.4,17.081s-24.4-2.963-24.4-17.081h-2.44c0,12.771,9.281,19.521,26.841,19.521s26.841-6.75,26.841-19.521Zm0,0" transform="translate(-27.131 -271.214)"/></g></g></svg>