<svg xmlns="http://www.w3.org/2000/svg" width="104.09" height="94.627" viewBox="0 0 104.09 94.627"><defs><style>.a{fill:#e95454;}.b{fill:#d44;}.c{fill:#ed6362;}.d{fill:#ffca5d;}.e{fill:#f6b545;}.f{fill:#ffcb5b;}.g{fill:#ffe27a;}.h{fill:#f19920;}.i{fill:#e78825;}</style></defs><g transform="translate(0 -23.272)"><path class="a" d="M99.358,84.78H4.731A4.745,4.745,0,0,1,0,80.048V28a4.745,4.745,0,0,1,4.731-4.731H99.358A4.745,4.745,0,0,1,104.09,28V80.048A4.746,4.746,0,0,1,99.358,84.78Z" transform="translate(0 0)"/><path class="b" d="M283.141,232.727a15.833,15.833,0,0,0-13.248,6.86,17.645,17.645,0,0,0-8.043-2.129,16.552,16.552,0,0,0-16.323,14.194H294.97a4.812,4.812,0,0,0,4.731-4.022A16.851,16.851,0,0,0,283.141,232.727Z" transform="translate(-195.611 -166.873)"/><path class="c" d="M108.437,98.591h-75.7a9.49,9.49,0,0,0-9.463-9.463V56.009a9.49,9.49,0,0,0,9.463-9.463h75.7a9.49,9.49,0,0,0,9.463,9.463V89.128A9.49,9.49,0,0,0,108.437,98.591Z" transform="translate(-18.542 -18.542)"/><g transform="translate(18.925 32.735)"><path class="b" d="M288.7,232.727a15.833,15.833,0,0,0-13.248,6.86,17.646,17.646,0,0,0-8.043-2.129,16.251,16.251,0,0,0-14.9,9.463H291.07a9.441,9.441,0,0,1,9.226-9.463A17.1,17.1,0,0,0,288.7,232.727Z" transform="translate(-220.099 -199.608)"/><ellipse class="a" cx="18.925" cy="21.291" rx="18.925" ry="21.291" transform="translate(14.194 0)"/><circle class="a" cx="4.731" cy="4.731" r="4.731" transform="translate(0 16.56)"/><circle class="a" cx="4.731" cy="4.731" r="4.731" transform="translate(56.776 16.56)"/></g><path class="c" d="M221.283,116.557h-4.731a2.366,2.366,0,0,1,0-4.731h7.1a2.366,2.366,0,1,0,0-4.731h-2.366a2.366,2.366,0,1,0-4.731,0,7.1,7.1,0,1,0,0,14.194h4.731a2.366,2.366,0,1,1,0,4.731h-7.1a2.366,2.366,0,0,0,0,4.731h2.366a2.366,2.366,0,0,0,4.731,0,7.1,7.1,0,0,0,0-14.194Z" transform="translate(-166.873 -64.897)"/><circle class="d" cx="16.56" cy="16.56" r="16.56" transform="translate(44.948 70.586)"/><circle class="e" cx="16.56" cy="16.56" r="16.56" transform="translate(66.239 65.854)"/><path class="f" d="M342.378,232.727a16.56,16.56,0,1,0,16.56,16.56A16.458,16.458,0,0,0,342.378,232.727Zm0,28.388a11.828,11.828,0,1,1,11.828-11.828A11.714,11.714,0,0,1,342.378,261.115Z" transform="translate(-259.579 -166.873)"/><path class="e" d="M407.273,330.505h0a16.259,16.259,0,0,0,16.56-16.323H423.6a2.516,2.516,0,0,0-2.366,2.129,14.3,14.3,0,0,1-4.495,8.516,13.4,13.4,0,0,1-7.334,3.548A2.12,2.12,0,0,0,407.273,330.505Z" transform="translate(-324.474 -231.768)"/><path class="g" d="M342.378,233.87h0a16.259,16.259,0,0,0-16.56,16.323h.237a2.515,2.515,0,0,0,2.366-2.129,14.3,14.3,0,0,1,4.495-8.516A13.4,13.4,0,0,1,340.249,236,2.12,2.12,0,0,0,342.378,233.87Z" transform="translate(-259.579 -167.779)"/><path class="h" d="M350.747,269.484a11.713,11.713,0,0,1,11.828-11.828,11.158,11.158,0,0,1,7.57,2.839,11.792,11.792,0,0,0-21.054,7.334,11.342,11.342,0,0,0,4.258,8.99A11.1,11.1,0,0,1,350.747,269.484Z" transform="translate(-278.121 -185.414)"/><path class="f" d="M438.01,316.88a.869.869,0,0,1-.71-.237,1.143,1.143,0,0,1,0-1.656,7.9,7.9,0,0,0,2.129-5.441,1.183,1.183,0,0,1,2.366,0,10.924,10.924,0,0,1-2.6,7.1A2.572,2.572,0,0,1,438.01,316.88Z" transform="translate(-348.115 -227.133)"/><g transform="translate(66.475 70.586)"><path class="h" d="M398,293.468a2.235,2.235,0,0,1-2.366-2.366V281.64a2.366,2.366,0,1,1,4.731,0V291.1A2.235,2.235,0,0,1,398,293.468Z" transform="translate(-381.679 -274.542)"/><path class="h" d="M352.057,281.786A19.221,19.221,0,0,0,340.7,269.011,19.778,19.778,0,0,0,331.712,256a17.1,17.1,0,0,0-4.731,11.592,16.458,16.458,0,0,0,16.56,16.56A13.72,13.72,0,0,0,352.057,281.786Z" transform="translate(-326.981 -256)"/></g><g transform="translate(70.97 73.661)"><path class="i" d="M353.348,288.87a12.444,12.444,0,0,1-2.839-7.57,11.452,11.452,0,0,1,3.785-8.516,10.284,10.284,0,0,0-1.419-1.656,11.59,11.59,0,0,0-3.785,8.753A11.342,11.342,0,0,0,353.348,288.87Z" transform="translate(-349.09 -271.128)"/><path class="i" d="M395.636,321.164v3.312a2.366,2.366,0,1,0,4.731,0V324A19.328,19.328,0,0,0,395.636,321.164Z" transform="translate(-386.173 -310.992)"/></g><path class="e" d="M351.131,282.712a15.121,15.121,0,0,0-1.893-4.495,11.448,11.448,0,0,1-6.86,2.366,11.714,11.714,0,0,1-11.828-11.828A11.59,11.59,0,0,1,334.334,260a14.432,14.432,0,0,0-3.785-2.839,17.1,17.1,0,0,0-4.731,11.592,16.458,16.458,0,0,0,16.56,16.56A15.86,15.86,0,0,0,351.131,282.712Z" transform="translate(-259.579 -186.34)"/><path class="h" d="M415.315,372.364a16.352,16.352,0,0,1-5.914,2.366,2.516,2.516,0,0,0-2.129,2.366h0a15.864,15.864,0,0,0,8.753-2.6Z" transform="translate(-324.474 -278.122)"/><path class="f" d="M330.549,257.164a17.1,17.1,0,0,0-4.731,11.592h.237a2.516,2.516,0,0,0,2.366-2.129,14.72,14.72,0,0,1,4.258-8.28A9.6,9.6,0,0,1,330.549,257.164Z" transform="translate(-259.579 -186.342)"/><circle class="e" cx="16.56" cy="16.56" r="16.56" transform="translate(44.948 70.586)"/><path class="h" d="M290.909,330.741a16.4,16.4,0,0,0,.71,4.731h1.656a16.5,16.5,0,0,0,15.85-21.291h-1.656A16.458,16.458,0,0,0,290.909,330.741Z" transform="translate(-231.767 -231.767)"/><path class="f" d="M237.65,256a16.56,16.56,0,1,0,16.56,16.56A16.458,16.458,0,0,0,237.65,256Zm0,28.388a11.828,11.828,0,1,1,11.828-11.828A11.713,11.713,0,0,1,237.65,284.388Z" transform="translate(-176.142 -185.414)"/><path class="e" d="M302.545,353.778h0a16.259,16.259,0,0,0,16.56-16.323h-.237a2.516,2.516,0,0,0-2.366,2.129,14.3,14.3,0,0,1-4.495,8.516,13.4,13.4,0,0,1-7.334,3.549A2.12,2.12,0,0,0,302.545,353.778Z" transform="translate(-241.038 -250.31)"/><path class="g" d="M237.65,257.143h0a16.259,16.259,0,0,0-16.56,16.323h.237a2.516,2.516,0,0,0,2.366-2.129,14.3,14.3,0,0,1,4.495-8.516,13.4,13.4,0,0,1,7.334-3.549A2.12,2.12,0,0,0,237.65,257.143Z" transform="translate(-176.142 -186.321)"/><path class="h" d="M246.019,292.757a11.713,11.713,0,0,1,11.828-11.828,11.158,11.158,0,0,1,7.57,2.839,11.792,11.792,0,0,0-21.055,7.334,11.342,11.342,0,0,0,4.258,8.99A11.1,11.1,0,0,1,246.019,292.757Z" transform="translate(-194.684 -203.956)"/><path class="f" d="M333.283,340.152a.869.869,0,0,1-.71-.237,1.143,1.143,0,0,1,0-1.656,7.9,7.9,0,0,0,2.129-5.441,1.183,1.183,0,1,1,2.366,0,10.924,10.924,0,0,1-2.6,7.1A2.572,2.572,0,0,1,333.283,340.152Z" transform="translate(-264.679 -245.674)"/><path class="h" d="M293.275,316.741a2.235,2.235,0,0,1-2.366-2.366v-9.463a2.366,2.366,0,1,1,4.731,0v9.463A2.235,2.235,0,0,1,293.275,316.741Z" transform="translate(-231.767 -222.498)"/><g transform="translate(56.776 82.414)"><path class="e" d="M304.158,314.418a13.835,13.835,0,0,1,.946,4.495,11.713,11.713,0,0,1-11.828,11.828,8.045,8.045,0,0,1-2.366-.237v.237a16.4,16.4,0,0,0,.71,4.731h1.656a16.5,16.5,0,0,0,15.85-21.291H307.47A15.642,15.642,0,0,0,304.158,314.418Z" transform="translate(-288.544 -314.181)"/><circle class="e" cx="16.56" cy="16.56" r="16.56" transform="translate(0 2.366)"/></g><path class="f" d="M295.832,325.818a16.56,16.56,0,1,0,16.56,16.56A16.458,16.458,0,0,0,295.832,325.818Zm0,28.388a11.828,11.828,0,1,1,11.828-11.828A11.714,11.714,0,0,1,295.832,354.206Z" transform="translate(-222.496 -241.038)"/><path class="e" d="M360.727,423.6h0a16.259,16.259,0,0,0,16.56-16.323h-.237a2.515,2.515,0,0,0-2.366,2.129,14.3,14.3,0,0,1-4.495,8.516,13.4,13.4,0,0,1-7.334,3.549A2.12,2.12,0,0,0,360.727,423.6Z" transform="translate(-287.391 -305.934)"/><path class="g" d="M295.832,326.961h0a16.259,16.259,0,0,0-16.56,16.323h.237a2.516,2.516,0,0,0,2.366-2.129,14.3,14.3,0,0,1,4.495-8.516,13.4,13.4,0,0,1,7.334-3.549A2.12,2.12,0,0,0,295.832,326.961Z" transform="translate(-222.496 -241.945)"/><path class="h" d="M304.2,362.575a11.713,11.713,0,0,1,11.828-11.828,11.158,11.158,0,0,1,7.57,2.839,11.792,11.792,0,0,0-21.055,7.334,11.342,11.342,0,0,0,4.258,8.99A11.1,11.1,0,0,1,304.2,362.575Z" transform="translate(-241.038 -259.58)"/><path class="f" d="M391.464,409.97a.869.869,0,0,1-.71-.237,1.143,1.143,0,0,1,0-1.656,7.9,7.9,0,0,0,2.129-5.441,1.183,1.183,0,0,1,2.366,0,10.924,10.924,0,0,1-2.6,7.1A2.571,2.571,0,0,1,391.464,409.97Z" transform="translate(-311.031 -301.298)"/><path class="h" d="M351.457,386.558a2.235,2.235,0,0,1-2.366-2.366V374.73a2.366,2.366,0,0,1,4.731,0v9.463A2.235,2.235,0,0,1,351.457,386.558Z" transform="translate(-278.121 -278.122)"/></g></svg>