<svg xmlns="http://www.w3.org/2000/svg" width="16.158" height="17" viewBox="0 0 16.158 17"><defs><style>.a{fill:#16476a;}</style></defs><g transform="translate(-11.95)"><g transform="translate(11.95)"><path class="a" d="M25.6,3.485h-.437V2.512A2.516,2.516,0,0,0,22.647,0H17.372A2.516,2.516,0,0,0,14.86,2.512v.972h-.4A2.516,2.516,0,0,0,11.95,6v4.052a2.516,2.516,0,0,0,2.512,2.512h.395v3.185A1.257,1.257,0,0,0,16.111,17H23.9a1.257,1.257,0,0,0,1.254-1.254V12.561h.44a2.516,2.516,0,0,0,2.512-2.512V6A2.516,2.516,0,0,0,25.6,3.485Zm-9.788-.972A1.564,1.564,0,0,1,17.369.951H22.64A1.564,1.564,0,0,1,24.2,2.512v.972H15.808Zm8.4,13.241a.305.305,0,0,1-.3.3h-7.79a.305.305,0,0,1-.3-.3V10.5h8.4Zm2.953-5.7A1.564,1.564,0,0,1,25.6,11.613h-.437V10.5h.627a.476.476,0,0,0,0-.951H14.159a.476.476,0,1,0,0,.951h.7v1.113h-.4A1.564,1.564,0,0,1,12.9,10.052V6a1.564,1.564,0,0,1,1.561-1.561H25.6A1.564,1.564,0,0,1,27.157,6Z" transform="translate(-11.95)"/><path class="a" d="M141.126,338.351h6.057a.476.476,0,0,0,0-.951h-6.057a.476.476,0,0,0,0,.951Z" transform="translate(-136.115 -325.512)"/><path class="a" d="M148.186,392.6h-6.06a.476.476,0,1,0,0,.951h6.057a.476.476,0,0,0,0-.951Z" transform="translate(-137.08 -378.767)"/><path class="a" d="M359.491,151.9h-.965a.476.476,0,1,0,0,.951h.965a.476.476,0,1,0,0-.951Z" transform="translate(-345.856 -146.548)"/></g></g></svg>