<svg xmlns="http://www.w3.org/2000/svg" width="36.543" height="36.543" viewBox="0 0 36.543 36.543"><defs><style>.a{fill:#fff;}</style></defs><g transform="translate(-0.004)"><g transform="translate(5.713)"><path class="a" d="M92.554,0a12.562,12.562,0,1,0,12.562,12.562A12.575,12.575,0,0,0,92.554,0Zm6.6,10.785L96.987,13.5l.238,3.552a1.136,1.136,0,0,1-.48,1.007,1.151,1.151,0,0,1-.662.21,1.119,1.119,0,0,1-.445-.091l-3.083-1.309L89.473,18.18a1.142,1.142,0,0,1-1.587-1.126l.238-3.552-2.17-2.718a1.142,1.142,0,0,1,.6-1.818l3.239-.847,1.777-2.992a1.184,1.184,0,0,1,1.962,0L95.31,8.119l3.241.847a1.144,1.144,0,0,1,.605,1.818Z" transform="translate(-79.992)"/></g><g transform="translate(0.004 19.968)"><path class="a" d="M5.427,279.776.156,288.928A1.143,1.143,0,0,0,1.442,290.6l6.706-1.8,1.784,6.706a1.145,1.145,0,0,0,.952.838c.05,0,.1.007.151.007a1.142,1.142,0,0,0,.989-.571l4.986-8.629A14.85,14.85,0,0,1,5.427,279.776Z" transform="translate(-0.004 -279.776)"/></g><g transform="translate(19.54 19.968)"><path class="a" d="M290.575,288.928l-5.274-9.152a14.846,14.846,0,0,1-11.582,7.375l4.986,8.629a1.142,1.142,0,0,0,.989.571,1.082,1.082,0,0,0,.148-.009,1.148,1.148,0,0,0,.955-.838l1.784-6.706,6.706,1.8a1.143,1.143,0,0,0,1.288-1.672Z" transform="translate(-273.72 -279.776)"/></g></g></svg>