<svg xmlns="http://www.w3.org/2000/svg" width="44" height="44" viewBox="0 0 44 44"><defs><style>.a,.b{fill:#32aceb;}.a{opacity:0.098;}</style></defs><g transform="translate(-1056 -708)"><circle class="a" cx="22" cy="22" r="22" transform="translate(1056 708)"/><g transform="translate(1065.19 716.84)"><path class="b" d="M50.032,25.113a10.068,10.068,0,0,0,5.482-6.836h.99a2.72,2.72,0,0,0,2.717-2.717V14.177a2.71,2.71,0,0,0-.889-2.008V8.941a2.72,2.72,0,0,0-2.717-2.717h-.6A10.032,10.032,0,0,0,40.972,1.2a.741.741,0,0,0,.7,1.3,8.549,8.549,0,0,1,12.6,7.524v6.027a8.546,8.546,0,1,1-17.092,0V10.028A8.55,8.55,0,0,1,39.2,4.518a.741.741,0,0,0-1.132-.956,10.01,10.01,0,0,0-1.612,2.662h-.6a2.72,2.72,0,0,0-2.717,2.717v3.228a2.711,2.711,0,0,0-.889,2.009V15.56a2.72,2.72,0,0,0,2.717,2.717h.99a10.067,10.067,0,0,0,5.481,6.836A11.038,11.038,0,0,0,50.032,25.113Zm7.706-9.553A1.236,1.236,0,0,1,56.5,16.8h-.741V12.942H56.5a1.237,1.237,0,0,1,1.235,1.235ZM55.614,7.706a1.236,1.236,0,0,1,1.235,1.235v2.542a2.719,2.719,0,0,0-.346-.023h-.741V10.028a10.019,10.019,0,0,0-.272-2.322ZM34.619,8.941a1.236,1.236,0,0,1,1.235-1.235h.127a10,10,0,0,0-.275,2.322V11.46h-.741a2.719,2.719,0,0,0-.346.023ZM35.706,16.8h-.741a1.236,1.236,0,0,1-1.235-1.235V14.177a1.236,1.236,0,0,1,1.235-1.235h.741Z" transform="translate(-32.248)"/><path class="b" d="M143.987,102.666a3.117,3.117,0,0,0,3.1-2.8,1.444,1.444,0,0,1,.9-.415,1.466,1.466,0,0,1,.905.414,3.114,3.114,0,1,0,.265-1.605,2.5,2.5,0,0,0-2.341,0,3.112,3.112,0,1,0-2.831,4.4Zm8-4.742a1.63,1.63,0,1,1-1.63,1.63A1.632,1.632,0,0,1,151.99,97.923Zm-8,0a1.63,1.63,0,1,1-1.63,1.63A1.632,1.632,0,0,1,143.987,97.923Zm0,0" transform="translate(-134.503 -87.006)"/></g></g></svg>