<svg xmlns="http://www.w3.org/2000/svg" width="79.055" height="79.055" viewBox="0 0 79.055 79.055"><defs><style>.a{fill:#5bacff;}.b{fill:#308ff0;}.c{fill:#091d2c;}.d{opacity:0.1;}.e{opacity:0.15;}.f{fill:#fff;}.g{fill:#ff7f42;}</style></defs><path class="a" d="M38.317,0A38.317,38.317,0,1,1,0,38.317,38.317,38.317,0,0,1,38.317,0Z" transform="translate(1.21 1.21)"/><path class="b" d="M12.758,46.154A38.317,38.317,0,0,1,48.615,7.918c-.814-.052-1.634-.081-2.46-.081a38.317,38.317,0,1,0,0,76.635c.827,0,1.647-.029,2.46-.081A38.317,38.317,0,0,1,12.758,46.154Z" transform="translate(-6.627 -6.627)"/><path class="c" d="M134.851,308.162a22.3,22.3,0,0,1-22.113-19.548,1.128,1.128,0,0,1,1.12-1.266h41.987a1.128,1.128,0,0,1,1.12,1.266A22.3,22.3,0,0,1,134.851,308.162Z" transform="translate(-95.324 -242.98)"/><g class="d" transform="translate(17.406 44.367)"><path class="e" d="M123.725,305.18a7.032,7.032,0,0,1,1.607-2.425,22.207,22.207,0,0,1-7.575-14.142,1.128,1.128,0,0,1,1.12-1.266h-5.02a1.128,1.128,0,0,0-1.12,1.266,22.274,22.274,0,0,0,11.551,16.881Q124,305.341,123.725,305.18Z" transform="translate(-112.729 -287.347)"/></g><path class="f" d="M155.845,287.347H113.858a1.128,1.128,0,0,0-1.12,1.266,22.2,22.2,0,0,0,1.223,5.026h41.78a22.2,22.2,0,0,0,1.223-5.026,1.128,1.128,0,0,0-1.12-1.266Z" transform="translate(-95.324 -242.98)"/><path class="g" d="M190.469,374.073a7.019,7.019,0,0,0-6.528,4.442,22.251,22.251,0,0,0,22.252,0,7.015,7.015,0,0,0-11.126-2.723A6.988,6.988,0,0,0,190.469,374.073Z" transform="translate(-155.54 -316.315)"/><g class="d" transform="translate(28.401 57.758)"><path d="M194.024,375.042a7.014,7.014,0,0,0-10.082,3.473,22.249,22.249,0,0,0,4.116,1.848A12.406,12.406,0,0,1,194.024,375.042Z" transform="translate(-183.942 -374.073)"/></g><path class="c" d="M132.841,162.74v-4.209a2.841,2.841,0,0,0-5.682,0v4.209a2.841,2.841,0,1,0,5.682,0Z" transform="translate(-107.525 -131.651)"/><path class="c" d="M353.724,162.74v-4.209a2.841,2.841,0,0,0-5.682,0v4.209a2.841,2.841,0,1,0,5.682,0Z" transform="translate(-294.303 -131.651)"/><path class="c" d="M69.332,13.564a1.21,1.21,0,0,0-1.824,1.59,37.108,37.108,0,1,1-3.139-3.192,1.21,1.21,0,1,0,1.621-1.8,39.524,39.524,0,1,0,3.343,3.4Z" transform="translate(0 0)"/><path class="c" d="M231.61,166.661a1.21,1.21,0,0,0-1.21,1.21v9.035a2.827,2.827,0,0,0,2.823,2.823H237.1a1.21,1.21,0,0,0,0-2.42h-3.872a.409.409,0,0,1-.4-.4v-9.035A1.21,1.21,0,0,0,231.61,166.661Z" transform="translate(-194.825 -140.928)"/><path class="c" d="M134.835,300.567a1.209,1.209,0,0,0,1.556.713,23.524,23.524,0,0,0,13.828-13.773,1.174,1.174,0,0,0,.06-.164,23.405,23.405,0,0,0,1.261-5.209,2.338,2.338,0,0,0-2.321-2.623h-30.35a1.21,1.21,0,1,0,0,2.42h30.258a21.162,21.162,0,0,1-.867,3.872H108.2a21,21,0,0,1-.871-3.872h7.026a1.21,1.21,0,1,0,0-2.42h-7.118a2.338,2.338,0,0,0-2.321,2.624,23.5,23.5,0,0,0,27.056,20.312,1.21,1.21,0,1,0-.385-2.389,21.066,21.066,0,0,1-12.876-2.009,5.8,5.8,0,0,1,8.725-1.3,1.21,1.21,0,0,0,1.587,0,5.8,5.8,0,0,1,8.726,1.306,21.42,21.42,0,0,1-2.2.962A1.21,1.21,0,0,0,134.835,300.567Zm-2.012-7.666a8.222,8.222,0,0,0-4.6,1.406,8.226,8.226,0,0,0-11.613,2.521,21.142,21.142,0,0,1-7.454-8.606H147.3a20.967,20.967,0,0,1-7.458,8.611A8.176,8.176,0,0,0,132.823,292.9Z" transform="translate(-88.698 -236.353)"/></svg>