<svg xmlns="http://www.w3.org/2000/svg" width="54.694" height="62.08" viewBox="0 0 54.694 62.08">
  <g id="Step_3" data-name="Step 3" transform="translate(-779.001 -1809)">
    <g id="Group_542" data-name="Group 542" transform="translate(613 58)">
      <g id="save-money" transform="translate(165.641 1751)">
        <path id="Path_661" data-name="Path 661" d="M190.471,162.169a.97.97,0,0,0-.349-.012,2.315,2.315,0,0,1-2.048-2.3,1.018,1.018,0,1,0-2.037,0,4.356,4.356,0,0,0,3.2,4.194v1.018a1.018,1.018,0,0,0,2.037,0v-.957a4.348,4.348,0,0,0-.891-8.6A2.312,2.312,0,1,1,192.7,153.2a1.018,1.018,0,1,0,2.037,0,4.356,4.356,0,0,0-3.458-4.257v-.927a1.018,1.018,0,1,0-2.037,0v.989a4.348,4.348,0,0,0,1.146,8.543,2.311,2.311,0,0,1,.085,4.62Zm0,0" transform="translate(-162.044 -128.289)" fill="#68879d"/>
        <path id="Path_662" data-name="Path 662" d="M104.2,121.258a14.766,14.766,0,1,0,14.766-14.766A14.766,14.766,0,0,0,104.2,121.258Zm14.766-12.73a12.73,12.73,0,1,1-12.73,12.73A12.729,12.729,0,0,1,118.962,108.529Zm0,0" transform="translate(-90.618 -92.937)" fill="#68879d"/>
        <path id="Path_663" data-name="Path 663" d="M48.129,330.413l-7.977,3.769a6.5,6.5,0,0,0-5.539-3.418l-7.364-.2A7.777,7.777,0,0,1,23.9,329.7l-.749-.388a13.217,13.217,0,0,0-12.242.013l.047-1.7a1.018,1.018,0,0,0-.99-1.046l-8.075-.222a1.018,1.018,0,0,0-1.046.99l-.488,17.72a1.018,1.018,0,0,0,.99,1.046l8.075.222h.028a1.018,1.018,0,0,0,1.018-.99l.023-.848,2.1-1.123a3.6,3.6,0,0,1,2.685-.294L27.8,346.6c.022.006.044.011.066.016a13.407,13.407,0,0,0,2.753.284,13.586,13.586,0,0,0,5.676-1.239.945.945,0,0,0,.126-.07l18.163-11.748a1.019,1.019,0,0,0,.334-1.356A5.144,5.144,0,0,0,48.129,330.413ZM2.425,344.1l.432-15.684,6.039.166-.432,15.685Zm32.958-.266a11.546,11.546,0,0,1-7.06.788L15.829,341.12a5.631,5.631,0,0,0-4.2.459l-1.072.574.287-10.428a11.193,11.193,0,0,1,11.371-.607l.749.388a9.835,9.835,0,0,0,4.227,1.092l7.364.2A4.466,4.466,0,0,1,38.8,336.36l-10.969-.3a1.018,1.018,0,0,0-.056,2.036l12.105.333h.028a1.018,1.018,0,0,0,1.017-.99,6.463,6.463,0,0,0-.1-1.321l8.182-3.866.024-.011a3.111,3.111,0,0,1,3.518.493Zm0,0" transform="translate(0 -284.816)" fill="#68879d"/>
        <path id="Path_664" data-name="Path 664" d="M214.24,10.692V1.018a1.018,1.018,0,0,0-2.037,0v9.674a1.018,1.018,0,0,0,2.037,0Zm0,0" transform="translate(-184.878)" fill="#68879d"/>
        <path id="Path_665" data-name="Path 665" d="M274.24,45.6V41.018a1.018,1.018,0,0,0-2.037,0V45.6a1.018,1.018,0,1,0,2.037,0Zm0,0" transform="translate(-237.241 -34.909)" fill="#68879d"/>
        <path id="Path_666" data-name="Path 666" d="M154.24,45.6V41.018a1.018,1.018,0,0,0-2.037,0V45.6a1.018,1.018,0,0,0,2.037,0Zm0,0" transform="translate(-132.515 -34.909)" fill="#68879d"/>
      </g>
      <g id="save-money-2" data-name="save-money" transform="translate(232.641 1761)">
        <path id="Path_663-2" data-name="Path 663" d="M2.425,344.1l.432-15.684,6.039.166-.432,15.685Zm32.958-.266a11.546,11.546,0,0,1-7.06.788L15.829,341.12a5.631,5.631,0,0,0-4.2.459l-1.072.574.287-10.428a11.193,11.193,0,0,1,11.371-.607l.749.388a9.835,9.835,0,0,0,4.227,1.092l7.364.2A4.466,4.466,0,0,1,38.8,336.36l-10.969-.3a1.018,1.018,0,0,0-.056,2.036l12.105.333h.028a1.018,1.018,0,0,0,1.017-.99,6.463,6.463,0,0,0-.1-1.321l8.182-3.866.024-.011a3.111,3.111,0,0,1,3.518.493Zm0,0" transform="translate(-67 -294.816)" fill="#e8f1ff"/>
      </g>
    </g>
  </g>
</svg>
