<svg xmlns="http://www.w3.org/2000/svg" width="33" height="33" viewBox="0 0 33 33"><defs><style>.a{fill:#ff8f2b;opacity:0.098;}.b,.d{fill:none;}.b{stroke:#ff8f2b;}.c{stroke:none;}</style></defs><g transform="translate(-30 -521)"><circle class="a" cx="16.5" cy="16.5" r="16.5" transform="translate(30 521)"/><g transform="translate(-13 39)"><g class="b" transform="translate(54 493)"><path class="c" d="M0,0H12a0,0,0,0,1,0,0V8a6,6,0,0,1-6,6H6A6,6,0,0,1,0,8V0A0,0,0,0,1,0,0Z"/><path class="d" d="M.923.5H11.077A.423.423,0,0,1,11.5.923V8A5.5,5.5,0,0,1,6,13.5H6A5.5,5.5,0,0,1,.5,8V.923A.423.423,0,0,1,.923.5Z"/></g><path class="b" d="M883.58-218.527h11.5" transform="translate(-829.08 718.142)"/><path class="b" d="M883.58-218.517h17.757" transform="translate(-832.051 711.877)"/><path class="b" d="M0,0H3.673" transform="translate(67.132 493.796) rotate(90)"/></g></g></svg>