<svg xmlns="http://www.w3.org/2000/svg" width="31.648" height="18.344" viewBox="0 0 31.648 18.344"><defs><style>.a{fill:#32aceb;}</style></defs><g transform="translate(0 -166.422)"><path class="a" d="M169.142,405.222l-9.441-2.906v4.853c0,2.244,4.228,4.063,9.444,4.063s9.444-1.819,9.444-4.063c0-.018-.006-.035-.006-.053v-4.8Z" transform="translate(-153.318 -226.465)"/><path class="a" d="M0,172.51l3.373,1.206.287-.616L4.9,173l.177.184-1.063.252-.155.459s-2.4,5.02-2.049,7.476a3.1,3.1,0,0,0,3,0l.4-6.715v-.559l2.23-.5-.158.388-1.663.541.769.275,9.441,2.906,9.441-2.906,6.383-2.283-15.824-6.088Z" transform="translate(0 0)"/></g></svg>