<svg xmlns="http://www.w3.org/2000/svg" width="25.157" height="25.669" viewBox="0 0 25.157 25.669"><defs><style>.a{fill:#ff8f2b;}</style></defs><path class="a" d="M.545,8.3a1.047,1.047,0,0,0,.679.977v1.554a.977.977,0,0,0,.93.972v8.976a.977.977,0,0,0-.93.972V23.3a1.059,1.059,0,0,0-.679.986v1.033a.349.349,0,0,0,.349.349H24.425a.349.349,0,0,0,.349-.349V24.289a1.058,1.058,0,0,0-.679-.986V21.744a.977.977,0,0,0-.93-.972V11.8a.977.977,0,0,0,.93-.972V9.278a1.047,1.047,0,0,0,.679-.977V7.252a1.016,1.016,0,0,0-.016-.154.347.347,0,0,0,.282-.635L12.82.041a.349.349,0,0,0-.326,0L.275,6.457a.349.349,0,0,0-.146.471Zm10.337,3.506v8.974a.977.977,0,0,0-.93.972v1.484H6.639V21.753a.977.977,0,0,0-.93-.972V11.8a.977.977,0,0,0,.93-.972V9.346H9.947V10.83a.977.977,0,0,0,.931.975Zm8.728,0v8.974a.977.977,0,0,0-.931.972v1.484H15.367V21.753a.977.977,0,0,0-.93-.972V11.8a.977.977,0,0,0,.93-.972V9.346h3.308V10.83a.977.977,0,0,0,.93.975Zm-5.869,8.969h0Zm-8.73,0h0Zm15.292.007,2.166-.007ZM12.657.739,23.048,6.2Z" transform="translate(-0.089 -0.001)"/></svg>