<svg xmlns="http://www.w3.org/2000/svg" xmlns:xlink="http://www.w3.org/1999/xlink" width="715" height="338" viewBox="0 0 715 338"><defs><style>.a{fill:#41a9e0;}.b{clip-path:url(#a);}.c{opacity:0.541;}.d{fill:#328ccc;}</style><clipPath id="a"><path class="a" d="M5,0H710a5,5,0,0,1,5,5V338a0,0,0,0,1,0,0H0a0,0,0,0,1,0,0V5A5,5,0,0,1,5,0Z" transform="translate(301 -83)"/></clipPath></defs><g transform="translate(-301 83)"><rect class="a" width="715" height="338" transform="translate(301 -83)"/><g class="b"><g class="c" transform="translate(284.88 -128.72)"><g transform="translate(12.89 10.322)"><path class="d" d="M367.743,440.989c-2.642-.842-4.616-2.787-6.735-4.877-.929-.929-1.887-1.858-2.874-2.671A55.458,55.458,0,0,1,347.827,422.5c-4.965-7.432-5.835-15.881-2.758-26.565a195.033,195.033,0,0,1,8.1-21.426c.842-1.945,1.684-3.919,2.526-5.952,4.442-10.858,9.494-23.168,11.468-36.406a38.023,38.023,0,0,0-8.536-30.484,32.813,32.813,0,0,0-24.939-11.816H330.2a41.431,41.431,0,0,1-7.171-.464c-5.516-.929-8.884-4.239-10.336-9.958a32.384,32.384,0,0,1-1.016-8.971,147.712,147.712,0,0,0-1.539-24.155c-2.5-16.781-11.41-28.277-27.261-35.187-3.339-1.423-6.736-2.758-10.1-4.094-5.632-2.235-11.439-4.529-17.013-7.287a78.106,78.106,0,0,1-32.516-29.206c-1.132-1.829-2.206-3.687-3.31-5.487a164.172,164.172,0,0,0-9.523-14.806c-5.081-6.91-10.655-10.306-17.042-10.306-4.152,0-8.594,1.423-13.616,4.384-18.929,11.119-30.106,28.568-33.184,51.939a100.073,100.073,0,0,0,1.945,35.216c.435,1.916.871,3.8,1.335,5.719,1.219,5.226,2.5,10.6,3.223,16a75.075,75.075,0,0,1-1.219,25.519c-3.106,15.445-7.2,27.261-12.919,37.19-6.823,11.9-16.694,18.755-29.352,20.468a91.236,91.236,0,0,1-12.281.842c-14.516,0-29.061-3.455-44.477-10.6-2.177-.987-4.326-2.032-6.532-3.048-6.706-3.252-13.616-6.59-20.961-8.623A79.048,79.048,0,0,0,7.278,311.97c-1.1-.058-2.177-.174-3.31-.319A38.4,38.4,0,0,0-.473,311.3h0a1.467,1.467,0,0,1-1.1-.523V280.528a1.62,1.62,0,0,1,.958-.29A7.76,7.76,0,0,1,.92,280.5a5.65,5.65,0,0,0,.9.2c19.365,3.687,35.826,10.945,50.371,22.181,7.258,5.574,13.5,10.016,20.41,13.645a58.736,58.736,0,0,0,25.432,7.345c.639,0,1.306.029,1.945.029,13.065,0,23.11-5.516,29.787-16.461a75.913,75.913,0,0,0,10.858-37.974c.319-9.2-1.568-18.058-3.542-26.274-3.135-12.919-4.355-23.69-3.832-33.823.668-15.1,2.41-32.69,10.219-48.89A99.288,99.288,0,0,1,156.794,140.1c2.061-2.526,4.123-5.052,6.155-7.577,6.329-7.81,12.861-15.881,19.945-23.255a90.737,90.737,0,0,1,11.874-10.887A92.77,92.77,0,0,0,216.775,74.66,189.987,189.987,0,0,1,240.03,45.947,203.611,203.611,0,0,1,258,30.85l2.845-2.235C267.727,23.272,272.43,17.176,275.1,10a6.664,6.664,0,0,1,1.481-1.945l.116-.145h34.752a3.812,3.812,0,0,1,1.306,2.265c2.09,8.623,7.055,15.126,11.671,20.323a142.333,142.333,0,0,1,26.448,41.952c3.832,9.61,8.3,19.713,15.155,28.219A119.015,119.015,0,0,0,386,120.066l4.877,3.8c7.461,5.807,15.242,11.816,23.284,17.1a36.283,36.283,0,0,0,17.594,6.068c.406.029.784.029,1.19.029,6.91,0,13.094-2.845,18.348-8.506,4.442-4.645,8.245-10.336,12.281-18.436,4.065-8.187,7.374-16.839,10.626-25.229,1.161-3.019,2.323-6.039,3.513-9.058a188.078,188.078,0,0,1,9.726-21.252,27.726,27.726,0,0,0,3.339-18.668c-1.771-10.19-2.09-20.555-2.206-29.41a32.551,32.551,0,0,1,.29-3.687,24.4,24.4,0,0,0,.319-3.6,1.841,1.841,0,0,1,.581-1.306h30.513a4.945,4.945,0,0,1,2,2.555,67.472,67.472,0,0,0,6.5,12.252c6.677,9.755,16.142,15.416,28.916,17.274a50.538,50.538,0,0,0,8.332.494c1.742,0,3.513.029,5.255.116,3.136.232,6.3.377,9.436.494,6.852.261,13.935.552,20.787,2.061,12.426,2.787,20.7,12.426,22.181,25.81a72.3,72.3,0,0,1-.145,20.468c-2.671,15.939-13.123,27.261-27.871,30.281a49.332,49.332,0,0,1-10.016,1.045,50.81,50.81,0,0,1-22.848-5.6c-5.052-2.526-9.987-5.632-14.748-8.594-1.916-1.219-3.832-2.439-5.806-3.6a75.844,75.844,0,0,0-9.958-5.081,27.97,27.97,0,0,0-10.916-2.265c-5.632,0-11.206,1.742-17.129,5.284-6.677,3.948-12.4,9.813-18.029,18.435-5.081,7.839-9.174,16.432-13.065,24.765-1.132,2.439-2.294,4.877-3.484,7.345a54.989,54.989,0,0,1-7.519,11.874c-4.326,4.994-10.016,7.548-18,8.013-.958.058-1.858.087-2.729.087-11.671,0-22.5-4.645-33.1-14.2-5.226-4.7-10.481-9.406-15.706-14.081-9.348-8.361-18.639-16.694-27.958-25.142a109.293,109.293,0,0,1-23.632-31.936l-.348-.7c-4.326-8.652-8.826-17.623-15.968-24.416-9.29-9.029-18.232-13.384-28.132-13.79H295.8c-6.823,0-12.8,3.077-18.261,9.523a80.943,80.943,0,0,0-7.955,11.584,311.326,311.326,0,0,1-27.7,39.136,45.793,45.793,0,0,0-10.1,21.281c-1.481,8.506-.523,17.129,2.99,27.232,5.255,15.3,16.026,25.9,32.923,32.313,5.2,2,10.539,3.571,15.706,5.11,3.716,1.1,7.577,2.235,11.323,3.513,11.816,4.094,21.106,12.542,28.365,25.81,1.916,3.571,3.687,7.316,5.371,10.945,1.277,2.729,2.555,5.429,3.919,8.1,4.529,8.942,11.264,16.752,21.135,24.619,11.352,9.174,19.452,16.781,26.3,24.648a262.27,262.27,0,0,1,21.658,28.858c4.471,6.881,8.506,9.784,13.413,9.784,3.658.029,7.606-1.655,12.4-4.094,9.261-4.761,16.665-12.8,22.7-24.5A253.087,253.087,0,0,0,464.421,268.6,114.186,114.186,0,0,0,470.6,238c.29-4.965.406-9.929.552-14.777.116-4.326.261-8.652.494-12.977a64.962,64.962,0,0,1,2.119-14.487c2.5-8.535,8.274-13.558,17.129-14.894a78.153,78.153,0,0,1,12.252-1.045c9.755,0,18.145,2.265,25.635,6.881,8.565,5.255,15.823,12.977,21.571,22.906a102.348,102.348,0,0,1,13.471,43.461l.29,3.774c.668,8.274,1.364,16.839,4.239,24.91,2.439,6.852,5.923,14.458,13.645,18.842a23.97,23.97,0,0,0,7.258,2.932,12.1,12.1,0,0,0,2.845.348c4.7,0,8.448-2.787,10.51-7.781,2.264-5.487,3.223-11.381,4.181-17.129l.232-1.452c1.887-11.09,4.384-23.894,10.307-35.507a103.183,103.183,0,0,1,15.5-22.79c5.719-6.242,11.99-12.106,18.058-17.768l5.023-4.674a211.993,211.993,0,0,0,21.658-24.358c9.174-11.816,17.1-21.484,26.071-30.31,4.529-4.5,9.7-9.232,16.171-14.894.232-.2.436-.465.726-.7.464-.435.9-.9,1.306-.958V179.96c-2.439,4.413-6.184,7.519-9.871,10.219-7.955,5.923-16.548,10.51-24.59,14.574-2.148,1.074-4.268,2.09-6.358,3.135-8.739,4.3-17.739,8.71-26.013,14.284-15.5,10.539-25.084,23.4-29.381,39.455a61.547,61.547,0,0,0-2.381,16.142v2.9a85.414,85.414,0,0,0,1.016,16c2.09,11.119,8.187,18.987,18.087,23.342a118.564,118.564,0,0,0,17.187,5.806c1.684.435,3.368.929,5.023,1.423,8.855,2.555,20.439,6.271,31.326,12.281,13.152,7.258,20.642,18.7,22.965,34.984a48.819,48.819,0,0,1-5.4,30.629C710.44,410.65,705.737,414.6,698.3,418a99.294,99.294,0,0,1-15.939,5.226l-4.006,1.045-.29.087a95.709,95.709,0,0,0-12.513,4.152c-4.384,1.916-8.129,5.168-11.526,10.074a12.243,12.243,0,0,1-2.09,2.41H629.469a5.9,5.9,0,0,1-1.016-3.484l-.145-.987a66.023,66.023,0,0,0-3.048-13.7,12.11,12.11,0,0,0-8.594-8.042,92.283,92.283,0,0,0-14.865-2.439c-7.635-.842-15.3-1.51-22.442-2.09-2.613-.2-5.168-.319-7.49-.319-14.11,0-25,3.658-34.316,11.555-4.819,4.094-8.8,9.465-12.571,16.868a5.775,5.775,0,0,1-2.032,2.642H499.288c-.29-.377-.174-.871.29-2.032,2.758-7.519,5.894-13.064,9.813-17.536,12.193-13.906,25.577-22.645,40.936-26.652a50.112,50.112,0,0,1,12.077-1.6h2.7c1.655,0,3.31,0,4.965.029,1.626.029,3.281.058,4.936.058a84.293,84.293,0,0,0,11.439-.668c5.139-.726,10.945-1.945,15.126-7.287a17.337,17.337,0,0,0,3.513-6.59c2-9.377,4.587-32.69-15.126-46.481l-3.164-2.177c-4.645-3.223-9.465-6.5-13.906-10.19-11.642-9.7-18.9-22.645-21.542-38.468a160.3,160.3,0,0,1-1.771-21.542c-.174-9-.668-19.452-4.006-29.352-3.919-11.642-9.552-20.177-17.3-26.071-5.487-4.239-11.41-6.416-17.477-6.416a27.2,27.2,0,0,0-5.836.639c-7.461,1.655-12.977,6.648-16.2,14.894-2.555,6.387-3.252,13.152-3.571,18.29a435.87,435.87,0,0,1-6.59,54.319c-1.423,7.606-2.09,15.474-2.787,23.052l-.261,3.165c-1.336,14.806-5.806,26.536-13.616,36-2.613,3.107-5.516,6.01-8.332,8.855-1.771,1.742-3.513,3.542-5.255,5.371A52.117,52.117,0,0,0,435.679,386.5c-.813,3.048-1.539,6.155-2.294,9.29-1.045,4.471-2.119,9.116-3.4,13.674-2.09,7.694-4.935,15.3-7.635,22.674-.871,2.323-1.713,4.645-2.555,7a3.765,3.765,0,0,1-1.539,1.858H367.743m-.174,1.161h51.039a4.925,4.925,0,0,0,2.265-2.613c3.571-9.9,7.461-19.6,10.248-29.787,2.119-7.606,3.687-15.329,5.661-22.994a51.567,51.567,0,0,1,12.4-23.342c4.529-4.819,9.406-9.261,13.645-14.313,8.739-10.539,12.658-22.994,13.906-36.61.755-8.768,1.423-17.535,2.99-26.129a439.537,439.537,0,0,0,6.648-54.436,57.546,57.546,0,0,1,3.455-18c2.874-7.316,7.839-12.484,15.416-14.139a26.154,26.154,0,0,1,5.545-.61c6.039,0,11.671,2.236,16.81,6.155,8.332,6.387,13.442,15.387,16.839,25.548,3.164,9.348,3.8,19.19,4.006,29a155.619,155.619,0,0,0,1.742,21.687c2.7,16,9.9,29.148,21.977,39.165,5.458,4.558,11.323,8.419,17.129,12.455,15.765,11,18.058,29.468,14.661,45.29a16.153,16.153,0,0,1-3.281,6.1c-3.8,4.848-8.913,6.1-14.4,6.881A81.184,81.184,0,0,1,575,392.1c-3.31,0-6.59-.116-9.9-.116-.929,0-1.8.029-2.7.058a53.688,53.688,0,0,0-12.368,1.6c-16.49,4.355-30.048,13.936-41.574,27.029-4.5,5.168-7.548,11.352-9.987,17.855-.494,1.306-.929,2.555.29,3.629H523.24A6.4,6.4,0,0,0,526,438.87c3.223-6.3,7.026-12.019,12.339-16.519,10.045-8.535,21.484-11.264,33.532-11.264,2.439,0,4.906.116,7.374.319,7.49.61,14.981,1.277,22.442,2.061a96.134,96.134,0,0,1,14.632,2.41,10.913,10.913,0,0,1,7.839,7.345,65.562,65.562,0,0,1,2.99,13.442c.29,1.974.232,4.064,1.829,5.487h23.371a13.42,13.42,0,0,0,2.7-3.019c2.9-4.181,6.358-7.577,10.945-9.552a91.471,91.471,0,0,1,12.687-4.21c6.794-1.858,13.616-3.339,20.09-6.3,6.387-2.9,12.077-6.736,15.706-13.355a49.731,49.731,0,0,0,5.545-31.355c-2.323-16.084-9.726-28.248-23.545-35.855-10.074-5.545-20.729-9.232-31.558-12.4-7.432-2.177-14.981-3.919-22.123-7.142-9.522-4.21-15.329-11.642-17.39-22.529-1.19-6.213-.958-12.426-1.016-18.668a59.693,59.693,0,0,1,2.381-15.852c4.587-17.187,15.1-29.41,28.916-38.758,10.19-6.91,21.31-11.9,32.2-17.361,8.594-4.355,17.013-8.913,24.794-14.69,4.007-2.961,7.81-6.213,10.336-10.858V124.711a2.15,2.15,0,0,0-1.1-.319c-1.19,0-1.974,1.219-2.845,1.916-5.516,4.848-11,9.813-16.229,14.952-9.464,9.377-17.942,19.858-26.187,30.455A214.153,214.153,0,0,1,655.1,195.927c-7.81,7.374-15.823,14.487-23.139,22.471a106.643,106.643,0,0,0-15.648,23.081c-5.719,11.235-8.332,23.487-10.423,35.855-1.045,6.242-1.945,12.455-4.355,18.348-1.887,4.529-5.2,7-9.436,7a12,12,0,0,1-2.613-.29,22.439,22.439,0,0,1-6.91-2.845c-6.968-3.89-10.481-10.713-13.123-18.2-3.252-9.116-3.658-18.813-4.5-28.365a103.062,103.062,0,0,0-13.616-43.984c-5.545-9.581-12.716-17.594-21.948-23.284a48.747,48.747,0,0,0-26.245-7.055,82.488,82.488,0,0,0-12.426,1.045c-8.71,1.335-15.3,6.3-18.058,15.706a65.379,65.379,0,0,0-2.177,14.777c-.465,9.261-.523,18.494-1.045,27.726a112.7,112.7,0,0,1-6.126,30.31,250.739,250.739,0,0,1-14.371,32.255c-5.255,10.248-12.106,18.813-22.181,24.01-4.761,2.468-8.506,3.977-11.874,3.977-4.384,0-8.1-2.584-12.455-9.29a264.655,264.655,0,0,0-21.716-28.916c-7.984-9.232-17.071-17.245-26.477-24.823-8.39-6.677-15.794-14.313-20.845-24.213-3.194-6.3-5.923-12.89-9.29-19.1-6.794-12.4-15.852-21.832-29-26.361-8.913-3.019-18.087-5.2-26.971-8.594-14.923-5.69-26.594-15.155-32.255-31.616-3.019-8.623-4.529-17.477-2.961-26.681a44.342,44.342,0,0,1,9.871-20.7,310.258,310.258,0,0,0,27.784-39.31,78,78,0,0,1,7.868-11.41c4.645-5.487,10.277-9.116,17.361-9.116h.755c10.829.435,19.6,5.923,27.377,13.442,7.171,6.852,11.584,15.91,16.055,24.794a110.4,110.4,0,0,0,23.923,32.313C378.4,132.027,393.03,145,407.546,158.069c9.813,8.855,20.932,14.516,33.881,14.516.929,0,1.829-.029,2.816-.087,7.142-.406,13.645-2.439,18.755-8.419a54.669,54.669,0,0,0,7.723-12.165c5.226-10.8,9.958-21.89,16.49-31.936,4.761-7.287,10.277-13.7,17.623-18.087,5.371-3.252,10.858-5.11,16.548-5.11a26.376,26.376,0,0,1,10.452,2.177,80.667,80.667,0,0,1,9.871,4.994c6.794,4.152,13.442,8.681,20.584,12.252a52.084,52.084,0,0,0,23.371,5.719,47.856,47.856,0,0,0,10.248-1.074c15.3-3.135,26.042-14.836,28.8-31.21a73.537,73.537,0,0,0,.116-20.816c-1.51-14.2-10.539-23.981-23.081-26.8-10.045-2.235-20.236-1.8-30.368-2.584-4.5-.29-9.029.116-13.5-.581-11.439-1.684-21.164-6.59-28.132-16.781a70.507,70.507,0,0,1-6.416-12.048,5.859,5.859,0,0,0-2.758-3.281H489.243a3.526,3.526,0,0,0-1.248,2.468c0,2.41-.61,4.819-.552,7.316a180.054,180.054,0,0,0,2.206,29.584A26.555,26.555,0,0,1,486.427,64a190.219,190.219,0,0,0-9.784,21.4c-4.558,11.468-8.623,23.168-14.139,34.2-3.252,6.59-7.026,12.89-12.048,18.174-4.877,5.255-10.742,8.129-17.506,8.129-.377,0-.755,0-1.132-.029a34.826,34.826,0,0,1-16.984-5.894c-9.784-6.358-18.871-13.674-28.132-20.816A119.162,119.162,0,0,1,366.93,99.918c-6.677-8.274-11.032-18.029-14.981-27.9a144.6,144.6,0,0,0-26.652-42.3c-5.081-5.748-9.494-11.99-11.41-19.829a4.926,4.926,0,0,0-2.061-3.135H276.2a9.9,9.9,0,0,0-2.177,2.816c-2.845,7.606-7.752,13.384-13.877,18.145-7.171,5.574-14.4,10.974-20.932,17.419a194.1,194.1,0,0,0-23.429,28.887,91.246,91.246,0,0,1-21.716,23.4,100.734,100.734,0,0,0-12.048,11.032c-9.319,9.755-17.536,20.468-26.129,30.919a99.878,99.878,0,0,0-13.471,20.642c-7.461,15.416-9.581,32.255-10.336,49.3-.61,11.584,1.161,22.965,3.861,34.171,2.061,8.506,3.832,17.042,3.513,25.955-.377,13.5-3.745,26.042-10.684,37.365-6.881,11.294-16.955,15.939-28.8,15.939-.61,0-1.277,0-1.887-.058a57.548,57.548,0,0,1-24.968-7.171,142.443,142.443,0,0,1-20.236-13.587c-15.271-11.787-32.371-18.842-50.836-22.355a15.536,15.536,0,0,0-2.671-.494A2.809,2.809,0,0,0-2.738,280v31.239a3.058,3.058,0,0,0,2.265,1.248h.2c2.526,0,4.994.552,7.49.639a77.535,77.535,0,0,1,17.8,2.932c9.552,2.613,18.319,7.49,27.319,11.613C66.852,334.382,81.8,338.36,97.307,338.36a86.4,86.4,0,0,0,12.455-.871c13.239-1.771,23.284-9.029,30.194-21.048,6.677-11.555,10.394-24.358,13.035-37.539a76.629,76.629,0,0,0,1.248-25.868c-1.016-7.4-2.961-14.6-4.587-21.8a98.977,98.977,0,0,1-1.916-34.839c2.99-22.848,13.819-40.065,32.632-51.1,4.616-2.7,8.913-4.21,13.006-4.21,5.806,0,11.119,3.019,16.113,9.813,4.79,6.416,8.594,13.442,12.774,20.235a78.215,78.215,0,0,0,33.01,29.642c8.855,4.384,18.174,7.548,27.145,11.41,14.661,6.358,24.039,17.274,26.565,34.287a144.47,144.47,0,0,1,1.539,23.981,34.236,34.236,0,0,0,1.045,9.261c1.568,6.184,5.255,9.784,11.265,10.829a44.94,44.94,0,0,0,7.374.465h3.484c20.265.087,35.565,19.539,32.342,40.994-1.916,12.716-6.619,24.387-11.41,36.145-3.745,9.029-7.868,17.913-10.684,27.465-2.758,9.639-2.816,18.871,2.932,27.523a55.716,55.716,0,0,0,10.481,11.177c3.339,2.758,5.923,6.561,10.219,7.839Z" transform="translate(2.738 -6.753)"/></g><g transform="translate(12.859 10.293)"><path class="d" d="M-.154,178.652a1.866,1.866,0,0,1-1.394-.494V160.333a2.274,2.274,0,0,1,1.713-.581,10.875,10.875,0,0,1,1.306.116l.987.087,1.771.058c3.135.145,6.242.261,9.348.261a58.79,58.79,0,0,0,19.539-2.816c13.094-4.645,22.965-13.442,30.31-26.913,5.081-9.377,7.9-20.206,8.826-34.026a218.555,218.555,0,0,0-.261-25.055c-.348-9.058-.813-17.216-2.7-25.4-1.713-7.461-6.01-12.426-12.716-14.777C48.65,28.555,40.288,27.6,33.088,26.9c-5.6-.523-11.148-.61-16.345-.61L12.5,26.32H8.324a41.2,41.2,0,0,0-6.765.377,7.525,7.525,0,0,1-1.365.145A2.3,2.3,0,0,1-1.547,26.2V21.3c.029-4.152.058-8.332-.029-12.484V7.971a4.67,4.67,0,0,1,.755-.058c29.526.029,59.139.029,88.636.029A21.343,21.343,0,0,0,98.556,10.9,23.338,23.338,0,0,0,104.8,10c1.132-.319,2.294-.552,3.455-.784a32.54,32.54,0,0,0,5.081-1.277h27.319c.174.581-.087,1.132-.958,2.235A61.89,61.89,0,0,1,124.511,24.81c-1.829,1.219-3.687,2.439-5.545,3.629a161.788,161.788,0,0,0-14.6,10.248C97.917,43.942,93.5,51.288,90.514,61.8c-2.613,9.029-3.426,18.465-4.268,27.581l-.058.813c-1.277,14.2-3.484,29.206-10.829,43.055a91.488,91.488,0,0,1-8.71,13.181c-12.426,15.706-28.858,25.636-48.89,29.526-4.965.929-10.423,1.771-17.274,2.642a2.381,2.381,0,0,1-.639.058m0,1.161a3.972,3.972,0,0,0,.813-.058c5.777-.755,11.584-1.6,17.332-2.671,19.8-3.832,36.523-13.442,49.558-29.961A88.777,88.777,0,0,0,76.4,133.768c7.171-13.471,9.581-28.277,10.945-43.461.842-9.494,1.626-18.987,4.268-28.19,2.526-8.8,6.387-16.723,13.471-22.529,6.358-5.168,13.355-9.319,20.061-13.819a63.579,63.579,0,0,0,15.5-14.923c.813-1.074,1.916-2.439.639-4.065H113.13c-2.787,1.045-5.748,1.306-8.652,2.119a21.943,21.943,0,0,1-5.923.842A20.1,20.1,0,0,1,88.134,6.781q-44.463,0-88.955-.029c-1.568,0-1.945.377-1.916,2.09.116,5.923.029,11.874.029,17.8A3.362,3.362,0,0,0,.195,28a8.859,8.859,0,0,0,1.51-.145,39.3,39.3,0,0,1,6.619-.377c2.816,0,5.6-.029,8.419-.029,5.429,0,10.858.087,16.258.61,7.839.755,15.677,1.742,23.2,4.326,6.416,2.235,10.336,6.881,11.961,13.935,1.916,8.3,2.352,16.781,2.671,25.2a216.1,216.1,0,0,1,.261,24.91c-.784,11.9-3.048,23.2-8.681,33.561-6.852,12.6-16.461,21.687-29.671,26.361a57.284,57.284,0,0,1-19.161,2.758c-3.658,0-7.374-.174-11.061-.319-.813-.058-1.6-.2-2.352-.2a3.443,3.443,0,0,0-2.874,1.277v18.7a2.94,2.94,0,0,0,2.555,1.248Z" transform="translate(2.739 -6.752)"/><g transform="translate(154.134 316.133)"><path class="d" d="M3.876,135.773c.871-7.113,2.961-14.429,6.765-23.487C14.967,101.806,20.8,91.993,26.435,82.5c1.713-2.874,3.455-5.835,5.168-8.739l.581-1.045c4.645-8.187,9.494-16.694,15.184-24.271C60.083,31.431,74.628,21.909,91.815,19.412a46.1,46.1,0,0,1,7.287-.581c9.987,0,17.913,3.4,24.3,10.394,3.948,4.413,6.1,10.161,7.9,15.706,3.339,9.726,5.313,20.061,7.171,30.107l.465,2.323A160.463,160.463,0,0,0,152.26,119.08a69.36,69.36,0,0,1,5.6,16.694h-25.2a3.88,3.88,0,0,1-1.161-2.294l-.29-1.858c-1.51-10.626-3.106-21.629-3.832-32.545l-.232-3.745c-.465-7.2-.958-14.661-2-21.948-1.394-9.29-3.687-20-10.452-28.974a27.726,27.726,0,0,0-21.048-11.5c-.871-.058-1.713-.087-2.584-.087-9.465,0-18.494,4.094-27.668,12.484-7.635,7.026-12.716,16.084-17.216,24.735-3.948,7.461-8.1,14.923-12.106,22.152-2.526,4.616-5.081,9.2-7.577,13.79-5.487,10.19-8.681,18.377-10.423,26.594-.319,1.713-.668,2.671-1.568,3.194H3.876M2.57,136.935H14.793c1.655-.784,2.09-2.41,2.439-4.123,1.974-9.407,5.835-17.971,10.277-26.245,6.561-12.048,13.3-23.894,19.684-36,4.645-8.855,9.639-17.623,17.013-24.387,7.781-7.2,16.49-12.194,26.855-12.194a23.945,23.945,0,0,1,2.5.116,26.612,26.612,0,0,1,20.206,10.974c6.3,8.361,8.71,18.2,10.219,28.481,1.248,8.477,1.684,17.013,2.235,25.607.784,11.584,2.468,23.052,4.123,34.49a5.356,5.356,0,0,0,1.829,3.281h27.087a70.006,70.006,0,0,0-5.952-18.348,160.162,160.162,0,0,1-13.239-41.429c-2.061-10.974-4.035-22.065-7.665-32.632-1.916-5.806-4.094-11.584-8.158-16.084-7.142-7.839-15.852-10.8-25.142-10.8a50.674,50.674,0,0,0-7.461.61c-18.9,2.729-33.474,13.79-45.232,29.5-5.952,8.013-10.887,16.723-15.852,25.4-7.287,12.716-15.3,24.968-20.99,38.671-3.339,8.013-6.1,16.287-7,25.113Z" transform="translate(-2.57 -17.641)"/></g><g transform="translate(0.031 380.846)"><path class="d" d="M43.83,73.29a10.13,10.13,0,0,1-2.729-2c-4.5-4.732-10.219-7.316-17.448-7.955-1.626-.145-3.368-.2-5.255-.2-3.4,0-6.852.232-10.161.435l-2.9.174a11.817,11.817,0,0,0-1.713.174c-.755.058-1.481.174-2.206.174a4.592,4.592,0,0,1-2.99-.9V24.428L1.7,23.877,14.8,21.641A44.406,44.406,0,0,1,22.085,21a41.429,41.429,0,0,1,24.184,7.984A80.1,80.1,0,0,1,73.936,62.141,79.551,79.551,0,0,1,77.594,73.29H43.83m-.29,1.161H79.1a88.923,88.923,0,0,0-4.123-12.8A81.26,81.26,0,0,0,46.965,28.028,42.69,42.69,0,0,0,22.085,19.87a44.4,44.4,0,0,0-7.49.61C8.788,21.5,3.01,22.454-2.738,23.441V63.68a5.528,5.528,0,0,0,4.152,1.539c1.306,0,2.671-.261,3.977-.348,4.355-.2,8.681-.581,13.006-.581,1.713,0,3.455.058,5.168.2,6.358.552,12.048,2.729,16.665,7.577a11.655,11.655,0,0,0,3.31,2.381Z" transform="translate(2.738 -19.87)"/></g><g transform="translate(638.654 0.029)"><path class="d" d="M105.224,81.366c-1.539-1.916-2.874-3.977-4.181-5.981-.929-1.394-1.829-2.787-2.758-4.152L96.311,68.5A110.32,110.32,0,0,0,85.54,54.714,63.751,63.751,0,0,0,61.124,39.3c-4.094-1.452-8.187-2.787-12.31-4.123-3.8-1.248-7.665-2.5-11.468-3.861-9.9-3.542-16.258-12.484-16.9-23.4H43.936a19.269,19.269,0,0,1,4.674,3.571c4.21,3.919,9.261,5.981,14.923,8.042,2.148.784,4.268,1.568,6.387,2.294,6.852,2.41,13.935,4.906,20.381,8.768a88.353,88.353,0,0,1,13.007,9.871,6.607,6.607,0,0,1,1.306,2.148,11.012,11.012,0,0,0,.61,1.365V81.366m1.161,3.077V43.653c-.813-1.365-1.1-3.048-2.352-4.094-4.21-3.629-8.332-7.2-13.123-9.958-8.535-5.11-17.826-7.752-26.971-11.148-5.168-1.916-10.306-3.919-14.545-7.839a19.231,19.231,0,0,0-5.2-3.861H19.259c.2,11.874,6.91,21.774,17.681,25.665,7.9,2.787,15.881,5.168,23.777,7.984a62.464,62.464,0,0,1,24.01,15.126c4.79,4.965,8.594,10.742,12.629,16.4,2.961,4.181,5.429,8.8,9.029,12.513Z" transform="translate(-19.259 -6.753)"/></g></g><g transform="translate(434.235 201.297)"><path class="d" d="M13.4,256.593l2.9-8.071c3.89-10.713,7.9-21.832,10.423-33.416,1.51-6.968,3.077-14.2,5.69-20.961a39.492,39.492,0,0,1,8.1-13.21c2.526-2.758,5.11-5.429,7.723-8.071,1.51-1.6,3.077-3.194,4.587-4.761a58.042,58.042,0,0,0,16.287-35.652c1.713-18.116,4.587-36.465,7.142-52.229,1.219-7.229,1.742-14.69,2.265-21.89l.29-4.645c.552-7.316,1.161-15.648,3.658-23.342,3.077-9.523,11.526-15.852,21.019-15.852a23.163,23.163,0,0,1,3.484.261C118.265,16.7,126.743,23.7,133.74,36.76c4.5,8.448,6.91,18.2,7.635,30.716.116,2.671.232,5.371.348,8.071.261,7.635.552,15.561,2.09,23.284,3.339,16.926,11.816,30.426,25.2,40.152l5.429,3.89c3.339,2.381,6.794,4.819,10.045,7.4,8.448,6.677,12.919,15.329,13.732,26.448a55.893,55.893,0,0,1-.581,15.445c-1.306,7.026-5.342,11.671-12.019,13.819a43.086,43.086,0,0,1-12.745,1.887h-7.752c-1.568-.058-3.135-.058-4.674-.058-2.816,0-6.474.058-10.248.436-9.552.987-19.016,4.616-28.974,11.119-10.277,6.736-17.594,13.674-22.936,21.832a52.539,52.539,0,0,0-7.258,15.387H63.191a3.985,3.985,0,0,1-.552-2.41v-.552c-.058-1.655-.058-3.252,0-4.877a43.824,43.824,0,0,0-.552-9.7l-.145-.668c-.406-2.235-.958-4.906-3.832-5.981a7.216,7.216,0,0,0-1.713-.261c-2.352,0-4.094,1.626-5.574,3.164a52.6,52.6,0,0,0-10.858,16.781l-.348.929c-.523,1.51-1.016,2.845-2.177,3.571H13.4m-1.626,1.161H37.759c2.032-1.074,2.526-3.281,3.31-5.255a50.533,50.533,0,0,1,10.626-16.4c1.306-1.365,2.787-2.787,4.7-2.787a4.171,4.171,0,0,1,1.365.261c2.5.871,2.7,3.455,3.194,5.719.958,4.79.319,9.581.523,14.4.087,1.51-.058,3.048,1.277,4.064H91.933a50.593,50.593,0,0,1,7.316-15.91c5.923-9.029,13.906-15.823,22.645-21.513,8.71-5.719,18.087-9.871,28.423-10.945,3.368-.319,6.735-.406,10.132-.406,3.106,0,6.242.087,9.348.087,1.016,0,2.032,0,3.077-.058a44.234,44.234,0,0,0,13.094-1.887c6.852-2.235,11.381-7.026,12.832-14.719a60.51,60.51,0,0,0,.61-15.706c-.871-11.584-5.632-20.555-14.2-27.319-5.023-4.006-10.365-7.577-15.532-11.352-13.21-9.61-21.426-22.7-24.736-39.426-2.032-10.306-1.858-20.787-2.41-31.21-.639-11.032-2.613-21.542-7.781-31.152C128.543,24.6,120.3,15.857,107.2,13.621a23.15,23.15,0,0,0-3.716-.29A23.529,23.529,0,0,0,81.336,29.967C78.9,37.631,78.259,45.644,77.649,53.6c-.61,8.826-1.045,17.739-2.555,26.448-2.787,17.361-5.487,34.752-7.142,52.287A56.839,56.839,0,0,1,51.985,167.26c-4.065,4.3-8.3,8.507-12.31,12.89a40.543,40.543,0,0,0-8.361,13.587c-2.642,6.881-4.181,14.081-5.719,21.223-3.223,14.806-8.884,28.684-13.819,42.794Z" transform="translate(-11.775 -13.331)"/></g><g transform="translate(327.455 10.322)"><path class="d" d="M129.452,146.079a30.587,30.587,0,0,1-6.677-.813,39.151,39.151,0,0,1-14.139-6.619C97.11,130.6,84.945,121.779,74,111.85A85.133,85.133,0,0,1,54.316,85.982c-1.887-3.861-3.6-7.868-5.284-11.7-2.584-5.894-5.226-11.99-8.361-17.739A124.943,124.943,0,0,0,25.313,34.508,156.724,156.724,0,0,1,15.5,22.169,40.208,40.208,0,0,1,9.549,7.914H45.52c.9.552,1.1,1.481,1.394,3.048l.087.494c3.281,17.129,7.752,35.332,13.674,55.655a73.535,73.535,0,0,0,14.545,27.7,61.476,61.476,0,0,0,13.935,11.845c9.61,5.835,18.029,9.087,26.448,10.248a19.188,19.188,0,0,0,2.206.145c7.665,0,13.674-5.487,14.923-13.645.9-5.545.465-11.061-.029-16.4l-.232-2.787c-1.684-20.352.145-38.061,5.69-54.087,2.119-5.981,5.487-11.41,8.855-16.839a18.347,18.347,0,0,0,.958-1.626,11.637,11.637,0,0,1,2.845-3.745h33.561a36.662,36.662,0,0,1-.29,4.035c-.087,1.306-.2,2.555-.261,3.861a175.855,175.855,0,0,0,2.206,30.339,25.566,25.566,0,0,1-2.961,17.419c-5.2,9.581-9.232,19.887-13.152,29.874l-.377,1.045-1.1,2.816c-4.3,11.09-8.768,22.616-15.358,32.69A45.848,45.848,0,0,1,142.6,141.666a21.254,21.254,0,0,1-13.152,4.413m0,1.161a22.286,22.286,0,0,0,13.819-4.645,46.192,46.192,0,0,0,10.771-11.961c7.2-11.032,11.787-23.429,16.577-35.71,4.065-10.481,8.158-20.961,13.471-30.774a26.926,26.926,0,0,0,3.106-18.2,171.794,171.794,0,0,1-2.177-30.136c.058-2.99.668-5.981.494-9.058H150.442c-2.177,1.394-3.077,3.861-4.384,5.923-3.4,5.4-6.823,10.916-9,17.042-6.1,17.652-7.316,35.942-5.748,54.581.523,6.271,1.306,12.571.29,18.9-1.19,7.723-6.794,12.687-13.79,12.687a16.791,16.791,0,0,1-2.061-.145c-9.406-1.306-17.884-5.168-26.013-10.074A60.6,60.6,0,0,1,76.091,94.024,71.523,71.523,0,0,1,61.807,66.792C56.465,48.5,51.733,30.037,48.133,11.224c-.348-1.771-.523-3.571-2.323-4.471H8.1a42.406,42.406,0,0,0,6.445,16.055,157.932,157.932,0,0,0,9.871,12.484A121.176,121.176,0,0,1,39.655,57.1c5.139,9.435,8.913,19.626,13.616,29.41a85.793,85.793,0,0,0,19.974,26.187c10.887,9.929,22.79,18.581,34.723,26.942a40.614,40.614,0,0,0,14.545,6.765,30.219,30.219,0,0,0,6.939.842Z" transform="translate(-8.097 -6.753)"/></g><g transform="translate(103.732 10.322)"><path class="d" d="M10.959,11.137V9.976a28.062,28.062,0,0,1-5.516-.581A5.415,5.415,0,0,1,2.8,7.914H20.772a24.49,24.49,0,0,1-9.813,2.061v1.161m0,0A26.153,26.153,0,0,0,25.388,6.753h-25A7.774,7.774,0,0,0,5.21,10.527a28.052,28.052,0,0,0,5.748.61Z" transform="translate(-0.391 -6.753)"/></g><path class="d" d="M53.933,56.856V55.695a29.4,29.4,0,0,1-3.542-.232c-9.406-1.132-17.448-6.068-25.258-15.5a89.836,89.836,0,0,1-5.429-7.49,15.317,15.317,0,0,1-2.061-11.061c.552-3.31,3.223-5.052,6.126-6.619,6.126-3.223,13.268-4.848,22.268-5.139,6.5.232,13.326,1.074,19.219,5.6,11.177,8.71,10.713,23.836,6.068,30.977a19.441,19.441,0,0,1-17.39,9.465v1.161m0,0A20.607,20.607,0,0,0,72.311,46.84c4.965-7.694,5.255-23.487-6.358-32.487C60,9.736,53.178,8.749,46.094,8.488c-7.868.261-15.648,1.51-22.848,5.255-2.961,1.626-6.126,3.571-6.765,7.461a16.776,16.776,0,0,0,2.235,11.874,91.08,91.08,0,0,0,5.545,7.606c6.968,8.477,15.213,14.632,25.984,15.939a32.235,32.235,0,0,0,3.687.232Z" transform="translate(547.47 52.205)"/><g transform="translate(516.842 62.639)"><path class="d" d="M102.114,187.8c-1.6,0-2.99-.755-4.645-2.555-3.687-3.977-6.242-8.681-8.913-13.645l-1.219-2.235c-6.3-11.468-11.961-20.874-17.768-29.613C59.436,124.626,47.213,114.7,32.291,109.413a42.531,42.531,0,0,1-11.148-5.719,12.659,12.659,0,0,1-4.935-13.732C18.791,79.713,28.894,71.41,38.736,71.41c6.213.2,12.077,2.468,17.39,4.877,7.955,3.542,16.171,7.229,25.055,8.39a113.293,113.293,0,0,0,14.632.987,75.98,75.98,0,0,0,32.894-6.939c12.919-6.126,21.281-17.216,25.461-33.852.61-2.381,1.161-4.761,1.713-7.142,1.074-4.558,2.177-9.29,3.542-13.877C163.11,11.574,172.372,9.716,177.6,9.716a24.29,24.29,0,0,1,6.039.784c14.836,3.629,25.49,16.694,27.7,34.084,1.016,8.013-1.248,15.619-7.374,24.677-5.777,8.565-12.194,16.839-18.377,24.852-4.413,5.748-8.971,11.671-13.3,17.652C164.3,122.8,154.865,132.7,145.778,142.307c-2.381,2.468-4.7,4.936-7.055,7.4-7.81,8.477-14.952,17.39-21.6,25.781l-1.452,1.829c-2.787,3.6-5.661,7.316-9.755,9.407a8.856,8.856,0,0,1-3.8,1.074m0,1.19a10.217,10.217,0,0,0,4.355-1.248c4.994-2.555,8.158-7.258,11.555-11.5,6.939-8.8,13.965-17.507,21.542-25.723,11.555-12.339,23.6-24.184,33.648-38.09,10.394-14.371,21.774-27.813,31.7-42.532,5.081-7.49,8.826-15.736,7.548-25.432-2.09-16.4-11.874-31.036-28.568-35.1a26.047,26.047,0,0,0-6.3-.813c-8.3,0-16.113,4.355-19.277,14.952-2.119,7-3.513,14.052-5.284,21.077-3.745,14.894-11.352,26.681-24.823,33.1a75.091,75.091,0,0,1-32.4,6.823,105.832,105.832,0,0,1-14.458-.987c-8.681-1.132-16.723-4.7-24.736-8.274-5.719-2.584-11.555-4.79-17.884-4.994-10.306,0-20.932,8.71-23.632,19.423a13.74,13.74,0,0,0,5.371,14.952,43.665,43.665,0,0,0,11.439,5.894c15.445,5.458,27.348,15.939,36.7,29.874,6.358,9.552,12.165,19.452,17.71,29.555,3.106,5.632,5.923,11.41,10.306,16.084,1.858,2.032,3.571,2.961,5.487,2.961Z" transform="translate(-14.62 -8.555)"/></g><g transform="translate(365.168 10.322)"><path class="d" d="M82.267,116.118a13.949,13.949,0,0,1-1.6-.087c-12.832-1.423-24.532-6.852-35.8-16.607-13.181-11.352-18.668-27.377-22.674-43l-1.916-7.461c-3.455-13.384-7.026-27.2-9.348-41.052h101.5a42.068,42.068,0,0,1-4.326,7.752c-.523.813-1.074,1.626-1.568,2.468-5.429,8.855-8.913,19.277-10.626,31.907a134.43,134.43,0,0,0-1.568,22.732c.116,3.8.435,7.635.726,11.352.232,3.165.494,6.329.61,9.523.348,7.432.174,14.023-5.139,19.132a11.706,11.706,0,0,1-8.274,3.339m0,1.161a12.764,12.764,0,0,0,9.058-3.658c5.835-5.574,5.835-12.745,5.545-20.032-.348-7.026-1.132-13.936-1.394-20.874a132.914,132.914,0,0,1,1.6-22.5c1.51-11.206,4.587-21.861,10.452-31.471,2.381-3.832,5.168-7.461,6.5-11.99H9.4a8.442,8.442,0,0,1,.348,1.132C12.5,24.4,16.944,40.547,21.067,56.718,25.335,73.3,31.054,89.031,44.119,100.3c10.684,9.232,22.674,15.358,36.436,16.9a16.925,16.925,0,0,0,1.713.087Z" transform="translate(-9.396 -6.753)"/></g><g transform="translate(12.89 50.068)"><path class="d" d="M19.849,105.787a69.086,69.086,0,0,1-13.181-1.539c-2.7-.523-5.429-.929-8.129-1.335h-.116V82.851a.854.854,0,0,1,.61-.232,4.518,4.518,0,0,1,1.277.319l.29.087a95.647,95.647,0,0,0,15.387,3.89,30.548,30.548,0,0,0,4.384.348,18.057,18.057,0,0,0,3.4-.29c9.958-1.6,16.577-9.726,16.955-20.613.581-17.535-9.7-30.745-26.129-33.677a58.084,58.084,0,0,0-9.29-.523H3.939c-.929,0-1.829,0-2.7-.029H.833c-1.161-.058-1.858-.087-2.41-.668V9.283h1.19c11.061,0,20.236.174,29.526,2.729,13.355,3.6,21.716,12.542,25.548,27.29,3.513,13.674,3.774,25.577.871,36.319-4.5,16.955-14.342,26.942-29.236,29.613a35.615,35.615,0,0,1-6.474.552m0,1.161a36.83,36.83,0,0,0,6.677-.581c16.287-2.932,25.81-14.2,30.165-30.426C60,63.661,58.927,51.206,55.82,39.012c-3.832-14.748-12.4-24.358-26.39-28.132C19.646,8.209,9.659,8.122-.386,8.122H-2.738V31.87c1.016,1.452,2.468,1.365,3.919,1.423.9.029,1.8.029,2.758.029H5.3a59.405,59.405,0,0,1,9.087.494c15.765,2.816,25.723,15.532,25.171,32.516-.348,10.394-6.532,17.971-16,19.51a19.479,19.479,0,0,1-3.194.261,29.8,29.8,0,0,1-4.239-.348A96.923,96.923,0,0,1,.949,81.922a6.825,6.825,0,0,0-1.916-.465,2.172,2.172,0,0,0-1.771.929V103.9c3.077.465,6.155.9,9.174,1.481a70.43,70.43,0,0,0,13.413,1.568Z" transform="translate(2.738 -8.122)"/></g><g transform="translate(503.746 223.971)"><path class="d" d="M22.814,180.932v-1.19H21.246c-4.645-.2-5.777-3.513-5.894-6.3-.174-4.587.958-8.8,2.148-13.268.348-1.394.755-2.787,1.074-4.152.639-2.874,1.365-5.719,2.119-8.536,1.481-5.545,2.932-11.235,3.89-17.071a137.59,137.59,0,0,0,1.945-21.31v-6.3c-.058-10.887-.058-22.152.639-33.184.319-4.819.29-9.7.29-14.4-.029-4.326-.029-8.768.2-13.123l.058-1.248c.319-5.661.639-11.439,2.613-16.752,2.148-5.632,5.894-8.826,10.219-8.826a11.181,11.181,0,0,1,6.329,2.177,21.616,21.616,0,0,1,7.084,8.274c3.223,6.329,3.919,13.094,4.21,18.929.145,2.671.116,5.342.087,8.681-.029,1.771-.029,3.629-.029,5.719A94.588,94.588,0,0,0,62.095,91.8c3.8,11.961,10.161,23.487,19.452,35.3,3.513,4.5,7.026,8.855,10.539,13.268l1.074,1.394a23.914,23.914,0,0,1,3.135,5.6c2.294,5.487,1.452,8.013-3.861,11.352a19.863,19.863,0,0,1-6.445,2.148c-13.181,2.932-25.955,7.781-36.668,12.106-9.552,3.861-17.565,6.765-26.506,6.765v1.19m0,0c9.494,0,18.232-3.339,26.942-6.852,11.932-4.819,23.952-9.29,36.494-12.077a20.665,20.665,0,0,0,6.794-2.293c5.981-3.745,6.735-7.055,4.326-12.8a23.973,23.973,0,0,0-3.281-5.836c-3.89-4.877-7.752-9.755-11.642-14.69C74.23,115.9,67.349,104.519,63.2,91.454c-3.513-11.177-4.21-22.732-3.832-32.371,0-6.184.174-10.336,0-14.487-.348-6.735-1.277-13.3-4.355-19.365a23.277,23.277,0,0,0-7.432-8.739,12.382,12.382,0,0,0-7.026-2.381c-4.616,0-8.855,3.164-11.294,9.581-2.206,5.865-2.41,12.194-2.729,18.348-.523,9.145.058,18.29-.523,27.494-.842,13.181-.639,26.39-.639,39.571a135.583,135.583,0,0,1-1.945,21.135c-1.365,8.681-3.977,16.984-5.981,25.519-1.394,5.836-3.513,11.5-3.252,17.739.2,4.529,2.7,7.2,7,7.374a15.5,15.5,0,0,0,1.626.058Z" transform="translate(-14.169 -14.112)"/></g><g transform="translate(12.89 73.816)"><path class="d" d="M20.865,63.434c-6.387,0-12.658-1.945-18.726-3.832l-.929-.29c-.929-.261-1.858-.523-2.787-.755V10.13c1.074.029,2.119.029,3.194.029H3.794A62.07,62.07,0,0,1,17.149,11.2,28.888,28.888,0,0,1,35.381,25.111,31.7,31.7,0,0,1,38.6,50.166c-2.41,7.752-9,12.977-16.723,13.239l-1.016.029m0,1.161,1.045-.029a19.467,19.467,0,0,0,17.8-14.052c5.226-17.274-5.545-36.7-22.326-40.442A61.317,61.317,0,0,0,3.794,9H1.617C.194,9-1.286,9-2.738,8.94V59.456c1.248.319,2.41.61,3.6.958,6.59,2.032,13.094,4.181,20,4.181Z" transform="translate(2.738 -8.94)"/></g><g transform="translate(188.772 205.216)"><path class="d" d="M10.922,130.321c-4.094,0-6.242-2.845-6.416-8.448-.2-6.5.958-12.861,2.235-18.726C8.077,97.166,9.79,91.215,11.5,85.466c1.51-5.11,3.048-10.452,4.326-15.765A91.133,91.133,0,0,0,16.99,33.876a49.67,49.67,0,0,1-.813-10.713c.232-5.313,2.671-8.536,6.59-8.536A11.009,11.009,0,0,1,27.3,15.789a58.726,58.726,0,0,1,8.768,5.371,258.709,258.709,0,0,0,23.4,14.284l3.948,2.206c5.342,3.019,12.194,7.229,17.826,13.442,4.355,4.848,6.3,9.784,5.923,15.271.319,7.316-2.148,13.645-7.665,19.945-5.342,6.01-11.816,10.51-18.552,15.01-9.842,6.619-20,13.5-30.368,20.09l-1.132.726c-4.79,3.077-9.755,6.213-15.242,7.723a14.137,14.137,0,0,1-3.281.465m0,1.19a14.1,14.1,0,0,0,3.571-.552c6.1-1.655,11.41-5.2,16.723-8.565,10.219-6.532,20.323-13.355,30.368-20.119,6.706-4.442,13.268-9,18.784-15.213,5.139-5.806,8.3-12.339,7.955-20.758.435-6.271-2.148-11.468-6.213-16-5.255-5.777-11.555-9.987-18.145-13.674-9.2-5.226-18.523-10.219-27.232-16.4a58.575,58.575,0,0,0-8.942-5.487,12.107,12.107,0,0,0-5.023-1.277c-4.5,0-7.49,3.484-7.752,9.668a51.107,51.107,0,0,0,.842,10.945A90.636,90.636,0,0,1,14.7,69.44C12.025,80.7,8.135,91.534,5.609,102.856c-1.365,6.271-2.468,12.6-2.265,19.074.174,6.271,2.816,9.581,7.577,9.581Z" transform="translate(-3.32 -13.466)"/></g><g transform="translate(403.091 51.751)"><path class="d" d="M19.492,30.767a4.872,4.872,0,0,1-2.265-.726c-2.671-1.568-5.052-6.242-5.342-10.655-.145-2.148.087-6.155,3.339-8.681a5.8,5.8,0,0,1,3.339-1.365c2.41.232,4.3,1.8,6.01,4.936,2.5,4.442,1.481,11.177-2.294,15.039a3.941,3.941,0,0,1-2.787,1.452m0,1.161A5.108,5.108,0,0,0,23.121,30.1c3.948-4.036,5.284-11.352,2.468-16.374-1.452-2.7-3.542-5.226-6.91-5.545A6.838,6.838,0,0,0,14.5,9.806c-7.084,5.516-3.019,18.232,2.177,21.223a5.609,5.609,0,0,0,2.816.9Z" transform="translate(-10.702 -8.18)"/></g><g transform="translate(201.513 10.322)"><path class="d" d="M14.094,15.288c-4.732,0-7.142-3.716-8.361-6.852l-.174-.523H27.536A21.146,21.146,0,0,1,18.1,14.534a11.574,11.574,0,0,1-4.006.755m0,1.161a12.706,12.706,0,0,0,4.413-.842A21.645,21.645,0,0,0,29.8,6.753H3.759c.29.755.639,1.365.9,2.119,1.916,4.965,5.2,7.577,9.435,7.577Z" transform="translate(-3.759 -6.753)"/></g><g transform="translate(40.534 168.635)"><path class="d" d="M68.815,130.077h0a11.588,11.588,0,0,1-3.484-.61c-6.823-2.265-12.513-6.765-16.723-10.423-7.606-6.532-15.765-12.484-23.661-18.29-4.529-3.281-9.232-6.736-13.79-10.219A38.621,38.621,0,0,1,4.1,83.48c-6.823-9.29-6.3-17.826,1.742-27.639A59.552,59.552,0,0,1,17.224,45.767C28.576,37.551,40.16,29.248,51.337,21.293l1.6-1.132a42.565,42.565,0,0,1,11.99-6.242,12.039,12.039,0,0,1,3.484-.552c3.629,0,6.184,2.148,7.839,6.59,2.381,6.445,3.4,13.529,3.194,22.355-.174,7.548-.668,15.242-1.161,22.732L77.9,70.474a157.325,157.325,0,0,0,.726,24.445c.174,1.771.319,3.455.523,5.226.7,6.126,1.365,12.484.232,18.7a16.1,16.1,0,0,1-2.177,6.126c-2.061,3.31-5.081,5.11-8.39,5.11m0,1.132c3.745,0,7.055-1.974,9.377-5.6a17.764,17.764,0,0,0,2.323-6.561c1.51-8.129-.029-16.113-.726-24.213a157.894,157.894,0,0,1-.726-24.3c.61-9.406,1.306-18.784,1.539-28.19.174-7.81-.552-15.474-3.281-22.79-1.8-4.848-4.79-7.345-8.913-7.345a12.512,12.512,0,0,0-3.832.61,43.88,43.88,0,0,0-12.339,6.416C40.305,27.738,28.4,36.216,16.557,44.838A59.892,59.892,0,0,0,4.944,55.087c-7.577,9.261-9.552,18.581-1.771,29.061a37.821,37.821,0,0,0,7.287,7.316c12.426,9.581,25.461,18.145,37.365,28.481,5.2,4.471,10.684,8.448,17.129,10.6a12.279,12.279,0,0,0,3.861.668Z" transform="translate(1.786 -12.206)"/></g><g transform="translate(339.573 146.977)"><path class="d" d="M95.048,126.544l-.639-.029c-4.181-.232-8.448-1.539-13.471-4.123a101.008,101.008,0,0,1-24.271-18C49.932,97.57,44.648,88.744,40.525,77.363A154.116,154.116,0,0,0,16.457,33.844a46.528,46.528,0,0,1-5.313-9.436c-1.568-3.4-2.119-5.865-.435-8.419,1.539-2.294,3.745-3.339,6.968-3.339h.987c5.487.348,10.887,2.235,17.042,5.923,9.9,5.894,17.536,14.313,23.69,21.774,11.613,14.168,21.426,25.2,30.89,34.723,1.771,1.742,3.513,3.455,5.342,5.168,3.164,3.106,6.5,6.271,9.581,9.639a32.538,32.538,0,0,1,6.91,11.642,19.265,19.265,0,0,1-1.8,15.445,18.334,18.334,0,0,1-11.526,8.913l-.435.116a13.375,13.375,0,0,1-3.31.552m0,1.19a16.167,16.167,0,0,0,4.035-.726c10.742-2.439,17.652-15.1,14.139-25.868a33.482,33.482,0,0,0-7.171-12.077c-4.761-5.2-9.958-9.871-14.923-14.806C80.27,63.312,70.109,51.554,60.267,39.592,53.212,31,45.664,23.131,36.257,17.557c-5.429-3.281-11.236-5.661-17.506-6.068-.348-.029-.726-.029-1.074-.029-3.077,0-5.952.9-7.926,3.861-2.177,3.281-1.1,6.416.348,9.552a43.751,43.751,0,0,0,5.458,9.668A152.09,152.09,0,0,1,39.422,77.77c3.745,10.277,8.855,19.771,16.461,27.435a100.461,100.461,0,0,0,24.561,18.2,34.084,34.084,0,0,0,13.877,4.268l.726.058Z" transform="translate(-8.514 -11.46)"/></g><g transform="translate(584.09 151.448)"><path class="d" d="M40.318,62.45V61.288c-4.326,0-8.361-2.613-13.384-8.71a43.451,43.451,0,0,1-8.39-17.565c-1.365-5.4.61-10.248,5.313-12.977,6.126-3.6,12.919-4.994,19.336-6.126A241.7,241.7,0,0,1,69.118,12.8l.842-.029a31.389,31.389,0,0,1,5.487.668,5.454,5.454,0,0,1,3.484,2.177,6.265,6.265,0,0,1,.842,4.732c-.813,4.181-2.613,8.245-5.806,13.094a84.564,84.564,0,0,1-23.2,23.777c-3.977,2.758-7.4,4.065-10.452,4.065V62.45m0,0c3.31,0,6.91-1.365,11.09-4.268A84.763,84.763,0,0,0,74.954,34.056a37.222,37.222,0,0,0,5.952-13.5c.784-4.006-1.481-7.577-5.284-8.245a30.8,30.8,0,0,0-5.661-.7c-.29,0-.61,0-.929.029A240.938,240.938,0,0,0,42.96,14.779c-6.765,1.19-13.5,2.642-19.655,6.271-5.139,2.961-7.4,8.245-5.923,14.255a45.077,45.077,0,0,0,8.623,18c4.877,5.894,9.261,9.145,14.313,9.145Z" transform="translate(-16.937 -11.614)"/></g></g></g></g></svg>