<svg xmlns="http://www.w3.org/2000/svg" width="730.599" height="364.571" viewBox="0 0 730.599 364.571"><defs><style>.a{fill:#e9e5f7;}</style></defs><g transform="translate(0 0)"><path class="a" d="M782.555,462.039,709.109,496.8l65-48.606a366.819,366.819,0,0,0-35.492-46.7L420.093,480.662l287.72-109.755a366.751,366.751,0,0,0-41.781-31.846L180.671,417.239a363.749,363.749,0,0,0-79.665,227h730.6a363.553,363.553,0,0,0-49.051-182.2Z" transform="translate(-101.006 -279.671)"/><path class="a" d="M657.027,294.918a363.816,363.816,0,0,0-160-36.82c-112.841,0-213.726,51.167-280.734,131.56C331.035,364.516,530.816,320.994,657.027,294.918Z" transform="translate(-131.724 -258.098)"/></g></svg>