<svg xmlns="http://www.w3.org/2000/svg" width="482.164" height="385.381" viewBox="0 0 482.164 385.381"><defs><style>.a,.e{fill:#6c63ff;}.a,.d{opacity:0.1;}.b{fill:#ff8f2b;}.c{fill:#16476a;}.f{fill:#323444;}.g{fill:#fbb3b2;}.h{fill:#5b5583;}.i{fill:#ff6c2b;}.j{fill:#091d2c;}.k{fill:#3c354c;}.l{fill:#cbceda;}.m{fill:#a8a8a8;}.n{opacity:0.2;}</style></defs><g transform="translate(0)"><rect class="a" width="43.724" height="13.219" rx="6.609" transform="translate(98.567 66.094)"/><rect class="a" width="43.724" height="13.219" rx="6.609" transform="translate(144.325 79.313)"/><rect class="a" width="43.724" height="13.219" rx="6.609" transform="translate(190.082 92.532)"/><rect class="a" width="43.724" height="13.219" rx="6.609" transform="translate(98.567 46.266)"/><rect class="a" width="43.724" height="13.219" rx="6.609" transform="translate(144.325 59.485)"/><rect class="a" width="43.724" height="13.219" rx="6.609" transform="translate(190.082 72.704)"/><rect class="a" width="43.724" height="13.219" rx="6.609" transform="translate(240.924 66.094)"/><rect class="a" width="43.724" height="13.219" rx="6.609" transform="translate(286.682 79.313)"/><rect class="a" width="43.724" height="13.219" rx="6.609" transform="translate(332.439 92.532)"/><rect class="a" width="43.724" height="13.219" rx="6.609" transform="translate(240.924 46.266)"/><rect class="a" width="43.724" height="13.219" rx="6.609" transform="translate(286.682 59.485)"/><rect class="a" width="43.724" height="13.219" rx="6.609" transform="translate(332.439 72.704)"/><rect class="a" width="43.724" height="13.219" rx="6.609" transform="translate(98.567 19.828)"/><rect class="a" width="43.724" height="13.219" rx="6.609" transform="translate(144.325 33.047)"/><rect class="a" width="43.724" height="13.219" rx="6.609" transform="translate(190.082 46.266)"/><rect class="a" width="43.724" height="13.219" rx="6.609" transform="translate(98.567)"/><rect class="a" width="43.724" height="13.219" rx="6.609" transform="translate(144.325 13.219)"/><rect class="a" width="43.724" height="13.219" rx="6.609" transform="translate(190.082 26.438)"/><rect class="a" width="43.724" height="13.219" rx="6.609" transform="translate(240.924 19.828)"/><rect class="a" width="43.724" height="13.219" rx="6.609" transform="translate(286.682 33.047)"/><rect class="a" width="43.724" height="13.219" rx="6.609" transform="translate(332.439 46.266)"/><rect class="a" width="43.724" height="13.219" rx="6.609" transform="translate(240.924)"/><rect class="a" width="43.724" height="13.219" rx="6.609" transform="translate(286.682 13.219)"/><rect class="a" width="43.724" height="13.219" rx="6.609" transform="translate(332.439 26.438)"/><rect class="a" width="43.724" height="13.219" rx="6.609" transform="translate(98.567 301.492)"/><rect class="a" width="43.724" height="13.219" rx="6.609" transform="translate(144.325 314.711)"/><rect class="a" width="43.724" height="13.219" rx="6.609" transform="translate(190.082 327.93)"/><rect class="a" width="43.724" height="13.219" rx="6.609" transform="translate(98.567 281.664)"/><rect class="a" width="43.724" height="13.219" rx="6.609" transform="translate(144.325 294.883)"/><rect class="a" width="43.724" height="13.219" rx="6.609" transform="translate(190.082 308.102)"/><rect class="a" width="43.724" height="13.219" rx="6.609" transform="translate(240.924 301.492)"/><rect class="a" width="43.724" height="13.219" rx="6.609" transform="translate(286.682 314.711)"/><rect class="a" width="43.724" height="13.219" rx="6.609" transform="translate(332.439 327.93)"/><rect class="a" width="43.724" height="13.219" rx="6.609" transform="translate(240.924 281.664)"/><rect class="a" width="43.724" height="13.219" rx="6.609" transform="translate(286.682 294.883)"/><rect class="a" width="43.724" height="13.219" rx="6.609" transform="translate(332.439 308.102)"/><rect class="a" width="43.724" height="13.219" rx="6.609" transform="translate(98.567 255.226)"/><rect class="a" width="43.724" height="13.219" rx="6.609" transform="translate(144.325 268.445)"/><rect class="a" width="43.724" height="13.219" rx="6.609" transform="translate(190.082 281.664)"/><rect class="a" width="43.724" height="13.219" rx="6.609" transform="translate(98.567 235.398)"/><rect class="a" width="43.724" height="13.219" rx="6.609" transform="translate(144.325 248.617)"/><rect class="a" width="43.724" height="13.219" rx="6.609" transform="translate(190.082 261.835)"/><rect class="a" width="43.724" height="13.219" rx="6.609" transform="translate(240.924 255.226)"/><rect class="a" width="43.724" height="13.219" rx="6.609" transform="translate(286.682 268.445)"/><rect class="a" width="43.724" height="13.219" rx="6.609" transform="translate(332.439 281.664)"/><rect class="a" width="43.724" height="13.219" rx="6.609" transform="translate(240.924 235.398)"/><rect class="a" width="43.724" height="13.219" rx="6.609" transform="translate(286.682 248.617)"/><rect class="a" width="43.724" height="13.219" rx="6.609" transform="translate(332.439 261.835)"/><ellipse class="a" cx="222.941" cy="18.303" rx="222.941" ry="18.303" transform="translate(22.304 348.775)"/><path class="b" d="M168.858,252.051c21.023,9.111,33.1,27.963,33.1,27.963s-22.009,4.067-43.038-5.038-33.1-27.963-33.1-27.963S147.829,242.94,168.858,252.051Z" transform="translate(-125.82 -157.079)"/><path class="b" d="M331.579,173.761c6.5-10.677,17.576-15.761,17.576-15.761s.508,12.172-5.974,22.818S325.6,196.543,325.6,196.543,325.071,184.377,331.579,173.761Z" transform="translate(-224.023 -113.768)"/><path class="c" d="M241.494,179.94c4.652,16.6,17.474,27.536,17.474,27.536s5.283-16,.63-32.61S242.12,147.33,242.12,147.33,236.837,163.33,241.494,179.94Z" transform="translate(-181.74 -108.522)"/><rect class="c" width="370.637" height="185.573" rx="7.21" transform="translate(60.436 70.67)"/><path class="d" d="M118.87,482H489.507v7.52a3.666,3.666,0,0,1-3.666,3.666H122.536a3.666,3.666,0,0,1-3.666-3.666Z" transform="translate(-58.434 -236.942)"/><rect class="e" width="27.455" height="13.727" rx="2.5" transform="translate(96.533 231.33)"/><rect class="e" width="18.811" height="2.034" rx="1.017" transform="translate(131.614 243.024)"/><path class="e" d="M322.7,272.941c13.417,2.476,27.1,0,40.465-1.678l40.607-5.084c1.642-.208,4.032-1.19,5,.819.544,1.124.178,3.559.219,4.85.107,3.559.1,7.118,0,10.677-.183,6.8-.681,13.59-1.317,20.362-1.235,13.254-2.984,26.438-3.859,39.743-.447,6.772-.671,13.565-.473,20.337.046,1.617.112,3.234.208,4.845.107,1.8.915,4.484-1.052,5.689-1.124.691-3.335.656-4.622.859-2.034.32-4.067.575-6.142.783-13.671,1.368-27.521.8-41.243.717l-41.436-.214-10.107-.056c-.915,0-4.215.549-4.779-.539-.239-.463.4-2.629.508-3.208q.234-1.434.508-2.862c1.18-6.686,2.573-13.331,3.976-19.971,3.015-14.236,6.1-28.543,7.342-43.083.615-7.3.208-14.658.961-21.938.351-3.381.768-10.926,5.267-11.226,3.813-.254,7.738,0,11.561,0a.763.763,0,0,0,0-1.525c-3.61,0-7.225-.1-10.834-.025-2.4.046-4.067.615-5.211,2.822-2.923,5.664-2.623,13.219-2.715,19.4-.219,14.8-2.491,29.285-5.45,43.76-1.49,7.286-3.1,14.546-4.576,21.837-.7,3.483-1.363,6.975-1.973,10.478-.285,1.668-1.724,5.343-.458,6.874s5.16.707,6.9.717l12.131.071,23.245.132c15.019.086,30.088.508,45.1.066,7.169-.214,14.744-.508,21.725-2.222,2.079-.508,3.081-1.464,3.162-3.681.122-3.437-.437-6.981-.508-10.433-.508-29.539,6.432-58.666,5.72-88.216-.046-2.008.712-7.072-1.485-8.287-.986-.549-2.268-.249-3.3-.127-1.983.229-3.961.508-5.943.742L374.07,268.36c-8.231,1.017-16.458,2.115-24.7,3.05-8.73,1.017-17.546,1.622-26.245,0-.961-.178-1.373,1.291-.407,1.469Z" transform="translate(-207.787 -165.98)"/><path class="e" d="M319.29,310.437l101.592-4.982c.981-.051.986-1.576,0-1.525L319.29,308.911C318.314,308.957,318.309,310.482,319.29,310.437Z" transform="translate(-220.566 -185.503)"/><path class="e" d="M380.89,287.248a2.542,2.542,0,0,0,.9,4.1c1.368.625,2.974.1,4.332-.239,2.034-.508,4.067-.961,6.157-1.332a83.968,83.968,0,0,1,13.773-1.281c2.1-.025,4.194.071,6.3.163,1.525.061,3.167.183,4.459-.763a2.879,2.879,0,0,0,.508-4.494c-2.034-1.856-6.416-.778-8.765-.585A196.56,196.56,0,0,0,383.2,286.6c-.956.2-.554,1.678.407,1.469q8.272-1.785,16.671-2.867,4.128-.508,8.272-.859c1.3-.107,2.6-.2,3.9-.28.508-.031,1.047-.086,1.566-.071,1.612.036,1.8-.254.834,1.693-.859,1.724-.585,1.525-2.074,1.469-.63,0-1.261-.071-1.891-.1q-1.937-.081-3.874-.086-4.123,0-8.226.4c-2.318.224-4.632.539-6.925.946-1.434.254-2.857.549-4.276.874-.625.147-1.256.3-1.881.458-.3.081-.605.152-.905.229q-1.668.58-2.842-1.525c.681-.707-.391-1.79-1.078-1.078Z" transform="translate(-250.867 -174.888)"/><path class="e" d="M394.345,333.544c-7.357-.285-15.3,1.7-20.149,7.626-3.793,4.632-5.954,12.578-1.937,17.795,4.316,5.593,13.783,4.606,19.493,2.222,6.04-2.542,12.649-7.784,14.465-14.342,2.262-8.191-5.084-14.383-12.736-14.475a.763.763,0,0,0,0,1.525c4.362.051,8.643,1.922,10.677,5.984,2.13,4.281.295,8.775-2.542,12.2-4.545,5.455-11.653,9.568-18.893,9.451-4.347-.066-9.152-1.556-10.5-6.142a14.194,14.194,0,0,1,1.668-11.073c4.179-7.118,12.685-9.528,20.484-9.223.981.036.981-1.49,0-1.525Z" transform="translate(-245.907 -199.485)"/><path class="e" d="M400.827,351.975a1.983,1.983,0,0,0-2.664,2.034c.153,1.983,2.339,2.542,3.981,2.425,1.419-.122,3.076-.646,2.578-2.42a2.278,2.278,0,0,0-1.241-1.434,2.873,2.873,0,0,0-1.434-.178c-.188,0-1.912.63-1.179-.127l-1.2-.158a1.251,1.251,0,0,1,.366,1.017.768.768,0,0,0,1.144.656,1.017,1.017,0,0,1,1.378,1.19.768.768,0,0,0,1.393.59c.508-.915,1.124-2.735.361-3.691a1.627,1.627,0,0,0-2.1-.076,7.355,7.355,0,0,0-1.047.9c-.615.544-1.017.8-.788-.244.381-1.9,2.191-3.406,3.844-4.164l-1.118-.859a16.076,16.076,0,0,1-3.076,6.025l1.3.539a3.4,3.4,0,0,1,2.074-3.31h-.747l.4.651c-.147.961,1.322,1.373,1.469.4.193-1.256-.6-2.888-2.069-2.273A4.788,4.788,0,0,0,399.82,354c0,.61.864,1.083,1.307.544a17.927,17.927,0,0,0,3.462-6.706.773.773,0,0,0-1.124-.859,8.527,8.527,0,0,0-3.7,3.223c-.62,1.017-1.4,2.6-.768,3.772a1.617,1.617,0,0,0,2.212.625,5.949,5.949,0,0,0,1.276-1.017c.188-.168.4-.458.646-.508.224-.153.214-.066-.036.269a2.771,2.771,0,0,1-.442,1.485l1.393.585a2.542,2.542,0,0,0-3.615-2.913l1.149.661a2.771,2.771,0,0,0-.575-1.795.773.773,0,0,0-1.195-.158,2,2,0,0,0,.051,2.954c.727.554,1.083,0,1.881-.127,2.71-.351,1.129.869.173.91a3.6,3.6,0,0,1-1.276-.091q-1.591-.539-.2-1.388c.91.371,1.3-1.1.407-1.469Z" transform="translate(-259.695 -206.618)"/><path class="e" d="M393.668,361.473c.625,2.034-1.957,2.7-3.183,3.406a7.089,7.089,0,0,0-2.2,1.927,14.721,14.721,0,0,0-2.181,5.964c-.193.961,1.276,1.368,1.474.407a17.288,17.288,0,0,1,1.286-4.388c.915-1.82,2.227-2.43,3.935-3.366s2.944-2.384,2.339-4.357C394.853,360.13,393.379,360.532,393.668,361.473Z" transform="translate(-253.762 -213.33)"/><path class="e" d="M398.138,360.37a1.474,1.474,0,0,0-1.271,1.525c0,.605.4.991.676,1.474a11.64,11.64,0,0,1,1.474,3.208c.244,1.093.483,3.05-.086,4.067-1.052,1.886-2.954,1.525-4.576,1.525-1.525,0-2.7.508-2.654-1.617a6.763,6.763,0,0,1,1.525-3.345l-1.393-.183a26.57,26.57,0,0,1,.463,4.708c0,.707,1.083,1.1,1.419.381a29.458,29.458,0,0,0,1.937-5.359l-1.5-.2.264,3.864a.768.768,0,0,0,1.419.386,1.729,1.729,0,0,0,.381-.686c.051-.239-.417-1.851-.605-1.276l1.495.2.107-3.671-1.525.2a7.6,7.6,0,0,1,.285,3.2c-.1.849,1.332,1.042,1.525.2l.956-4.932-1.393.178a3.371,3.371,0,0,1,.259,2.2c-.112.976,1.413.966,1.525,0a5.359,5.359,0,0,0-.468-2.964.768.768,0,0,0-1.393.183l-.961,4.932,1.5.2a8.317,8.317,0,0,0-.341-3.6.763.763,0,0,0-1.495.2l-.107,3.671a.766.766,0,0,0,1.5.2l.081-.249a.773.773,0,0,0-.193-.742c-1.581-1.718-1.9,1.017-2.451,1.774l1.424.386-.264-3.864a.767.767,0,0,0-1.5-.2,27.329,27.329,0,0,1-1.78,5l1.424.386a28.749,28.749,0,0,0-.508-5.115c-.132-.7-1.052-.671-1.393-.183-1.017,1.464-2.776,4.662-1.419,6.416,1.185,1.525,4.911.936,6.5.839,2.512-.142,3.422-1.734,3.7-4.1a10.047,10.047,0,0,0-.188-3.4c-.137-.6-1.525-4.4-1.942-4.327.966-.178.554-1.652-.407-1.474Z" transform="translate(-255.69 -213.249)"/><path class="e" d="M395.858,365.079l-4.164,5.5,1.317.768,3.05-4.413-1.393-.59-1.52,5.8a.768.768,0,0,0,1.393.59,26.807,26.807,0,0,1,2.323-3.269l-1.271-.742a8.3,8.3,0,0,1-1.917,3.523l1.276.742a6.814,6.814,0,0,1,.554-2.034c.392-.88-.849-1.657-1.317-.773a17.888,17.888,0,0,1-1.469,2.308l1.393.183.31-1.449-1.393-.183.224,1.271a.768.768,0,0,0,1.276.336,15.181,15.181,0,0,0,3.05-4.6h-1.312a6.847,6.847,0,0,1,.717,2.034c.183.915,1.4.575,1.495-.2a41.332,41.332,0,0,0,.336-5.135h-1.525v3.2c0,.829,1.358,1.073,1.5.2a5.825,5.825,0,0,1,.747-2.186H398.2a3.391,3.391,0,0,1,.508,1.729.763.763,0,1,0,1.525,0l.193-1.017h-1.469c.147.9.707,5.969-1.281,5.374-.336-.081-.432-.061-.29.056l.453-.966,1.063-2.252-1.424-.386c.092,1.047.188,2.542-.442,3.437a2.634,2.634,0,0,1-2.873.59,5.087,5.087,0,0,1-1.327-1.393l-1.042,1.017c.844.615,2.212,2.125,3.3,2.212.829.066,1.525-.62,2.069-1.169a8.861,8.861,0,0,0,2.486-6.523.763.763,0,1,0-1.525,0V368.4a.763.763,0,0,0,1.525,0v-4.266a.763.763,0,1,0-1.525,0,18.309,18.309,0,0,1-.264,3.051l1.5.2a35.1,35.1,0,0,1-.168-3.656.763.763,0,0,0-1.495-.2c-.229.971-.508,1.927-.778,2.878l1.393-.183-.107-.407c-.071-.971-1.6-.976-1.525,0A2.791,2.791,0,0,0,397,367a.771.771,0,0,0,1.393-.183c.29-.956.549-1.912.778-2.878l-1.5-.2a35.087,35.087,0,0,0,.168,3.655c.076.783,1.337,1.119,1.495.2a21.017,21.017,0,0,0,.32-3.478h-1.525v4.266h1.525V366.64h-1.525a7.331,7.331,0,0,1-1.856,5.226,6.24,6.24,0,0,1-.641.63c-.361.346-.691.295-.981-.158a12.705,12.705,0,0,1-2.1-1.525c-.63-.453-1.495.442-1.047,1.042,1.169,1.556,2.913,3.289,5.084,2.542,2.283-.808,2.593-3.9,2.42-5.933-.056-.676-1.068-1.134-1.419-.381-.508,1.073-1.017,2.14-1.525,3.218a2.844,2.844,0,0,0-.458,1.342c.168,1.144,1.556.956,2.41.89,3.31-.249,2.786-4.942,2.4-7.3-.127-.783-1.266-.661-1.469,0a4.489,4.489,0,0,0-.249,1.444h1.525a6.045,6.045,0,0,0-.717-2.5.768.768,0,0,0-1.317,0,7.41,7.41,0,0,0-.9,2.542l1.525.2v-3.2a.763.763,0,0,0-1.525,0,41.326,41.326,0,0,1-.336,5.135l1.5-.2a8.729,8.729,0,0,0-.869-2.379.768.768,0,0,0-1.317,0,13.91,13.91,0,0,1-2.812,4.291l1.276.336-.224-1.271c-.117-.676-1.073-.7-1.393-.183a3.345,3.345,0,0,0-.463,2.623c.127.722,1.042.646,1.393.183a17.838,17.838,0,0,0,1.469-2.3l-1.317-.773a8.676,8.676,0,0,0-.712,2.395c-.091.671.707,1.373,1.276.742a10.168,10.168,0,0,0,2.308-4.2c.188-.691-.768-1.347-1.276-.742a29.12,29.12,0,0,0-2.542,3.559l1.393.59,1.551-5.781a.768.768,0,0,0-1.393-.59l-3.051,4.418c-.569.819.737,1.525,1.317.768l4.149-5.491c.59-.783-.732-1.525-1.317-.773Z" transform="translate(-256.363 -214.532)"/><path class="e" d="M526.657,351.319c6.1-3.732,10.951-9.3,16.341-13.956,5.847-5.049,11.983-9.751,18.3-14.205,12.273-8.643,25.162-16.376,38.04-24.089a.763.763,0,0,0-.768-1.317c-12.878,7.713-25.772,15.43-38.045,24.089-5.791,4.067-11.445,8.379-16.864,12.954-5.9,4.983-11.15,11.185-17.794,15.207-.839.508-.071,1.83.768,1.317Z" transform="translate(-322.299 -182.423)"/><path class="e" d="M689.718,253.846c-6.609.671-13.727,2.354-17.795,8.135-3.513,4.972-3.437,13.646-.137,18.751,3.747,5.8,11.4,6.009,17.352,4.133s12.105-5.166,12.049-12.273c-.031-3.813-1.408-7.784-2.929-11.241-1.312-2.984-3.635-5.593-7.153-5.262-.971.092-.981,1.617,0,1.525,4.713-.437,6.228,5.16,7.347,8.694,1.017,3.3,1.957,7.2.361,10.484s-5.445,4.952-8.735,6.152c-3.559,1.291-7.469,2.079-11.185,1.017-7.362-2.059-9.4-11.389-7.276-18.008,2.44-7.626,11.083-9.868,18.125-10.58.966-.1.976-1.622,0-1.525Z" transform="translate(-392.985 -160.882)"/><path class="e" d="M709.718,369.846c-6.609.671-13.727,2.354-17.795,8.135-3.513,4.972-3.437,13.646-.137,18.75,3.747,5.8,11.4,6.009,17.352,4.133s12.105-5.166,12.05-12.273c-.031-3.813-1.408-7.784-2.929-11.241-1.312-2.984-3.635-5.593-7.153-5.262-.971.091-.981,1.617,0,1.525,4.713-.437,6.228,5.16,7.347,8.694,1.017,3.3,1.957,7.2.361,10.484s-5.445,4.952-8.735,6.152c-3.559,1.291-7.469,2.079-11.185,1.017-7.362-2.059-9.4-11.389-7.276-18.008,2.44-7.626,11.084-9.868,18.125-10.58.966-.1.976-1.622,0-1.525Z" transform="translate(-402.816 -217.905)"/><path class="e" d="M689.672,257.916l4.815,5.491a.768.768,0,0,0,1.271-.341c1.017-2.674.824-5.445,1.063-8.257a27.185,27.185,0,0,1,2.161-8.425,28.436,28.436,0,0,1,11.378-13.041c.839-.508.071-1.83-.768-1.317a29.853,29.853,0,0,0-11.505,12.639,29.213,29.213,0,0,0-2.542,8.069c-.508,3.3-.046,6.757-1.266,9.924l1.276-.341-4.789-5.481c-.651-.737-1.724.346-1.078,1.078Z" transform="translate(-402.909 -150.101)"/><path class="e" d="M531.887,412.675q39.336-1.2,78.693-.508a.763.763,0,0,0,0-1.525q-39.347-.7-78.693.508C530.905,411.18,530.9,412.705,531.887,412.675Z" transform="translate(-325.072 -237.835)"/><path class="e" d="M697.69,383.835a157.566,157.566,0,0,1,25.761,12.944c.834.508,1.6-.8.768-1.317a159.238,159.238,0,0,0-26.1-13.1c-.91-.361-1.307,1.113-.4,1.469Z" transform="translate(-406.702 -224.034)"/><path class="e" d="M715.722,371.477a62.281,62.281,0,0,0-14.953,37.892c-.041.981,1.485.981,1.525,0A60.573,60.573,0,0,1,716.8,372.554C717.435,371.812,716.362,370.729,715.722,371.477Z" transform="translate(-408.454 -218.585)"/><path class="e" d="M329.5,401.633l56.826-.742,6.533-.086c1.174,0,2.349-.041,3.523-.046a2.8,2.8,0,0,1,2.735,3.051c-.076,3.559-2.313,3.432-5.242,3.559l-7.062.32-28.756,1.266c-5.15.229-10.306.508-15.456.686-4.647.142-13.483-1.373-11.419-8.135.285-.941-1.185-1.342-1.474-.407-1.017,3.325.783,6.7,3.681,8.445,4.113,2.471,9.533,1.632,14.073,1.429l35.3-1.6,8.572-.381c2.2-.1,5.252.346,7.27-.676,2.369-1.195,2.786-5.938,1.291-7.936-.768-1.017-1.846-1.108-3.051-1.154-3.162-.122-6.381.086-9.548.127l-17.6.234-40.221.508a.763.763,0,0,0,0,1.525Z" transform="translate(-225.573 -232.33)"/><g transform="translate(326.375 114.202)"><path class="f" d="M774.9,761.087c-1.281.8-2.746,1.256-4.068,1.963a5.566,5.566,0,0,0-2.984,3.233,2.034,2.034,0,0,0,.066,1.383,2.685,2.685,0,0,0,1.424,1.129,21.6,21.6,0,0,0,17.088.193,22.535,22.535,0,0,1,2.949-1.169,19.153,19.153,0,0,1,3.777-.386,29.031,29.031,0,0,0,3.971-.508,3.492,3.492,0,0,0,1.8-.747,3.341,3.341,0,0,0,.808-1.942,15.99,15.99,0,0,0-2.542-11.328,3.824,3.824,0,0,0-1.108-1.174,4.275,4.275,0,0,0-1.764-.473c-2.542-.31-5.206-.88-7.774-.941-1.841-.041-2.766.834-4.067,2.1C779.79,755.108,778.219,759.018,774.9,761.087Z" transform="translate(-767.762 -519.141)"/><path class="f" d="M855.21,760.476c0,2.491.3,5.13,1.81,7.118a9.4,9.4,0,0,0,2.471,2.161c3.193,2.034,7.423,2.781,10.789,1.058a3.2,3.2,0,0,0,1.342-1.129,3.846,3.846,0,0,0-.046-2.964l-4.871-16.88c-3.147.483-7.774.824-10.57,2.42C854.107,753.414,855.21,758.249,855.21,760.476Z" transform="translate(-810.603 -518.907)"/><path class="g" d="M773.782,561.894c-.295.93-1.363,1.363-1.947,2.146a4.072,4.072,0,0,0-.366,3.315,8.764,8.764,0,0,0,2.232,4.4,5.272,5.272,0,0,0,4.576,1.556,3.813,3.813,0,0,0,3.106-3.422,6.477,6.477,0,0,0-.478-2.2l-3.467-10.026a.379.379,0,0,0-.625-.275c-.818.386-2.461.793-2.939,1.642S774.128,560.974,773.782,561.894Z" transform="translate(-769.497 -424.261)"/><path class="f" d="M773,557.311a16.44,16.44,0,0,0,3.559-1.429,3.673,3.673,0,0,1,3.666.137c.285.234.559.554.93.549a36.4,36.4,0,0,0-2.278-7.24.564.564,0,0,0-.2-.28.575.575,0,0,0-.432,0l-3.422.895c-1.266.331-1.413.229-1.317,1.474C773.534,551.973,773.819,557.311,773,557.311Z" transform="translate(-770.337 -420.181)"/><path class="h" d="M770.283,422.746a4.819,4.819,0,0,0-.508,2.679,91.1,91.1,0,0,0,.712,13.478c.158,1.068.356,2.135.458,3.213a37.061,37.061,0,0,1,.071,4.51l-.508,19.574c-.061,2.395-.183,4.967-1.663,6.848a3.274,3.274,0,0,0-.595,2.171c.386,4.911,1.2,9.782,2.008,14.637a9.045,9.045,0,0,1,8.206.391,90.326,90.326,0,0,0,4.215-24.913c.117-4.164-.061-8.353.58-12.466,1.073-6.925.635-14.027-.152-20.993a11.6,11.6,0,0,0-2.191-6.187,9.38,9.38,0,0,0-5.084-2.928C773.948,422.268,772.266,422.776,770.283,422.746Z" transform="translate(-767.996 -358.014)"/><path class="i" d="M770.283,422.746a4.819,4.819,0,0,0-.508,2.679,91.1,91.1,0,0,0,.712,13.478c.158,1.068.356,2.135.458,3.213a37.061,37.061,0,0,1,.071,4.51l-.508,19.574c-.061,2.395-.183,4.967-1.663,6.848a3.274,3.274,0,0,0-.595,2.171c.386,4.911,1.2,9.782,2.008,14.637a9.045,9.045,0,0,1,8.206.391,90.326,90.326,0,0,0,4.215-24.913c.117-4.164-.061-8.353.58-12.466,1.073-6.925.635-14.027-.152-20.993a11.6,11.6,0,0,0-2.191-6.187,9.38,9.38,0,0,0-5.084-2.928C773.948,422.268,772.266,422.776,770.283,422.746Z" transform="translate(-767.996 -358.014)"/><path class="j" d="M782.873,527.969a89.792,89.792,0,0,0,5.349,51.981,14.1,14.1,0,0,1,1.241,3.844c.28,2.491-.869,4.886-1.525,7.3-1.525,5.481-.646,11.318.331,16.925q.61,3.508,1.256,7.011c.422,2.278.829,4.754-.229,6.818.91,3.793,1.449,7.55,2.359,11.343a2.157,2.157,0,0,1,.086.93,2.741,2.741,0,0,1-.93,1.246,5.562,5.562,0,0,0-1.419,5.323c2.323-1.668,5.562-1.083,8.216,0s5.267,2.542,8.135,2.542c-.417-3.366-.819-6.9.422-10.057.722-1.83,1.993-3.559,1.957-5.516-.036-1.754-1.108-3.32-1.368-5.054a12.793,12.793,0,0,1,.122-3.234c.681-6.223-.091-12.507-.864-18.72a11.187,11.187,0,0,0-.854-3.559,5.255,5.255,0,0,1-.89-2.252c0-.951.768-1.724,1.052-2.628.508-1.668-.427-3.935.981-4.967,3.711-2.725,2.288-9.233,2.207-13.834q-.1-5.954-.508-11.9a50.676,50.676,0,0,1,2.806,20.51c-.163,2.278-.463,4.672.427,6.777.681,1.617,2.034,2.949,2.4,4.662a19.506,19.506,0,0,1,.117,3.229,3.327,3.327,0,0,0,1.347,2.8c.071,4.9.508,10.143.585,15.044a37.119,37.119,0,0,0,.61,7.474,9.525,9.525,0,0,1,.376,2.41,10.068,10.068,0,0,1-.8,2.964,17,17,0,0,0,2.542,15.685,7.581,7.581,0,0,1,6.142-3.437,22.278,22.278,0,0,1,7.214,1.058,14.129,14.129,0,0,1,1.688-8.592,7.028,7.028,0,0,0,.89-1.912c.274-1.291-.366-2.578-.712-3.854a19.369,19.369,0,0,1-.234-6.35,100.483,100.483,0,0,0-.941-21.313,18.048,18.048,0,0,0-.971-4.067c-.183-.468-.407-.915-.559-1.388a10.945,10.945,0,0,1-.407-2.6l-.585-8.135c-.412-5.7,1.459-11.328,2.766-16.89.585-2.491,1.22-4.977,1.612-7.509.534-3.447.62-6.97,1.4-10.372.7-3.051,1.968-6.025,2.232-9.152.407-4.845-1.607-9.528-3.559-13.971-.813-1.83-3.89-1.647-5.867-1.973-14.027-2.3-28.8-2.318-42.031,2.873A10.462,10.462,0,0,0,782.873,527.969Z" transform="translate(-774.373 -406.473)"/><path class="g" d="M802.369,353.044l1.556,6.05a16.164,16.164,0,0,1,.7,4.276,3.158,3.158,0,0,1-.341,1.525,3.636,3.636,0,0,1-.966.986c-1.063.808-1.8,2.695-3.015,3.254.625,1.088,1.49.381,2.618.925,1.988.966,3.808,2.354,5.964,2.832a13.3,13.3,0,0,0,6.187-.508,21.367,21.367,0,0,0,8.013-3.727c2.3-1.876,3.615-3.534,3.6-6.5-2.542.3-4.8-2.268-5.928-4.576a12.428,12.428,0,0,1-.854-2.74l-1.363-5.994c-1.485.325-2.695,1.388-4.113,1.942a14.933,14.933,0,0,1-4.672.676,50.332,50.332,0,0,0-8.318,1.078c-.376.076-.849.315-.758.681" transform="translate(-783.757 -321.788)"/><path class="d" d="M802.369,353.044l1.556,6.05a16.164,16.164,0,0,1,.7,4.276,3.158,3.158,0,0,1-.341,1.525,3.636,3.636,0,0,1-.966.986c-1.063.808-1.8,2.695-3.015,3.254.625,1.088,1.49.381,2.618.925,1.988.966,3.808,2.354,5.964,2.832a13.3,13.3,0,0,0,6.187-.508,21.367,21.367,0,0,0,8.013-3.727c2.3-1.876,3.615-3.534,3.6-6.5-2.542.3-4.8-2.268-5.928-4.576a12.428,12.428,0,0,1-.854-2.74l-1.363-5.994c-1.485.325-2.695,1.388-4.113,1.942a14.933,14.933,0,0,1-4.672.676,50.332,50.332,0,0,0-8.318,1.078c-.376.076-.849.315-.758.681" transform="translate(-783.757 -321.788)"/><circle class="g" cx="13.463" cy="13.463" r="13.463" transform="translate(11.83 7.666)"/><path class="f" d="M809.684,371.588a12.2,12.2,0,0,1,3.051-4.067c1.9-1.663,4.489-3.01,4.937-5.491l4.108,4.784a2.211,2.211,0,0,1,.508.783,1.972,1.972,0,0,1-.386,1.581,16.467,16.467,0,0,1-4.133,3.956,125.517,125.517,0,0,0-9.96,8.785,1.018,1.018,0,0,1-.534.325.961.961,0,0,1-.554-.158,23.127,23.127,0,0,1-7.1-5.776c-.147-.178-.331-.381-.569-.366a.732.732,0,0,0-.381.2c-1.368,1.119-2.862,2.456-4.616,2.283a10.935,10.935,0,0,0,4.037-7.118,13.451,13.451,0,0,1,.58-2.781,2.9,2.9,0,0,1,1.983-1.881c-1.108,1.693-.351,4.093,1.139,5.46a11.226,11.226,0,0,0,5.043,2.445C808.56,374.878,809.069,372.92,809.684,371.588Z" transform="translate(-780.685 -328.267)"/><path class="f" d="M784.23,527.818c1.917.473,3.732,1.276,5.593,1.871a26.727,26.727,0,0,0,10.5,1.1,5.669,5.669,0,0,0,3.051-.971c.239-.193.458-.422.712-.6a4.979,4.979,0,0,1,1.368-.564c4.662-1.459,8.567-4.606,12.355-7.687.122-.1.259-.229.249-.392a.508.508,0,0,0-.152-.29L815.91,518c-5.227.89-10.58.554-15.883.422a23.055,23.055,0,0,0-3.264.086c-1.047.122-2.079.386-3.112.61-3.92.854-7.926,1.18-11.9,1.739a1.836,1.836,0,0,0-.788.244,1.775,1.775,0,0,0-.422.468l-1.393,1.957a6.158,6.158,0,0,0-1.169,2.242c-.325,1.525.356,2.034,1.652,1.835A12.068,12.068,0,0,1,784.23,527.818Z" transform="translate(-772.746 -404.939)"/><path class="b" d="M796.326,384.259a24.766,24.766,0,0,0-5.242-4.093,7.429,7.429,0,0,0-2.542-1.017,3.172,3.172,0,0,0-2.6.641c-.452.4-.737.961-1.174,1.383a5.842,5.842,0,0,1-1.861,1.052,33,33,0,0,0-6.538,3.727,14.993,14.993,0,0,0-2.964,2.735c-2.3,2.949-2.649,6.96-2.588,10.7.046,2.6,2.542,4.535,4.26,6.482a47.763,47.763,0,0,1,4.362,6.1c.925,1.464,1.891,3.05,1.774,4.794-.1,1.429-.93,2.771-.8,4.194.046.508.208.976.254,1.469a16.528,16.528,0,0,1-.412,3.051c-.137,1.439.33,2.867.356,4.316a13.727,13.727,0,0,1-.376,2.944c-.976,4.647-2.2,9.319-1.952,14.063l-2.817.508a2.379,2.379,0,0,1-.544,3.8c4.4,1.469,9.152.727,13.814.722,3.859,0,7.7.508,11.556.437s7.83-.768,11.007-2.949c.864-.59,1.657-1.281,2.568-1.795a12.666,12.666,0,0,1,3.889-1.271,38.592,38.592,0,0,1,7.626-.681,5.872,5.872,0,0,0,3.61-.7c1.1-.834,1.378-2.344,1.525-3.711.147-1.444.239-2.893.264-4.342a18.716,18.716,0,0,0-.178-3.376,22.138,22.138,0,0,0-.595-2.42l-1.917-6.752c-.793-2.786.31-5.842.544-8.73a2.189,2.189,0,0,0-.458-1.912c-.188-.158-.447-.264-.508-.508a.87.87,0,0,1,.122-.681,37.633,37.633,0,0,1,3.935-5.664,115.752,115.752,0,0,0,6.508-10,32.177,32.177,0,0,0-8.613-19.259,9.319,9.319,0,0,0-3.6-2.659,10.681,10.681,0,0,0-2.868-.463c-3.986-.269-8.135-.508-11.607-2.512a2.206,2.206,0,0,0-.829-.351c-.768-.086-1.327.671-1.825,1.271-1.281,1.525-3.168,2.4-4.825,3.523A34.21,34.21,0,0,0,796.326,384.259Z" transform="translate(-769.259 -332.935)"/><path class="b" d="M884.938,419.676c.793,2.512.717,5.2.976,7.814a30.418,30.418,0,0,0,.829,4.683,7.48,7.48,0,0,0,.966,2.384,10.49,10.49,0,0,1,1.4,1.973,4.763,4.763,0,0,1,.208,1.586l.061,3.508a12.612,12.612,0,0,1-.829,5.46l-2.191,6.665c-1.185,3.61-2.4,7.275-4.535,10.418a3,3,0,0,1-1.307,1.225,6.351,6.351,0,0,1-1.317.2,3.386,3.386,0,0,0-2.791,3.289,7.724,7.724,0,0,0-1.876-1.917l-4.459-3.559a19.058,19.058,0,0,0-4.967-3.218,13.468,13.468,0,0,0,9.365-11.317,5.085,5.085,0,0,1,.508-2.227c.371-.6,1.057-1.058,1.108-1.764.061-.89-.946-1.561-.946-2.451,0-.59.437-1.078.63-1.632a4.1,4.1,0,0,0,0-2.09l-.615-3.417a2.61,2.61,0,0,0-.305-.976,6.307,6.307,0,0,0-.763-.8c-1.057-1.185-.59-3.05,0-4.51a43.107,43.107,0,0,1,5.2-9.116,31.2,31.2,0,0,0,2.069-2.959c.539-.936.661-2.232,1.23-3.051C883.322,415.8,884.313,417.7,884.938,419.676Z" transform="translate(-815.616 -353.755)"/><path class="f" d="M862.013,504.93a2.452,2.452,0,0,0-.58.61,5.139,5.139,0,0,1-2.3,1.642c.508.366.971.727,1.449,1.1a63.5,63.5,0,0,1,9.66,9.238c.32-1.144,2.237-1.063,2.7-2.156a2.112,2.112,0,0,0,.1-.976,29.793,29.793,0,0,0-.732-5.084,5.757,5.757,0,0,0-1.017-2.379,6.1,6.1,0,0,0-2.878-1.627C866.817,504.736,863.64,503.948,862.013,504.93Z" transform="translate(-812.677 -398.284)"/><path class="g" d="M844.351,511.668c-1.525,1.129-2.862,2.542-4.576,3.315a17.214,17.214,0,0,0-3.646,1.607,3.623,3.623,0,0,0,3.457,1.871,8.217,8.217,0,0,0,3.869-1.419c.91-.559,1.978-1.21,2.969-.819.153.773-.508,1.5-.508,2.283a2.3,2.3,0,0,0,1.291,1.764c3.05,1.968,6.975,1.8,10.611,1.576a.955.955,0,0,0,.585-.173.92.92,0,0,0,.219-.671c.046-.8.066-1.6.071-2.4a3.447,3.447,0,0,0-1.474-3.4,41.507,41.507,0,0,0-6.355-4.5C848.627,509.405,846.359,510.173,844.351,511.668Z" transform="translate(-801.37 -401.026)"/><path class="k" d="M823.24,326.076c-2.258.269-3.9,2.034-3.671,3.95s2.242,3.239,4.5,2.964,3.9-2.034,3.671-3.945S825.5,325.807,823.24,326.076Zm.768,6.386a2.989,2.989,0,1,1,3.106-3.34A3.254,3.254,0,0,1,824.008,332.462Z" transform="translate(-793.219 -310.575)"/><path class="k" d="M801.6,328.676c-2.257.269-3.9,2.034-3.671,3.945s2.242,3.239,4.5,2.969,3.9-2.034,3.671-3.95S803.858,328.407,801.6,328.676Zm.768,6.381a2.988,2.988,0,1,1,3.107-3.34,3.247,3.247,0,0,1-3.107,3.34Z" transform="translate(-782.581 -311.853)"/><path class="k" d="M663.083,259.64l4.906,1.047-.483,1.291-4.627-1.357Z" transform="translate(-652.235 -241.836)"/><path class="k" d="M712.695,253.18l-4.525,2.181.778,1.139,4.174-2.415Z" transform="translate(-674.498 -238.66)"/><path class="k" d="M687.31,260.662l3.442-.412-.178.854-2.954.2Z" transform="translate(-664.244 -242.136)"/><path class="l" d="M791.919,312.993a5.461,5.461,0,0,0,.508-2.222,4.75,4.75,0,0,1,.234-1.352A3.785,3.785,0,0,1,793.769,308a10.254,10.254,0,0,1,6.1-2.13,14.1,14.1,0,0,1,7.057,1.525,5.493,5.493,0,0,1,1.754,1.3c.712.869.864,1.993,1.581,2.852a4.154,4.154,0,0,0,3.895,1.22,20.279,20.279,0,0,0,.051-2.725,13.174,13.174,0,0,1,.808-2.257,5.548,5.548,0,0,0-2.73-6.406,10.535,10.535,0,0,1-2.43-1.525,11.5,11.5,0,0,1-1.195-2.085c-1.134-1.815-4.067-2.664-6.3-1.825-.7.264-1.322.666-2.034.951a16.762,16.762,0,0,1-4.281.824,13.112,13.112,0,0,0-4.149,1.088,4.646,4.646,0,0,0-2.6,2.807c-.137.549-.107,1.118-.244,1.662-.7,2.761-5.232,4.1-5.486,6.92a4.038,4.038,0,0,0,1.154,2.822c.478.564,1.622,2.074,2.43,2.293s1.424-.549,2.2-.814C790.571,314.117,791.309,314.036,791.919,312.993Z" transform="translate(-775.528 -295.621)"/></g><path class="c" d="M912.81,682c0,25.543,16.025,46.215,35.828,46.215" transform="translate(-512.69 -371.357)"/><path class="b" d="M983.28,727.724c0-25.833,17.886-46.734,39.987-46.734" transform="translate(-547.332 -370.86)"/><path class="b" d="M938.35,686.56c0,24.267,10.219,43.9,22.843,43.9" transform="translate(-525.245 -373.598)"/><path class="c" d="M983.28,715.169c0-33.006,20.672-59.719,46.215-59.719" transform="translate(-547.332 -358.305)"/><ellipse class="a" cx="8.907" cy="1.505" rx="8.907" ry="1.505" transform="translate(425.49 362.68)"/><path class="m" d="M968.46,770.9s5.084-.158,6.609-1.246,7.814-2.395,8.2-.646,7.626,8.7,1.9,8.745-13.331-.895-14.856-1.825S968.46,770.9,968.46,770.9Z" transform="translate(-540.047 -413.706)"/><path class="n" d="M985.268,779.789c-5.735.046-13.326-.895-14.856-1.825-1.164-.707-1.627-3.254-1.785-4.423h-.168s.32,4.1,1.851,5.028,9.121,1.871,14.856,1.825c1.658,0,2.227-.6,2.2-1.474C987.134,779.448,986.529,779.778,985.268,779.789Z" transform="translate(-540.047 -416.356)"/><path class="c" d="M148.31,711.36c0,20.337,12.746,36.769,28.5,36.769" transform="translate(-136.876 -385.789)"/><path class="b" d="M204.37,747.731c0-20.55,14.236-37.181,31.812-37.181" transform="translate(-164.434 -385.391)"/><path class="b" d="M168.62,715c0,19.32,8.135,34.928,18.176,34.928" transform="translate(-146.86 -387.579)"/><path class="c" d="M204.37,737.742c0-26.26,16.447-47.512,36.769-47.512" transform="translate(-164.434 -375.402)"/><ellipse class="a" cx="7.087" cy="1.2" rx="7.087" ry="1.2" transform="translate(31.613 366.966)"/><path class="m" d="M192.58,782.048s4.042-.127,5.257-1.017,6.223-1.907,6.523-.508,6.076,6.92,1.525,6.955-10.606-.712-11.821-1.449S192.58,782.048,192.58,782.048Z" transform="translate(-158.638 -419.45)"/><path class="n" d="M205.951,789.192c-4.576.036-10.606-.712-11.821-1.454-.925-.559-1.291-2.588-1.418-3.518h-.132s.254,3.259,1.469,4,7.26,1.485,11.821,1.449c1.317,0,1.774-.478,1.749-1.174C207.436,788.9,206.933,789.162,205.951,789.192Z" transform="translate(-158.638 -421.606)"/></g></svg>