<svg xmlns="http://www.w3.org/2000/svg" width="106.865" height="106.837" viewBox="0 0 106.865 106.837"><defs><style>.a{fill:#ed6362;}.b{fill:#ffcc5b;}</style></defs><g transform="translate(0 -0.066)"><g transform="translate(4.157 3.936)"><path class="a" d="M315.633,37.885,310.1,41.57l-9.213-1.843-5.528-1.843-7.371,1.843-5.528-1.843,3.685-7.371h7.371l7.223-3.611A52.776,52.776,0,0,1,315.633,37.885Z" transform="translate(-227.666 -25.171)"/><path class="a" d="M65.5,23.948,63.66,29.476l-5.528,1.843L52.6,40.531l-9.213,5.528L30.493,47.9V53.43l3.685,3.685v7.371L28.65,60.8l-5.528-3.685-3.206-9.637A53.4,53.4,0,0,1,49.214,18.6l5.233,3.5Z" transform="translate(-19.916 -18.604)"/><path class="a" d="M109.285,228.525l-1.843,9.213-7.371,7.371v5.528L92.7,256.164v9.213l-5.528-1.843-3.685-9.213V235.9l-9.213-1.843-3.685-7.371v-5.528l3.685-3.685,5.528-5.528,3.685,7.371h12.9l5.528,9.213Z" transform="translate(-60.013 -171.587)"/><path class="a" d="M316.572,118.2a53.384,53.384,0,0,1-2.948,56.882l-4.975-4.975v-7.371l-3.685-7.371L301.278,148v-7.371l-5.528-3.685-7.371,1.843-12.9-5.528-1.843-12.9,5.528-5.528h11.056l3.685,5.528,11.056,1.843,11.056-3.685Z" transform="translate(-220.682 -94.746)"/></g><path class="b" d="M64.485,18.493l7.371-1.843,5.528,1.843L86.6,20.335l5.528-3.685a52.623,52.623,0,0,1,7.923,10.742l-.553.313L88.439,31.391,77.383,29.548,73.7,24.02H62.642l-5.528,5.528,1.843,12.9,12.9,5.528,7.371-1.843,5.528,3.685v7.371l3.685,7.371,3.685,7.371V79.3L97.1,84.275A53.436,53.436,0,0,1,4.157,32.81l3.206,9.637,5.528,3.685,5.528,3.685L14.734,53.5V59.03L18.419,66.4l9.213,1.843V86.67l3.685,9.213,5.528,1.843V88.512l7.371-5.528V77.456l7.371-7.371,1.843-9.213H46.058L40.53,51.66h-12.9l-3.685-7.371-5.528,5.528V42.446l-3.685-3.685V33.233l12.9-1.843,9.213-5.528,5.528-9.213L47.9,14.807l1.843-5.528L38.688,7.437l-5.233-3.5A53.44,53.44,0,0,1,77.236,5.668L70.013,9.279H62.642L58.957,16.65Z" transform="translate(0 0)"/></g></svg>